<?xml version="1.0" encoding="utf-8"?>
<!-- Generator: Adobe Illustrator 24.1.3, SVG Export Plug-In . SVG Version: 6.00 Build 0)  -->
<svg version="1.1" id="Layer_1" xmlns="http://www.w3.org/2000/svg" xmlns:xlink="http://www.w3.org/1999/xlink" x="0px" y="0px"
	 viewBox="0 0 190.8 190.8" style="enable-background:new 0 0 190.8 190.8;" xml:space="preserve">
<style type="text/css">
	.st0{opacity:0.1;fill:#04A0F4;enable-background:new    ;}
	.st1{fill:#04A0F4;}
	.st2{fill:#F2F2F2;}
</style>
<circle class="st0" cx="95.4" cy="95.4" r="80"/>
<circle class="st0" cx="95.4" cy="95.4" r="95.4"/>
<circle class="st1" cx="95.4" cy="95.4" r="65.5"/>
<g>
	<g id="Layer_2_3_">
		<g id="Layer_1-2_1_">
			<path class="st2" d="M138.9,97.7c-1.2,0-2.2-0.9-2.4-2.1l-2.6-15.1c-0.4-2.5-2.8-4.2-5.3-3.7c-2,0.3-3.5,1.9-3.8,3.9l-4.1,30.4
				c-0.2,1.2-1.3,2.1-2.5,2c-1-0.1-1.8-0.9-2-2l-4.7-40c-0.3-2.3-2.2-4.1-4.6-4.1h-0.3c-2.1,0-3.9,1.5-4.4,3.6l-3.3,14.3
				c-0.3,1.5-1.8,2.4-3.3,2.1c-1.1-0.2-1.9-1.1-2.1-2.1l-2.8-14.1c-0.5-2.5-2.9-4.1-5.4-3.7c-2,0.4-3.5,2-3.7,4L76.9,111
				c-0.1,1.1-1.1,2-2.3,2c-1.2,0-2.2-0.9-2.3-2.1l-2.9-29.1c-0.3-3-2.9-5.1-5.9-4.9c-2.4,0.2-4.4,2-4.8,4.4l-2.6,14.2
				c-0.3,1.4-1.5,2.4-2.9,2.4H29.5v3.3h23.8c3,0,5.6-2.2,6.1-5.1L62,81.8c0.2-1,1-1.6,2-1.6c1.1,0,2,0.8,2.1,1.9l2.9,29.1
				c0.3,3.1,3,5.4,6.1,5.1c2.6-0.2,4.8-2.3,5.1-4.9l4.6-40c0.1-0.6,0.6-1.1,1.3-1.1c0.6,0,1.1,0.4,1.2,1l2.8,14.1
				c0.4,2.2,2.1,4.1,4.3,4.7v25.7c-2.7,0.9-4.2,3.8-3.3,6.5c0.9,2.7,3.8,4.2,6.5,3.3c2.7-0.9,4.2-3.8,3.3-6.5
				c-0.5-1.5-1.7-2.7-3.3-3.3V90c2.1-0.6,3.8-2.3,4.3-4.5l3.3-14.3c0.1-0.6,0.6-1,1.2-1h0.3c0.6,0,1.2,0.5,1.2,1.1l4.8,40
				c0.4,3.1,3.2,5.3,6.3,4.9c2.5-0.3,4.5-2.3,4.9-4.8l4.1-30.5c0.1-0.6,0.6-1.1,1.2-1.1c0.6,0,1.1,0.4,1.2,1l2.6,15.1
				c0.5,2.8,2.9,4.8,5.7,4.8h22.4v-3.3L138.9,97.7z M96.1,122.5c-1,0-1.8-0.8-1.8-1.8c0-1,0.8-1.8,1.8-1.8c1,0,1.8,0.8,1.8,1.8
				C98,121.7,97.1,122.5,96.1,122.5C96.1,122.5,96.1,122.5,96.1,122.5z"/>
		</g>
	</g>
</g>
</svg>
