<?xml version="1.0" encoding="utf-8"?>
<!-- Generator: Adobe Illustrator 24.1.2, SVG Export Plug-In . SVG Version: 6.00 Build 0)  -->
<svg version="1.1" id="Layer_1" xmlns="http://www.w3.org/2000/svg" xmlns:xlink="http://www.w3.org/1999/xlink" x="0px" y="0px"
	 viewBox="0 0 97.4 73.1" style="enable-background:new 0 0 97.4 73.1;" xml:space="preserve">
<style type="text/css">
	.st0{fill:#00A1F4;}
</style>
<g>
	<path class="st0" d="M43.3,8.6C28.9,14.7,18.1,23,18.1,35.3c0,10.8,10.1,13.2,20.6,15.7c1.8,0.3,4,4.6,4,8.3
		c0,8.3-6.5,13.8-15.7,13.8C13.5,73.1,0,62,0,41.8C0,20,19.7,5.5,39.3,0L43.3,8.6z M97.4,8.6C82.9,14.7,72.2,23,72.2,35.3
		c0,10.8,10.4,13.2,20.9,15.7c1.8,0.3,4,4.6,4,8.3c0,8.3-6.8,13.8-15.7,13.8c-13.5,0-27-11.1-27-31.3C54.4,20,74,5.5,93.7,0
		L97.4,8.6z"/>
</g>
</svg>
