<?xml version="1.0" encoding="utf-8"?>
<!-- Generator: Adobe Illustrator 24.1.2, SVG Export Plug-In . SVG Version: 6.00 Build 0)  -->
<svg version="1.1" xmlns="http://www.w3.org/2000/svg" xmlns:xlink="http://www.w3.org/1999/xlink" x="0px" y="0px"
	 viewBox="0 0 422.1 434.9" style="enable-background:new 0 0 422.1 434.9;" xml:space="preserve">
<style type="text/css">
	.st0{opacity:0.1;fill:#04A0F4;}
	.st1{clip-path:url(#SVGID_2_);}
	.st2{fill:#FFFFFF;stroke:#484949;stroke-miterlimit:10;}
	.st3{fill:#484949;}
	.st4{fill:#FF695B;}
	.st5{fill:none;stroke:#484949;stroke-miterlimit:10;}
	.st6{fill:#04A0F4;}
	.st7{fill:none;stroke:#484949;stroke-width:2;stroke-miterlimit:10;}
	.st8{fill:#C5CED1;}
	.st9{opacity:0.15;fill:#05A0F4;}
	.st10{opacity:0.1;fill:#05A0F4;}
	.st11{fill:#05A0F4;}
	.st12{fill:#FFFFFF;}
	.st13{fill:none;stroke:#B7B7B7;stroke-miterlimit:10;}
	.st14{fill:#FFFFFF;stroke:#9E9E9E;stroke-miterlimit:10;}
	.st15{opacity:0.1;fill:#04A0F4;enable-background:new    ;}
</style>
<g id="Layer_4">
	<path class="st0" d="M408.8,128.4c-10.3-19.8-28.8-35.5-49.8-43.7c-48.2-18.8-97.8-6.3-125.3,37.4c-11.1,17.6-21.7,36.9-39.9,47
		c-33.2,18.4-76-1.8-112.2,9.5c-27.4,8.6-47.1,35.6-49.8,64.1c-3.9,40.6,24.3,76.7,54.2,100.7c31.1,25,70.4,41.1,110.6,39.5
		c59.6-2.3,113.6-40.7,156.1-79c39.7-35.8,74.7-101.9,63.2-156C414.4,141.1,412,134.6,408.8,128.4z"/>
</g>
<g id="Layer_1">
	<g>
		<g>
			<defs>
				<path id="SVGID_1_" d="M420.9,122.1c-5.3-48.8-15.5-106.7-59-131.3c-11.6-6.6-25.1-9.1-38.5-10.2c-25.2-2-51.2,1.1-74.2,11.7
					c-19,8.7-35.4,22.3-53.7,32.3c-28.2,15.3-60.2,21.9-92.1,25.5C81.4,52.5,57.8,54.2,40,67.5C23.9,79.7,10.5,98.8,10.2,119
					c-1.6,92,30.2,177.1,54.8,203.7c33.9,36.7,82.5,61.8,132.4,59.9c59.6-2.3,113.6-40.7,156.1-79
					C367.9,290.6,431.7,221.4,420.9,122.1z"/>
			</defs>
			<clipPath id="SVGID_2_">
				<use xlink:href="#SVGID_1_"  style="overflow:visible;"/>
			</clipPath>
			<g class="st1">
				<path class="st2" d="M238.4,149.8c2-8.2,6.7-15.6,12.5-21.7c2-2.2,4.3-4.2,7.2-5.2c2.8-1,6.2-0.7,8.3,1.4
					c2.4,2.4,2.5,6.1,2.4,9.5c-0.3,13.1-0.7,26.4-3.4,39.3c-1.3,6.5-3.2,12.8-5.9,18.9c-2.2,5-3.9,9.8-5.9,14.8
					c-6.8,16.6-45.2,36.9-48.1,37.5c0-4.1-7.8-32.7-14-30.3c7.4-2.8,21.8-11.8,27.1-17.7C222,192.6,230.5,182.2,238.4,149.8z"/>
				<path class="st3" d="M352.8,412.8c-0.3,0.3-0.7,0.6-1.3,0.9c-12.8,5.5-28.3,6.7-42.2,6.6c-22.5-0.2-45.2-6.1-67.4-2.3
					c-6,1-11.9,2.8-17.9,3.6c-1.3,0.2-2.6,0.3-3.8-0.1c-2.1-0.7-3.5-2.9-3.8-5.1c-0.3-2.2,0.1-4.4,0.6-6.6c1.3-6.2,8.4-7.3,14.4-9.5
					s12.2-3.9,17.1-7.9c3.2-2.6,5.7-6,7.8-9.6c3-4.9,5.4-10.2,7.2-15.7c2.2-6.7,4.3-14.5,10.7-17.4c4.3-1.9,9.2-0.9,13.7,0.4
					c14.9,4.3,28.8,11.7,40.8,21.4c5.5,4.4,10.6,9.5,13.8,15.8c2.6,5.1,3.5,10.8,5.6,16.1C349.2,406,354.8,410.3,352.8,412.8z"/>
				<path class="st2" d="M350.3,235.8c1.5,52,0.2,104,0.4,156c0,5.8,0,11.6,0.1,17.3c-5.8-3.5-11.7-7-17.8-10.1
					c-5.5-2.8-12.3-4.2-18.4-5.6c-9.5-2.2-21.4-2.8-30.3-6.5c-3.5-19.8-6.3-39.7-8.6-59.7c-2.1-18.4-5.6-37.9-5.4-56.3
					c0.3-30.1,1.5-60.3,3.1-90.3c0.4-7.4,0.8-14.8,1.9-22.2c0.8-5,1.8-9.9,3.5-14.7c1.5-4.4,3.5-8.5,5.9-12.5c1.8-3,3.9-5.9,6.7-8.1
					c5.1-4.2,12.3-5.6,18.6-3.8c3.3,1,6.3,2.7,9.1,4.6c5,3.4,9.5,7.2,14.1,11.1c3.2,2.7,6.5,5.5,9.2,8.7c2.5,2.9,4.6,6.1,6.7,9.3
					c1,1.6,2.1,3.2,3.1,4.7c0.3,0.4,0.5,0.8,0.5,1.3s-0.5,0.9-0.9,0.7"/>
				<path class="st3" d="M292.9,249.7c0.5-0.2,1-0.4,1.5-0.7c0.4-0.2,0.6-0.5,1.1-0.5c0.8,0,1.6,0,2.4,0.1c0.3,0,0.5,0.1,0.8,0.2
					c0.4,0,0.8-0.1,1.2-0.1c0.7,0,1.4,0.2,1.8,0.8c0.4,0.6,0.1,1.4-0.3,2.1c-0.8,1.4-2.1,2.4-3.4,3.4c-0.9,0.7-1.9,1.3-2.9,1.9
					c-1.5,0.9-2.9,1.9-4.4,2.8c-0.3,0.2-0.7,0.4-1.1,0.5c-0.5,0.1-1,0.1-1.5,0c-1.4-0.2-2.8-0.4-4.1-0.7c-0.3-0.1-0.6-0.1-0.9-0.3
					c-0.7-0.4-0.9-1.4-1-2.2c-0.1-0.6-0.1-1.1-0.2-1.7c0-0.3-0.1-0.6,0.1-0.8c0.1-0.2,0.3-0.3,0.5-0.5
					C285.7,252.1,289.4,251.1,292.9,249.7z"/>
				<path class="st3" d="M332.8,279.1c-1.4,0.7-12.8-11.6-15-18l9.9-3.5c0,0,2.5,8.6,3.2,11.5C331.5,271.5,332.8,279.1,332.8,279.1z
					"/>
				<path class="st2" d="M223.6,361.4c-2.9,16.2-6,31.8-5.7,48.2c10.4-5.9,21.1-11,32.1-15.4c5.4-2.2,11.1-4.2,16.9-3.8
					c1-8.5,3.9-17,6.2-25.3c2.8-10.1,5.6-20.2,7.8-30.4c4.5-21.4,5.9-43.4,6.3-65.3c0.5-29-1.9-51.3-1.8-80.2c0-4.1,1.7-14.8,1-18.8
					c-0.9-5.2-2.9-10.1-4.1-15.2c-0.9-3.8-1.4-7.6-1.9-11.4c-1.7-12.7-0.6-25.8,0.9-38.5c-10.5,2.4-27.4,13.1-33.3,22.1
					c-9.9,15.2-15.6,37.3-15.6,58.9c0,5.4-0.3,10.9-0.4,16.3c-0.3,11.5-0.7,23-1.1,34.5c-0.8,22.5-1.8,45.1-2.9,67.6
					c-0.8,16.1-1.6,32.2-3.1,48.2C224.4,355.6,224.1,358.5,223.6,361.4z"/>
				<path class="st2" d="M328.3,259.3c-3.8,0.6-14.2,3.3-17.6,5.1c-1.3,0.7-2.6,1.5-4,2.2c-7.1,3.4-16.1,1.9-21.7-3.7
					c-1.4-1.4-2.7-3.2-2.7-5.2c5.4,0.3,10.2-3.2,14.4-6.5c-2.8,0.9-5.4,2.4-8.1,3.4c-2.7,1-5.9,1.6-8.6,0.5c-0.7-0.3-1.6-1-1.3-1.8
					c0.2-0.6,1-0.9,1.6-1.1c4.6-1.3,8.1-5.6,12.8-6.7c3.9-0.9,7.9,0.5,11.8,0.8c4.9,0.4,13.9-2,18.4-4.6c1.5-0.9,3.9-0.4,5.5,0.4
					c1.6,0.8,2.7,2.2,3.6,3.7c1.4,2.5,2.2,5.5,1.5,8.3C333.3,256.9,331.2,258.9,328.3,259.3z"/>
				<path class="st2" d="M290.4,104.4c1.3-0.1,2.5-0.2,3.7-0.2c22.1-1,51.7,13.1,64.3,24.5c8.8,8,14.3,19,19,29.9
					c9.4,21.7,10.8,49.4,4.5,73.1c-7.3,27.1-47.9,47.1-49.1,47.4c0-4.1-7.7-37.8-14-35.4c13.1-5.1,22.9-12.5,27.8-26
					c6.1-16.6,2-37-5-52.6"/>
				<path class="st2" d="M103.1,148c-0.4,1-0.7,2.1-1.1,3.1c-2.7,7.4-8.1,13.9-15,17.7c-5.6,3.1-12,4.6-17.7,7.5
					c-7.1,3.6-9.6,8.3-10.2,16.3c-0.3,3.5-0.1,7.1,1.2,10.4c2.1,5.3,6.8,9,11.7,11.9c18.5,10.9,41.2,12.4,62.3,9.1
					c4.1-0.6,8.4-1.5,11.7-4.1c5.8-4.5,6.8-12.8,6.7-20.1c-0.1-6.8-0.8-13.7-3.6-19.8c-2-4.3-3.7-4.8-7.6-6.6
					c-4.6-2.1-8.9-5.2-12.9-8.2c-1.2-0.9-2.4-1.9-2.6-3.3c-0.2-1.3,0.4-2.6,1.1-3.7c2.1-3.6,4.5-7,7.3-10.1c-0.5,0.5,8.4,1.1,8.9,1
					c3.5-0.2,7-0.5,10.1-2.3c3.3-2.5,4.9-7.4,4.1-11.5c-2.5-15.6-5-35.9-17.3-42.8c-7.4-3.3-16.5-1.6-24.7-1.6
					c-6.6,0.8-13.2,2.5-17.3,8.2c-4.1,4.9-6.6,11.5-5.8,18.1c0.8,5.8,3.3,9.9,8.2,14C106,136.3,105.2,141.8,103.1,148z"/>
				<path class="st2" d="M119.2,138.2c-0.4,0.8-1.3,1.3-2.3,1.3c-0.7,0-1.4-0.3-2-0.6c-2.8-1.6-4.6-4.8-5.1-8
					c-0.2-1.3-0.2-2.7,0.4-3.9c0.6-1.2,1.8-2.1,3.1-2.1c0.6,0,1.1,0.2,1.6,0.5c1.6,0.7,3.2,1.5,4.7,2.3"/>
				<path class="st4" d="M130.1,242.3c3.1,1.7,5.7,4.3,7.2,7.5c2.4,5,2.2,10.8,2.8,16.3c0.9,8.4,3.8,16.6,8.3,23.7
					c4.8,7.5,10.4,9.2,18.7,11.5c14.9,4.1,29.3,10.4,42.7,18.1c6.2,3.5,12.1,8.6,18.5,11.3c6.5,2.7,11.1,6.8,14,13.4
					c2.8,6.2,3.7,13,4.3,19.7c0.8,9,1.3,17.9,1.3,26.9c0,8.4-1.4,16.4-1.9,24.8c-0.9,15.8,0,31.6,2.5,47.2
					c1.5,9.4,3.1,19.2,5.3,28.4c2.4,10,5.6,20.1,4.8,30.5c-0.1,0.7-0.1,1.4-0.6,2c-0.5,0.5-1.2,0.8-1.9,0.8
					c-4.9,0.4-8.3-4.7-10.4-9.1c-5.4-10.9-12.3-20.8-16.7-32.1c-4.8-12.2-8.3-24.8-11.7-37.5c-2.3-8.3-4.5-16.6-5.7-25.1
					c-1.6-11.5-1.1-23.2-2.8-34.6c-3.1-20.6-14.9-29.8-30.8-41.4c-14.8-10.8-31.5-19.8-49.8-22.4c5.1,9.5,15.2,15.3,25.2,19.4
					c9.5,3.9,23.3,6.5,30.5,14c6.5,6.7,10.2,13.3,10.9,22.7c0.4,5.9,0.8,11.8,1.3,17.7c0.4,5.8,0.8,11.7,2.2,17.4
					c2.1,9.1,6.9,18,5.8,27.5c-1.1,9.8-2.2,19.6-2.8,29.4c-1.3,19.7-0.5,39.6,4.4,58.8c0.8,3.3,1.6,7.2-0.7,9.7
					c-5.2-0.6-8.5-5.8-11-10.5c-3.8-7-7.5-14.1-11.3-21.1c-3.3-6.1-6.6-12.4-7.5-19.2c-1.2-8.7,1.4-17.4,2.6-26
					c1.5-10.7,0.9-21.7-2.4-32c-8.7-27.1-27.9-45.1-55.3-51.7c-17.8-4.3-39.6-3.5-53.6-16.9C48.3,344,55.2,314.6,60,293
					c1.2-5.3,3.9-8.7,7.8-12.5c3.9-3.7,8.5-6.6,13-9.6c8.4-5.7,16.3-12.1,23.7-19.1c6.6-6.3,11.3-13.8,21.7-11.1
					C127.6,241.1,128.9,241.6,130.1,242.3z"/>
				<path class="st2" d="M171,259.6c-5-10-9.1-20.4-12.8-30.9c-1.9-5.3-3.7-10.5-5.3-15.9c-0.7-2.1-1-4.3-1.8-6.3
					c-0.9-2.3-2-4.6-1.6-7.2c0.5-3.6,3.9-6,7-7.8c2.6-1.5,5.8-2.9,8.6-1.8c1.8,0.7,2.9-1.5,4,0.2c3.1,4.9,10.1,31.1,12.4,36.7
					c2.7,6.7,5.6,13.4,8.6,20c2.6,5.7,4.2,11.5,6.8,17.1c5.2,11.3,11.3,22.2,18.2,32.6c2.6,4,5.4,7.9,8.3,11.8
					c1.3,1.7,7.7,7.2,9.4,8.7c4.6,4.1,7.8,9.5,10.2,15.2c0.7,1.8,0.9,18.9,1.4,22.9c0,0.3,0,0.7-0.2,0.8c-0.1,0.1-0.3,0-0.5,0
					c-3.6-1.3-6.4-5-8.6-8c-1.7-2.2-3.2-4.6-4.5-7c-0.8-1.4-1.5-2.7-2.5-4c-0.1,2,0.3,3.8,0.8,5.7c0.5,1.7,1.3,3.3,1.5,5.1
					c0.1,0.7,0.1,1.4-0.4,2c-1.7-0.5-3.6-2.7-4.6-4.2c-1.8-2.7-7-14.8-7.6-18.2c-0.3-2-0.4-4-0.9-5.9c-0.5-2-1.7-3.1-3.1-4.6
					c-2.9-3.4-6.1-6.6-8.9-10.1C193.5,291.9,179.3,276.2,171,259.6z"/>
				<path class="st2" d="M131.1,184.3c1.2-2,1.4-4.5,1.4-6.9c0-5.6-2.4-8.9-4.9-13.6c0.8,1.5,17.9,0,33.2,14
					c4.3,4,7.9,8.8,10.4,14.1c0,0.1-17.9,14.7-19.3,15.8c-0.3,0.2-0.6,0.5-0.7,0.8c-0.1,0.4,0,0.8,0.1,1.3
					c2.1,6.2,2.4,10.2,2.2,16.6c-0.2,6.4-1.2,12.8-3,19c-1.7,6.1-4.2,12-5.3,18.3c-1.5,8.8-0.2,18,3.7,26
					c-2.9-5.9-43.6,7.4-48.3,8.9c-8,2.6-15.9,5.7-23.6,9c-6.8,3-16.4,6.6-22.2,11.3c2.9-21.5-0.1-101.2,1.1-122.4
					c0.2-4.4,0.8-8.8,2.8-12.7c5.5-10.8,17.8-12.8,28.4-15.2c0.1,0,0.3-0.1,0.5,0c0.2,0.1,0.3,0.3,0.4,0.5
					c3.3,8.2,10.4,13.3,18.3,16.6c5.7,2.4,12,3.5,18.1,2.5c2.1-0.4,4.3-1.1,5.8-2.6C130.6,185.1,130.8,184.7,131.1,184.3z"/>
				<path class="st5" d="M145.5,148.8c-6.4,0.3-13-0.8-18.9-3.3"/>
				<path class="st6" d="M156.6,226.6c-0.5,0.5-0.8,1.1-0.5,1.8c2.4,6.6,5.2,13.1,8.1,19.5c1.4,3.2,2.9,6.4,4.4,9.6
					c0.9,1.9,1.8,6.1,4.1,6.8c0.3,0.1,0.6,0,0.9,0c4.4-0.9,8.8-1.7,13.1-3.2c3.5-1.2,6.7-2.7,9.5-5c0.2-0.2,0.4-0.3,0.5-0.6
					c0.1-0.3,0-0.7-0.2-1c-5-10.9-10-21.9-15-32.8c-0.8-1.8-1.6-3.5-2.4-5.3c-4,0.7-8,3.3-11.5,5c-2.3,1.1-4.5,2.2-6.8,3.3
					C159.7,225.1,157.6,225.7,156.6,226.6z"/>
				<circle class="st3" cx="178.5" cy="235.7" r="10.1"/>
				<path class="st2" d="M80.2,205.6c0.7,4.4,1.3,25.6,5.9,36.1c15.6,36.1,36.4,56.7,45.9,66.4c12,12.2,28.2,20.2,40.7,31.9
					c1.1,1.1,15.4,16.3,12.9,17c-4.5,1.3-9.3-0.9-13.1-3.7c-3.1-2.3-5.7-4.4-9.2-6.1c1.1,2.9,4.2,4.8,4.9,7.9
					c-3.2-0.2-6-2.2-8.6-4.2c-4.5-3.7-6.9-10-12.3-12.1c-11.5-4.3-41.2-28.5-49.5-36.6c-13.4-12.9-18.6-19.9-29.3-35.2
					c-10.5-14.9-18.2-37.5-20.1-56c-0.9-8.5,0.6-17.5,5.4-24.7c5.1-7.6,13.6-10.4,21.4-14.6c3.5-1.9,9.5-0.7,13.5-0.9"/>
				<path class="st2" d="M192.3,213.8c3.2-1,8.3,10.4,9.5,15.1c-3.2,1.1-3.8,1.5-5,2.4c-2.3,1.6-3.6,5-5.9,6.6
					c-0.5,0.4-4.8,3.3-5.4,3.6c-1.6,0.6-3.3-0.2-5-0.3c-2.3-0.3-2.4-2.4-0.2-3c1.6-0.4,3.7-0.3,4.8-1.7c1-1.3,2.1-2.4,2.4-4.1
					c0.1-0.4,0-0.9-0.3-1.1c-0.2-0.1-0.4-0.1-0.6-0.1c-3.1,0.1-6,1.9-8.6,3.4c-2.9,1.6-5.5,3.6-8.5,5.1c-0.2,0.1-0.5,0.2-0.7,0.2
					c-0.8-0.2-1.2-3.2-1.3-3.8c-0.3-1.1-0.6-2.2-0.2-3.3c0.1-0.1,0.1-0.3,0.1-0.4c0-0.2-0.1-0.3-0.2-0.5c-0.4-0.6-0.5-1.5-0.1-2.2
					c0.2-0.3,0.4-0.6,0.6-0.9c0.4-0.9-0.2-1.7,0.4-2.7c0.9-1.4,2.2-2.4,3.6-3.2C173,222,190,214.5,192.3,213.8z"/>
				<path class="st7" d="M294.1,252.8c-5.7,3.8-13,4.2-19.9,4c-6.6-0.2-14.8-1.6-21.1,1.2c-4.9,2.2-7.9,7.3-9,12.3
					c-2.4,10.1,0,22.2,5,31.2c7.3,12.9,18.3,31.4,9.9,46.3c-5.9,10.4-20,16.1-31,19.3c-12.9,3.9-26.5,5-39.9,4.4
					c-11.1-0.5-22.3-2-32.8-6c-6.9-2.7-13.5-6.4-19.3-11c-3.4-2.6-6.6-5.6-8.8-9.3c-5.4-8.9-4.1-20.8,1.2-29.7
					c5.3-8.9,14.2-15.3,23.5-20c5-2.5,10.3-4.6,14.7-8.1c7.9-6.2,11.3-14.4,7.4-24.2"/>
				<path class="st2" d="M306.9,87.2c0.2-1,0.4-2.1-0.1-2.9c-0.5-0.7-1.6-0.9-2.5-1c-7.5-0.6-14.8,3.1-21.1,7.3
					c-1.8,1.2-3.5,2.5-4.6,4.3c-1.1,1.7-1.4,3.8-1.7,5.8c-1.3,9-2.2,18.1-2.8,27.2c-0.4,5.7-0.6,11.5,0.1,17.2
					c1.7,14.2,8.5,27.1,11,40.9c1.2-5.5,2.8-11.2,3.4-16.8c0.6-5.3,1.8-10.7,3.3-15.8c3-10.4,7.6-20.3,13.7-29.3
					c2.5-3.7,5.3-7.4,5.7-11.8c0.5-4.7-2.2-7-4.1-10.7C304.9,97.5,305.9,91.7,306.9,87.2z"/>
				<path class="st8" d="M275.9,121.1c0.4,0.3,0.9,0.6,1.3,0.8c4.8,2.6,11.5,1,16.3-0.9c5.1-2,9.7-5.3,13.2-9.6
					c0.9-1.1,3.1,0.5,3.3,1.9c0.2,1.4-0.7,2.7-1.5,3.9c-6.9,10.9-7.6,24.6-12.5,36.6c-2,4.8-4.6,9.3-6.5,14.2
					c-2.5,6.6-3.6,13.7-4.6,20.7c-0.8-3.1-1.9-6.2-3.1-9.2c-4.4-10.6-11.6-20.5-12.5-32c0-5.2,0.4-10.1,1-15.3
					c0.3-2.4,0.1-4.8,0.3-7.2c0.2-2.1,1.5-4.4,2.3-6.4C273.8,119.5,274.8,120.3,275.9,121.1z"/>
				<path class="st2" d="M267,132c0.8-0.7,1.6-1.6,1.6-2.7c0-0.5-0.2-1-0.4-1.5c-1.2-2.7-2.2-5.5-2.3-8.5c-0.1-3,1.4-4.8,3.6-6.8
					c1.5-1.3,3.2-2.6,4.8-3.8c0.4-0.3,1.1-0.7,1.8-1.1c-0.8,6.7-1.5,13.5-1.9,20.3c-0.4,5.7-0.6,11.5,0.1,17.2
					c1.7,14.2,7.7,22.8,10.2,36.6c0.1-0.4,1.2,11.9,0.9,15.8c0.4-8.2-3.9-16.2-8-22.8c-4.3-7-9.1-13.9-12.5-21.5
					c-1.3-2.9-2.3-6-2.6-9.2C262,139.6,263.7,135.1,267,132z"/>
				<path class="st2" d="M272.4,106.5c10.7,1,21.6-5.2,29.1-12.2c5.2-4.8,9.2-10.5,11.1-17.3c1-3.5,2.6-6.8,3.3-10.5
					c0.7-3.7,0.8-7.5,0.3-11.3c-0.2-1.9-0.6-3.7-1.5-5.4c-1.4-2.5-3.8-4.3-6.4-5.6c-6.5-3.3-13.9-4.3-21.2-4
					c-6.9,0.2-14.7,2.2-17.9,8.3c-0.7,1.4-1.2,3-1.5,4.5c-2,8.2-3.3,16.6-3.7,25c-0.3,5.1-0.3,10.1-0.1,15.2
					c0.1,3.3,0.6,8.1,2.8,10.7C268.1,105.4,270.3,106.3,272.4,106.5z"/>
				<path class="st3" d="M311.4,81.4c-0.7,1.3-1.5,2.6-2.3,3.8c0.6-1-3.6-4-4.3-4.3c-1.8-0.7-4.1,0.5-5.9,1c-0.6,0.2-1.4,0.3-2,0.7
					c-0.3,0.2-1.7,1.3-1.7,1.6c0.2-4.5,0-9.8-3.5-12.4c1.1-1.9,2.3-3.8,2.6-6c0.4-2.2-0.2-4.7-2-5.9c-1.6-1.1-3.6-1-5.5-0.9
					c-2.7,0.2-5.3,0.3-8,0.5c-8.2,0.5-17.1-2.3-13.1-12.8c2.3-6.2,10.3-6.8,15.8-7.1c3.7-0.2,7.3-0.6,11-0.4c3.8,0.1,7.7,0.6,11.2,2
					c2.9,1.1,6.2,2.8,8.5,4.9c2.2,2,3.8,4.7,4.8,7.5C320.3,63.2,316.2,73,311.4,81.4z"/>
				<path class="st7" d="M301.7,86.9c2.8,3.4,2.9,7.7,1.2,12.3c-2.9,7.8-17.8,16.6-24.4,17.6c-6.5,1-13.4,1.5-16.6-5.9
					c-2.9-6.8-2.9-17.6,2-25.4"/>
				<path class="st5" d="M304.2,78.7c-6.3,1.7-14.8,4.5-20.8,6.8"/>
				<path class="st5" d="M264.5,71.5c-1,0.7-2,1.4-3.1,1.9"/>
				<path class="st5" d="M297.2,90.7c-0.3,1.2-0.1,2.6,0.8,3.6c0.8,0.9,2.3,1.3,3.4,0.8c0.9-0.4,1.5-1.1,2-1.9c0.7-1,1.4-2,2.2-2.8
					c0.9-1,2.2-1.8,2.8-3c0.5-1,0.2-2.6-0.2-3.6c-1-2.5-4.2-3.7-6.6-2.8"/>
				<path class="st5" d="M305.6,83.4c-2.9,1.4-5,4.4-5.2,7.6"/>
				<ellipse transform="matrix(0.7627 -0.6468 0.6468 0.7627 11.0092 199.9856)" class="st5" cx="278" cy="85" rx="4.4" ry="5.9"/>
				
					<ellipse transform="matrix(0.9451 -0.3267 0.3267 0.9451 -10.9896 90.5737)" class="st5" cx="264.1" cy="78" rx="4.5" ry="5.1"/>
				<path class="st5" d="M273.3,81.6c0.1-0.9-0.2-1.8-0.6-2.7c-0.4-0.7-1-1.4-1.8-1.7s-1.8,0-2.2,0.7"/>
				<path class="st7" d="M178.8,240.9c16.2,7.1,33.5,16.8,44.2,15.5c6.1-0.8,28.2-4.9,39.3-31c4.5-10.7,4.1-23,2.6-34.4
					c-1.5-11.8-15.6-55.7-1-76.2"/>
				<path class="st2" d="M285.4,202.1c-0.2-2.1-0.2-15,0-17.1c1.1-9.3,6.6-20,18.2-33.9c3.4-4,7.5-7.7,6.1-13.1
					c-0.7-2.6-2.3-4.9-3.1-7.5c-0.3-0.8-0.4-1.7,0-2.4c0.3-0.5,0.9-0.7,1.5-0.9c2.6-0.8,5.3-0.7,8-1c4.6-0.5,7.8-2.3,6.7-7.2
					c-0.9-3.9-3.7-7.4-6.6-10c-2.8-2.5-5.7-5.9-9.8-6.3c1.2,0.1,0.5,8.2,0.3,9c-0.6,3.1-1.9,5.9-3.5,8.5c-4,6.6-7.5,13.4-10.3,20.6
					C286.3,158.1,284,183.7,285.4,202.1z"/>
				<path class="st2" d="M126.3,159.4c-3.6,6.6-4.6,13.5-3.6,17.4"/>
				<path class="st3" d="M144.3,95.2c-1-4.4-1.7-9.3-5.2-12.6c-5.2-5-13.1-5.6-20.3-5.3c-9.8,0.3-20.2,4-24.5,13.6
					c-1.3,3-2,6.3-3.9,8.9c-4.3,6-13.9,7.1-16.6,14c-3.5,8.7,5.8,19.3,1.3,27.5c-2.4,4.3-8.8,4.1-12.9,7c-3.6,2.5-4.9,7.3-4.5,11.7
					c0.4,3.7,2,6.6,3.2,10c0.8,2.4,0.9,4.9,1.9,7.2c8.7-0.9,16.6-3.3,25.5-2.4c3.4,0.3,6.9,0.9,10.2-0.1c10-3.2,4.6-21.1,6.1-28.8
					c0.5-2.9,1.7-5.7,3.3-8.2c1.1-1.7,3.1-3.4,4-5.2c0.6-1.3,0.3-2.6,1.6-3.7c1.7-1.4,4.4-0.9,6.4-0.9c2.9,0,5.7,0.6,8.4,1.7
					c-1.6-6.5,0.6-13.7,5.4-18.3c0.8-0.7,1.7-1.5,2-2.5c0.2-0.6,0.1-1.2,0.1-1.8c-0.2-3.8,0.5-9.2,4.2-11.2c1.7-0.9,2.7-0.2,4.4-0.3
					C144.3,95.4,144.3,95.3,144.3,95.2z"/>
				<path class="st2" d="M312.6,245.6c2.3,4.8,4.5,10.6,5.8,16.4l7.2-1.8c0,0-1.5-10.1-6.8-16.5
					C318.8,243.7,313.6,245.4,312.6,245.6z"/>
				<path class="st2" d="M320.8,263.4l4.5-1.5c2-0.7,3.1-2.8,2.5-4.8l-2.3-7c-0.7-2-2.8-3.1-4.8-2.5l-4.5,1.5
					c-2,0.7-3.1,2.8-2.5,4.8l2.3,7C316.6,263,318.8,264.1,320.8,263.4z"/>
			</g>
		</g>
		<circle class="st9" cx="321" cy="254.9" r="18.1"/>
		<circle class="st10" cx="321" cy="254.9" r="12.2"/>
		<circle class="st11" cx="321" cy="254.9" r="2.6"/>
		<circle class="st10" cx="321" cy="254.9" r="6.2"/>
		<g>
			<g>
				<path class="st6" d="M178.4,157c-1.1-20.3,14.4-37.7,34.8-38.9c7.2-0.4,14.1,1.3,20,4.6l20.7-12l-9.5,21.6
					c4.5,5.7,7.3,12.8,7.7,20.6c1.1,20.3-14.4,37.7-34.8,38.9C197,192.9,179.6,177.3,178.4,157z"/>
				<path class="st12" d="M230.3,161.7h0.5c1.3,0,2.3-1,2.3-2.3v-11.5c0-1.3-1-2.3-2.3-2.3h-0.5c-1.3,0-2.3,1-2.3,2.3v11.5
					C228,160.7,229,161.7,230.3,161.7z"/>
				<path class="st12" d="M239.1,156.6h0.5c1.3,0,2.3-1,2.3-2.3v-0.5c0-1.3-1-2.3-2.3-2.3h-0.5c-1.3,0-2.3,1-2.3,2.3v0.5
					C236.8,155.6,237.8,156.6,239.1,156.6z"/>
				<path class="st12" d="M221.7,167.6h0.5c1.3,0,2.3-1,2.3-2.3v-23.2c0-1.3-1-2.3-2.3-2.3h-0.5c-1.3,0-2.3,1-2.3,2.3v23.2
					C219.4,166.6,220.4,167.6,221.7,167.6z"/>
				<path class="st12" d="M213.1,179.3h0.5c1.3,0,2.3-1,2.3-2.3v-46.7c0-1.3-1-2.3-2.3-2.3h-0.5c-1.3,0-2.3,1-2.3,2.3V177
					C210.7,178.3,211.8,179.3,213.1,179.3z"/>
				<path class="st12" d="M204.4,167.6h0.5c1.3,0,2.3-1,2.3-2.3v-23.2c0-1.3-1-2.3-2.3-2.3h-0.5c-1.3,0-2.3,1-2.3,2.3v23.2
					C202.1,166.6,203.2,167.6,204.4,167.6z"/>
				<path class="st12" d="M195.8,161.7h0.5c1.3,0,2.3-1,2.3-2.3v-11.5c0-1.3-1-2.3-2.3-2.3h-0.5c-1.3,0-2.3,1-2.3,2.3v11.5
					C193.5,160.7,194.5,161.7,195.8,161.7z"/>
			</g>
		</g>
		<path class="st13" d="M45.4,90.2c-26.3,34-41.9,76.6-41.9,122.9c0,111.1,90.1,201.2,201.2,201.2s201.2-90.1,201.2-201.2"/>
	</g>
	<g>
		<circle class="st14" cx="346.4" cy="359.7" r="27.9"/>
		<circle class="st12" cx="346.4" cy="359.7" r="27.9"/>
		<path class="st15" d="M346.4,359.7l-16,15.3c-3.9-4.1-6.1-9.6-6.1-15.3c0-12.1,10-22.1,22.1-22.1c0.1,0,0.2,0,0.3,0L346.4,359.7z"
			/>
		<g>
			<path class="st8" d="M346.4,368.1c-0.8,0-1.6-0.7-1.6-1.6v-34.7c0-0.8,0.7-1.6,1.6-1.6s1.6,0.7,1.6,1.6v34.7
				C348,367.4,347.3,368.1,346.4,368.1z"/>
		</g>
		<g>
			<path class="st4" d="M367.5,362.2h-25.2c-1.3,0-2.5-1.1-2.5-2.5c0-1.3,1.1-2.5,2.5-2.5h25.2c1.3,0,2.5,1.1,2.5,2.5
				C369.9,361,368.8,362.2,367.5,362.2z"/>
		</g>
	</g>
</g>
</svg>
