<?xml version="1.0" encoding="utf-8"?>
<!-- Generator: Adobe Illustrator 24.1.2, SVG Export Plug-In . SVG Version: 6.00 Build 0)  -->
<svg version="1.1" xmlns="http://www.w3.org/2000/svg" xmlns:xlink="http://www.w3.org/1999/xlink" x="0px" y="0px"
	 viewBox="0 0 248.9 248.9" style="enable-background:new 0 0 248.9 248.9;" xml:space="preserve">
<style type="text/css">
	.st0{opacity:0.1;fill:#04A0F4;enable-background:new    ;}
	.st1{fill:#FFFFFF;}
	.st2{display:none;}
	.st3{display:inline;}
	.st4{fill:#00A1F4;}
</style>
<g id="Layer_1">
	<g>
		<circle class="st0" cx="124.4" cy="124.4" r="124.4"/>
		<circle class="st0" cx="124.4" cy="124.4" r="90.2"/>
		<g>
			<circle class="st1" cx="124.4" cy="124.4" r="55.9"/>
		</g>
	</g>
</g>
<g id="Layer_3" class="st2">
	<g class="st3">
		<g>
			<path class="st4" d="M143.5,99c-2.9-2.9-7.4-2.9-10.3,0l-2.5,2.6l-27.5,27.5l0,0l0,0l-0.1,0.1l0,0c0,0,0,0.1-0.1,0.1l0,0v0.1l0,0
				l-6.1,18.4c-0.1,0.5,0,1.1,0.4,1.4c0.2,0.2,0.6,0.5,1.1,0.5c0.1,0,0.4,0,0.5-0.1l18.4-6.1l0,0h0.1l0,0c0,0,0.1,0,0.1-0.1l0.1-0.1
				l0,0l0,0l30-30c2.9-2.9,2.9-7.4,0-10.3L143.5,99z M116.4,140.3l-10.2-10.2l25.4-25.4l10.2,10.2L116.4,140.3z M104.8,132.9
				l8.9,8.9l-13.3,4.4L104.8,132.9z M145.4,111.3l-1.6,1.6l-10.2-10.2l1.6-1.6c1.7-1.7,4.4-1.7,6.1,0l4,4
				C147.1,106.8,147.1,109.6,145.4,111.3z"/>
		</g>
	</g>
</g>
<g id="Layer_2">
	<g>
		<path class="st4" d="M137.2,136.8c0-2.4-1-4.5-3-6c-2-1.6-5.3-3.1-10.1-4.5c-5.2-1.4-9.1-3.1-11.8-5.2c-2.7-2.1-4.1-4.9-4.1-8.5
			c0-3.6,1.5-6.6,4.5-9c3-2.3,6.9-3.5,11.6-3.5c4.9,0,8.9,1.3,11.9,4c3,2.6,4.5,6,4.4,10.1l-0.1,0.2h-3.7c0-3.1-1.2-5.7-3.5-7.8
			c-2.3-2.1-5.3-3.1-9-3.1c-3.8,0-6.7,0.9-8.9,2.6c-2.1,1.8-3.2,3.9-3.2,6.5c0,2.4,1,4.4,2.9,6c1.9,1.6,5.4,3,10.3,4.4
			c5.1,1.5,9,3.3,11.7,5.4c2.7,2.1,4,5,4,8.5c0,3.7-1.6,6.7-4.7,8.9c-3.1,2.3-7.1,3.4-11.9,3.4c-4.8,0-9-1.2-12.5-3.6
			c-3.6-2.4-5.3-5.9-5.2-10.4l0.1-0.2h3.7c0,3.7,1.4,6.4,4.2,8.2c2.8,1.8,6.1,2.7,9.7,2.7c3.7,0,6.7-0.8,9.1-2.5
			C136.1,141.6,137.2,139.5,137.2,136.8z"/>
	</g>
	<g>
		<polygon class="st4" points="122.2,148.2 122.2,154 125.9,154 125.9,147.8 		"/>
		<polygon class="st4" points="125.9,95 122.2,95 122.2,101.8 125.9,101.9 		"/>
	</g>
</g>
<g id="Layer_4" class="st2">
	<g class="st3">
		<g>
			<path class="st4" d="M122.7,96.9c-7.6,0.7-13.4,7.1-13.4,14.8v6.7c-2.9,0-5.1,2.2-5.1,5v21.8c0,2.8,2.2,5,5,5h30c2.8,0,5-2.2,5-5
				v-21.8c0-2.8-2.2-5-5.1-5V112C139.1,103.1,131.5,96,122.7,96.9z M141,123.4v21.9c0,0.9-0.7,1.7-1.7,1.7h-30.2
				c-0.9,0-1.7-0.7-1.7-1.7v-21.9c0-0.9,0.7-1.7,1.7-1.7h1.7h26.8h1.7C140.2,121.8,141,122.5,141,123.4z M112.5,118.5V112
				c0-6.8,5.7-12.4,12.5-11.9c6.1,0.4,10.8,5.4,10.8,11.7v6.7H112.5z"/>
		</g>
	</g>
	<g class="st3">
		<path class="st4" d="M124.2,127.7c-3.9,0-7.1,3.2-7.1,7.1c0,3.9,3.2,7.1,7.1,7.1s7.1-3.2,7.1-7.1
			C131.3,130.9,128.1,127.7,124.2,127.7z M124.2,139.2c-2.4,0-4.4-2-4.4-4.4s2-4.4,4.4-4.4s4.4,2,4.4,4.4S126.6,139.2,124.2,139.2z"
			/>
	</g>
</g>
</svg>
