<?xml version="1.0" encoding="utf-8"?>
<!-- Generator: Adobe Illustrator 24.1.2, SVG Export Plug-In . SVG Version: 6.00 Build 0)  -->
<svg version="1.1" xmlns="http://www.w3.org/2000/svg" xmlns:xlink="http://www.w3.org/1999/xlink" x="0px" y="0px"
	 viewBox="0 0 248.9 248.9" style="enable-background:new 0 0 248.9 248.9;" xml:space="preserve">
<style type="text/css">
	.st0{opacity:0.1;fill:#04A0F4;enable-background:new    ;}
	.st1{fill:#FFFFFF;}
	.st2{fill:#00A1F4;}
	.st3{display:none;}
	.st4{display:inline;}
</style>
<g id="Layer_1">
	<g>
		<circle class="st0" cx="124.4" cy="124.4" r="124.4"/>
		<circle class="st0" cx="124.4" cy="124.4" r="90.2"/>
		<g>
			<circle class="st1" cx="124.4" cy="124.4" r="55.9"/>
		</g>
	</g>
</g>
<g id="Layer_3">
	<g>
		<g>
			<path class="st2" d="M143.5,99c-2.9-2.9-7.4-2.9-10.3,0l-2.5,2.6l-27.5,27.5l0,0l0,0l-0.1,0.1l0,0c0,0,0,0.1-0.1,0.1l0,0v0.1l0,0
				l-6.1,18.4c-0.1,0.5,0,1.1,0.4,1.4c0.2,0.2,0.6,0.5,1.1,0.5c0.1,0,0.4,0,0.5-0.1l18.4-6.1l0,0h0.1l0,0c0,0,0.1,0,0.1-0.1l0.1-0.1
				l0,0l0,0l30-30c2.9-2.9,2.9-7.4,0-10.3L143.5,99z M116.4,140.3l-10.2-10.2l25.4-25.4l10.2,10.2L116.4,140.3z M104.8,132.9
				l8.9,8.9l-13.3,4.4L104.8,132.9z M145.4,111.3l-1.6,1.6l-10.2-10.2l1.6-1.6c1.7-1.7,4.4-1.7,6.1,0l4,4
				C147.1,106.8,147.1,109.6,145.4,111.3z"/>
		</g>
	</g>
</g>
<g id="Layer_2" class="st3">
	<g class="st4">
		<path class="st2" d="M136.6,136.9c0-2.6-1-4.7-3.1-6.4c-2-1.7-5.5-3.3-10.4-4.7c-5.4-1.5-9.4-3.3-12.2-5.5
			c-2.8-2.2-4.2-5.2-4.2-8.9c0-3.8,1.6-7,4.7-9.5c3.1-2.5,7.1-3.7,12-3.7c5.1,0,9.2,1.4,12.3,4.2c3.1,2.8,4.6,6.3,4.5,10.6l-0.1,0.2
			h-3.9c0-3.3-1.2-6.1-3.6-8.2c-2.4-2.2-5.5-3.3-9.3-3.3c-3.9,0-7,0.9-9.2,2.8c-2.2,1.9-3.3,4.1-3.3,6.8c0,2.6,1,4.6,3,6.3
			c2,1.6,5.6,3.2,10.6,4.6c5.3,1.5,9.3,3.4,12.1,5.7c2.8,2.3,4.2,5.2,4.2,9c0,3.9-1.6,7-4.9,9.4c-3.3,2.4-7.3,3.6-12.3,3.6
			c-4.9,0-9.3-1.3-12.9-3.8c-3.7-2.5-5.5-6.2-5.3-11l0.1-0.2h3.8c0,3.9,1.5,6.8,4.4,8.7c2.9,1.9,6.3,2.8,10,2.8c3.8,0,7-0.9,9.4-2.6
			C135.4,141.9,136.6,139.7,136.6,136.9z"/>
	</g>
	<g class="st4">
		<polygon class="st2" points="121.2,148.9 121.2,153.5 125,153.5 125,148.5 		"/>
		<polygon class="st2" points="125,93.9 121.2,93.9 121.2,99.9 125,100 		"/>
	</g>
</g>
</svg>
