<?xml version="1.0" encoding="utf-8"?>
<!-- Generator: Adobe Illustrator 24.1.2, SVG Export Plug-In . SVG Version: 6.00 Build 0)  -->
<svg version="1.1" id="Layer_1" xmlns="http://www.w3.org/2000/svg" xmlns:xlink="http://www.w3.org/1999/xlink" x="0px" y="0px"
	 viewBox="0 0 1920 720.7" style="enable-background:new 0 0 1920 720.7;" xml:space="preserve">
<style type="text/css">
	.st0{opacity:0.36;fill:none;stroke:#9E9E9E;stroke-miterlimit:10;enable-background:new    ;}
	.st1{fill:#F4F5F0;}
	.st2{fill:#FFFFFF;}
	.st3{fill:#EBF7FE;}
	.st4{fill:#3CCC79;}
	.st5{fill:none;stroke:#484949;stroke-miterlimit:10;}
	.st6{fill:#FFFFFF;stroke:#484949;stroke-miterlimit:10;}
	.st7{clip-path:url(#SVGID_2_);}
	.st8{fill:#484949;}
	.st9{fill:#FF695B;}
	.st10{fill:#C9C9C7;}
	.st11{fill:none;stroke:#484949;stroke-width:2;stroke-miterlimit:10;}
	.st12{fill:none;stroke:#484949;stroke-width:1;stroke-miterlimit:9.9994;}
	.st13{fill:none;stroke:#484949;stroke-width:1;stroke-miterlimit:9.9996;}
	.st14{opacity:0.1;fill:#04A0F4;enable-background:new    ;}
	.st15{fill:none;stroke:#9E9E9E;stroke-miterlimit:10;}
	.st16{opacity:0.2;fill:#04A0F4;enable-background:new    ;}
	.st17{fill:#04A0F4;}
	.st18{fill:#FFFFFF;stroke:#9E9E9E;stroke-miterlimit:10;}
	.st19{fill:#FFBE4F;}
	.st20{opacity:0.1;fill:#FFFFFF;enable-background:new    ;}
	.st21{fill:none;stroke:#9E9E9E;stroke-width:4;stroke-linecap:round;stroke-miterlimit:10;}
	.st22{fill:#FFFFFF;stroke:#9E9E9E;stroke-width:2;stroke-miterlimit:10;}
</style>
<g id="Layer_1_1_">
	<path class="st0" d="M-243.9,528.5C-31,423.9,204.8,342,440,373.2c204.1,27,386.9,135.9,582.1,201.1
		c328.9,109.7,698.9,90.4,1014.6-53"/>
	<g>
		<path class="st1" d="M1044.1,245.9c-19.7,200.6-189.9,357.3-396.8,357.3S270.1,446.5,250.4,245.9h216.3"/>
		<g>
			<path class="st2" d="M873.9,288.3c24.7,0,44.8,20,44.8,44.6v60.2c0,8.6,7.1,15.7,15.8,15.7s15.8-7,15.8-15.7v-60.2
				c0-24.6,20.1-44.6,44.8-44.6s44.8,20,44.8,44.6v60.2c0,8.6,7.1,15.7,15.8,15.7s15.8-7,15.8-15.7V363h29.1v30.1
				c0,24.6-20.1,44.6-44.8,44.6s-44.8-20-44.8-44.6v-60.2c0-8.6-7.1-15.7-15.8-15.7s-15.8,7-15.8,15.7v60.2
				c0,24.6-20.1,44.6-44.8,44.6s-44.8-20-44.8-44.6v-60.2c0-8.6-7.1-15.7-15.8-15.7s-15.8,7-15.8,15.7V363h-29.1v-30.1
				C829.1,308.3,849.2,288.3,873.9,288.3z"/>
		</g>
		<path class="st3" d="M1071.4,363v30.1c0,8.6-7.1,15.7-15.8,15.7c-8.7,0-15.8-7-15.8-15.7v-60.2c0-9.5-3-18.4-8.2-25.7
			c-5.4,20.5-12.4,40.4-20.9,59.5V393c0,24.6,20.1,44.6,44.8,44.6s44.8-20,44.8-44.6v-30.1h-28.9V363z"/>
		<path class="st4" d="M892.4,212.3"/>
		<path class="st5" d="M1042.7,245.9C1023,446.5,852.8,603.2,645.8,603.2S268.7,446.5,249,245.9h184.3"/>
		<path class="st6" d="M829.1,363c16.8-0.7,47.3-4.8,47.3-4.8"/>
		<g>
			<path class="st4" d="M1526.1,482.3c6.3,23.9,27.5,41.5,52.8,41.5s46.5-17.6,52.8-41.5H1526.1z"/>
			<path class="st6" d="M1526.1,482.3c-6.3-23.9-27.5-41.5-52.8-41.5s-46.5,17.6-52.8,41.5H1526.1z"/>
		</g>
		<g>
			<g>
				<g>
					<defs>
						<path id="SVGID_1_" d="M249,245.9V35.7h793.7v210.2C1023,446.5,852.8,603.2,645.8,603.2S268.7,446.5,249,245.9"/>
					</defs>
					<clipPath id="SVGID_2_">
						<use xlink:href="#SVGID_1_"  style="overflow:visible;"/>
					</clipPath>
					<g class="st7">
						<path class="st6" d="M616.4,264c-2.8-11.6-9.6-22.1-17.8-30.8c-2.9-3.1-6.2-6-10.2-7.4s-8.9-0.9-11.9,2
							c-3.4,3.3-3.5,8.7-3.4,13.4c0.4,18.6,1.1,37.4,4.8,55.6c1.9,9.1,4.5,18.2,8.4,26.7c3.2,7.1,5.5,13.9,8.4,21
							c9.6,23.5,64.3,52.3,68.5,53.1c0-5.8,11.1-46.3,20-42.9c-10.5-4-31-16.7-38.7-25C639.7,324.5,627.6,309.8,616.4,264z"/>
						<path class="st8" d="M453.4,636.3c0.4,0.5,1,0.9,1.8,1.3c18.3,7.7,40.3,9.5,60.1,9.4c32.1-0.3,64.4-8.7,96-3.2
							c8.6,1.5,16.9,4,25.5,5.1c1.8,0.2,3.7,0.4,5.4-0.2c3-1,4.9-4.1,5.4-7.2c0.5-3.1-0.2-6.3-0.9-9.4c-1.9-8.7-12-10.4-20.5-13.5
							s-17.4-5.6-24.4-11.2c-4.6-3.7-8.1-8.5-11.1-13.6c-4.2-7-7.7-14.4-10.3-22.2c-3.2-9.4-6.1-20.5-15.3-24.6
							c-6.1-2.7-13.2-1.3-19.6,0.6c-21.2,6.1-41.1,16.5-58.2,30.4c-7.8,6.3-15.1,13.5-19.6,22.3c-3.7,7.2-5.1,15.3-8,22.8
							C458.5,626.7,450.6,632.9,453.4,636.3z"/>
						<path class="st6" d="M456.9,385.8c-2.1,73.6-0.3,147.3-0.6,220.9c0,8.2-0.1,16.4-0.1,24.5c8.3-5,16.7-9.9,25.4-14.3
							c7.8-3.9,17.6-5.9,26.3-8c13.5-3.1,30.5-4,43.2-9.2c4.9-28,9-56.2,12.2-84.5c2.9-26.1,7.9-53.7,7.7-79.7
							c-0.4-42.7-2.1-85.3-4.4-127.9c-0.6-10.5-1.1-21-2.7-31.4c-1.1-7.1-2.6-14.1-5-20.8c-2.1-6.2-5-12.1-8.4-17.7
							c-2.6-4.2-5.6-8.3-9.5-11.5c-7.3-5.9-17.5-7.9-26.5-5.4c-4.7,1.3-8.9,3.8-13,6.5c-7.1,4.7-13.6,10.2-20.1,15.7
							c-4.6,3.9-9.2,7.8-13.2,12.3c-3.6,4.1-6.6,8.6-9.5,13.2c-1.5,2.2-2.9,4.5-4.4,6.7c-0.4,0.6-0.7,1.2-0.7,1.8
							c0,0.7,0.7,1.3,1.4,1"/>
						<path class="st8" d="M538.8,405.4c-0.7-0.3-1.5-0.6-2.2-0.9c-0.6-0.3-0.8-0.7-1.5-0.7c-1.1,0-2.3,0.1-3.4,0.2
							c-0.4,0-0.8,0.2-1.2,0.2c-0.6,0-1.2-0.1-1.7-0.1c-1,0-2.1,0.3-2.5,1.1c-0.5,0.9-0.2,2,0.4,2.9c1.1,2,2.9,3.5,4.8,4.8
							c1.3,0.9,2.7,1.8,4.1,2.7c2.1,1.3,4.2,2.6,6.3,3.9c0.5,0.3,1,0.6,1.6,0.8c0.7,0.2,1.4,0.1,2.1,0c2-0.2,3.9-0.5,5.9-1
							c0.4-0.1,0.9-0.2,1.2-0.4c1-0.6,1.2-2,1.4-3.2c0.1-0.8,0.2-1.6,0.3-2.4c0-0.4,0.1-0.8-0.1-1.2c-0.2-0.3-0.4-0.5-0.7-0.6
							C549,408.8,543.7,407.4,538.8,405.4z"/>
						<path class="st8" d="M481.9,447c2,1,18.3-16.4,21.4-25.5l-14.1-5c0,0-3.6,12.1-4.6,16.2C483.8,436.3,481.9,447,481.9,447z"/>
						<path class="st6" d="M637.4,563.6c4.1,22.9,8.6,45,8.1,68.2c-14.7-8.3-30.1-15.6-45.8-21.8c-7.7-3.1-15.8-5.9-24.1-5.4
							c-1.4-12-5.5-24.1-8.8-35.8c-4-14.3-8-28.5-11-43.1c-6.4-30.4-8.4-61.5-8.9-92.5c-0.7-41,2.6-72.7,2.6-113.6
							c0-5.8-2.4-21-1.5-26.7c1.3-7.3,4.1-14.3,5.9-21.5c1.3-5.3,2-10.7,2.8-16.2c2.4-18,0.9-36.5-1.3-54.5
							c14.9,3.3,39.1,18.5,47.5,31.2c14.2,21.6,22.3,52.9,22.3,83.4c0,7.7,0.4,15.4,0.6,23.1c0.5,16.3,1,32.6,1.6,48.9
							c1.2,31.9,2.5,63.8,4.1,95.7c1.2,22.7,2.3,45.5,4.4,68.2C636.3,555.4,636.7,559.5,637.4,563.6z"/>
						<path class="st6" d="M488.3,419c5.4,0.8,20.3,4.7,25.1,7.3c1.9,1,3.7,2.1,5.6,3.1c10.2,4.8,23,2.6,30.9-5.2
							c2-2,3.8-4.5,3.8-7.4c-7.7,0.4-14.6-4.5-20.6-9.3c4,1.2,7.6,3.3,11.5,4.8s8.3,2.3,12.2,0.7c1.1-0.4,2.2-1.4,1.9-2.5
							c-0.3-0.9-1.4-1.2-2.3-1.5c-6.6-1.9-11.5-8-18.2-9.5c-5.5-1.3-11.2,0.7-16.9,1.1c-7,0.5-19.7-2.9-26.2-6.5
							c-2.2-1.3-5.5-0.6-7.8,0.5c-2.2,1.1-3.8,3.1-5.1,5.3c-2,3.5-3.2,7.8-2.2,11.8C481.2,415.7,484.2,418.4,488.3,419z"/>
						<path class="st6" d="M542.3,199.7c-1.8-0.1-3.6-0.2-5.3-0.3c-31.5-1.5-73.7,18.6-91.6,34.7c-12.5,11.3-20.4,26.9-27.1,42.3
							c-13.3,30.7-15.4,69.9-6.4,103.5c10.4,38.4,68.3,66.8,70,67.1c0-5.8,11-53.5,19.9-50.1c-18.7-7.2-32.6-17.6-39.7-36.9
							c-8.7-23.6-2.9-52.4,7.1-74.5"/>
						<path class="st6" d="M809.2,261.3c0.5,1.5,1,2.9,1.6,4.4c3.9,10.5,11.6,19.6,21.4,25.1c8,4.4,17,6.5,25.2,10.6
							c10.1,5.1,13.7,11.8,14.6,23.1c0.4,5,0.1,10.1-1.8,14.7c-3,7.5-9.7,12.8-16.7,16.8c-26.3,15.4-58.7,17.5-88.8,12.8
							c-5.9-0.9-12-2.2-16.7-5.8c-8.2-6.4-9.7-18.1-9.5-28.5c0.2-9.6,1.2-19.4,5.2-28.1c2.8-6.1,5.3-6.8,10.8-9.3
							c6.5-2.9,12.7-7.4,18.4-11.6c1.6-1.2,3.4-2.7,3.7-4.7c0.3-1.8-0.6-3.6-1.5-5.2c-3-5.1-6.4-9.9-10.4-14.3
							c0.7,0.8-12,1.5-12.7,1.5c-5-0.3-10-0.8-14.5-3.3c-4.7-3.5-7-10.5-5.9-16.3c3.5-22.1,7.1-50.8,24.6-60.6
							c10.6-4.7,23.5-2.3,35.2-2.3c9.4,1.2,18.8,3.5,24.6,11.7c5.9,7,9.4,16.3,8.2,25.6c-1.2,8.2-4.7,14-11.7,19.8
							C805,244.9,806.2,252.6,809.2,261.3z"/>
						<path class="st6" d="M786.2,247.5c0.6,1.1,1.9,1.9,3.2,1.9c1,0,2-0.4,2.9-0.9c4-2.3,6.5-6.8,7.2-11.4c0.3-1.8,0.2-3.8-0.6-5.5
							s-2.6-3-4.4-2.9c-0.8,0-1.6,0.3-2.3,0.7c-2.3,1-4.6,2.1-6.8,3.3"/>
						<path class="st9" d="M770.6,394.9c-4.4,2.4-8.1,6.2-10.2,10.7c-3.4,7.1-3.2,15.3-4,23.1c-1.3,11.9-5.4,23.4-11.8,33.5
							c-6.8,10.7-14.8,13-26.7,16.3c-21.2,5.9-41.7,14.7-60.8,25.6c-8.8,5-17.2,12.2-26.3,16c-9.2,3.9-15.8,9.7-20,19
							c-4,8.7-5.2,18.4-6.1,27.9c-1.2,12.7-1.8,25.4-1.8,38.1c0,11.9,2,23.2,2.7,35.1c1.2,22.3,0.1,44.8-3.5,66.8
							c-2.2,13.3-4.4,27.1-7.5,40.2c-3.4,14.2-8,28.4-6.9,43.2c0.1,1,0.2,2.1,0.8,2.8c0.7,0.8,1.7,1.1,2.7,1.2
							c7,0.6,11.8-6.6,14.9-12.8c7.7-15.4,17.5-29.5,23.8-45.5c6.8-17.3,11.8-35.2,16.7-53c3.2-11.7,6.5-23.5,8.1-35.5
							c2.2-16.3,1.5-32.8,4-49c4.5-29.2,21.3-42.2,43.9-58.6c21.1-15.3,44.8-28,71-31.7c-7.3,13.5-21.7,21.7-35.9,27.5
							c-13.5,5.6-33.2,9.1-43.5,19.8c-9.2,9.6-14.6,18.9-15.5,32.1c-0.6,8.3-1.2,16.7-1.8,25c-0.6,8.2-1.2,16.5-3.1,24.6
							c-3,12.8-9.8,25.5-8.3,38.9c1.6,13.8,3.1,27.7,4,41.6c1.8,27.9,0.7,56-6.2,83.3c-1.2,4.6-2.3,10.1,0.9,13.7
							c7.5-0.9,12.1-8.3,15.7-14.9c5.4-10,10.7-19.9,16.1-29.9c4.6-8.6,9.4-17.5,10.8-27.2c1.8-12.3-2-24.6-3.7-36.9
							c-2.2-15.1-1.3-30.7,3.4-45.3c12.4-38.3,39.7-63.9,78.8-73.2c25.4-6.1,56.5-5,76.4-24c25.8-24.6,15.9-66.1,9.1-96.7
							c-1.7-7.4-5.6-12.4-11.1-17.6c-5.6-5.3-12.1-9.3-18.5-13.6c-11.9-8.1-23.3-17.1-33.7-27c-9.4-8.9-16.1-19.5-30.9-15.8
							C774.3,393.2,772.4,394,770.6,394.9z"/>
						<path class="st6" d="M712.4,419.5c7.1-14.1,13-28.8,18.3-43.7c2.7-7.4,5.2-14.9,7.6-22.5c1-3,1.5-6,2.6-9
							c1.2-3.3,2.8-6.6,2.3-10.2c-0.8-5.1-5.5-8.5-10-11.1c-3.8-2.1-8.3-4.1-12.3-2.5c-2.6,1-4.2-2.1-5.6,0.2
							c-4.4,7-14.4,44-17.6,52c-3.9,9.5-8,19-12.3,28.3c-3.6,8-6,16.3-9.7,24.2c-7.5,16-16.2,31.4-26,46.2
							c-3.8,5.7-7.7,11.2-11.8,16.7c-1.8,2.4-10.9,10.2-13.4,12.4c-6.5,5.9-11.2,13.5-14.5,21.6c-1.1,2.6-1.3,26.8-2,32.4
							c-0.1,0.4,0,1,0.4,1.1c0.2,0.1,0.4,0,0.6-0.1c5.1-1.9,9.1-7.1,12.3-11.3c2.4-3.1,4.6-6.5,6.4-10c1.1-2,2.1-3.8,3.5-5.7
							c0.1,2.8-0.4,5.4-1.2,8.1c-0.7,2.4-1.8,4.7-2.2,7.3c-0.1,1-0.1,2,0.5,2.8c2.5-0.7,5.2-3.9,6.6-5.9c2.6-3.8,10-21,10.8-25.8
							c0.5-2.8,0.6-5.7,1.3-8.4c0.8-2.9,2.5-4.4,4.3-6.6c4.2-4.8,8.7-9.3,12.7-14.3C680.4,465.1,700.6,443,712.4,419.5z"/>
						<path class="st6" d="M769.3,312.8c-1.7-2.8-2.1-6.4-2-9.8c0-7.9,3.5-12.5,6.9-19.2c-1.1,2.2-25.5,0-47.3,19.8
							c-6.2,5.6-11.3,12.5-14.9,20c0,0.1,25.5,20.8,27.5,22.3c0.4,0.3,0.8,0.7,1,1.1c0.2,0.6,0,1.2-0.2,1.8
							c-3,8.8-3.5,14.4-3.1,23.5c0.3,9,1.7,18.2,4.3,26.8c2.5,8.6,6,17,7.5,25.9c2.2,12.4,0.3,25.4-5.2,36.8
							c4.1-8.4,62.1,10.4,68.8,12.6c11.4,3.7,22.7,8,33.7,12.8c9.6,4.2,23.4,9.3,31.6,16c-4.2-30.4,0.1-143.3-1.6-173.4
							c-0.4-6.2-1.1-12.5-4-18c-7.9-15.3-25.3-18.1-40.4-21.5c-0.2,0-0.4-0.1-0.6,0c-0.3,0.1-0.5,0.4-0.6,0.7
							c-4.7,11.7-14.9,18.9-26.1,23.5c-8.1,3.4-17.1,5-25.8,3.5c-3.1-0.5-6.2-1.5-8.3-3.7C770.1,314,769.6,313.4,769.3,312.8z"/>
						<path class="st5" d="M748.7,262.6c9.2,0.5,18.5-1.1,26.9-4.6"/>
						<path class="st10" d="M732.9,372.7c0.8,0.7,1.2,1.5,0.8,2.5c-3.4,9.4-7.4,18.5-11.5,27.6c-2.1,4.5-4.2,9.1-6.3,13.6
							c-1.3,2.7-2.6,8.6-5.9,9.6c-0.4,0.1-0.8,0-1.2,0c-6.3-1.2-12.6-2.4-18.6-4.5c-4.9-1.7-9.5-3.8-13.6-7.1
							c-0.3-0.2-0.6-0.5-0.7-0.8c-0.2-0.5,0.1-0.9,0.3-1.4c7.1-15.5,14.3-31,21.4-46.4c1.2-2.5,2.3-5,3.4-7.6
							c5.6,1,11.4,4.6,16.5,7.1c3.2,1.5,6.4,3.1,9.6,4.7C728.6,370.6,731.5,371.4,732.9,372.7z"/>
						<ellipse class="st8" cx="702.7" cy="388.6" rx="19.5" ry="19.4"/>
						<path class="st6" d="M841.8,342.9c-0.9,6.2-1.9,36.3-8.3,51.2c-22.3,51.2-51.8,80.3-65.4,94c-17.1,17.3-40.2,28.5-58,45.1
							c-1.6,1.5-21.9,23-18.4,24.1c6.4,1.9,13.2-1.3,18.7-5.2c4.4-3.2,8.1-6.2,13.1-8.6c-1.5,4.1-6,6.8-7,11.1
							c4.6-0.3,8.6-3.1,12.2-6c6.4-5.2,9.9-14.2,17.5-17.1c16.3-6.2,58.7-40.4,70.6-51.8c19.2-18.3,26.5-28.2,41.7-49.8
							c15-21.1,25.9-53.1,28.7-79.3c1.3-12.1-0.8-24.7-7.8-34.9C872.1,305,860,301,849,295.1c-5-2.7-13.5-1-19.2-1.3"/>
						<path class="st6" d="M713.5,377.2c-2-2.1-4.8-3.6-7.2-5.1c-2.9-1.9-7.4-5.2-10.1-7.3c1.9,1.5,7.2,4.5,8.2,5.1
							c2,1.1,3.8,2.6,6,3.3c0.3,0.1,0.7,0.2,1,0.1c2.6-1.4-5.7-8-6.8-8.8c-0.2-0.1-0.4-0.3-0.5-0.4c-2.4-1.5-4.8-3.2-7.4-4.5
							c-4.4-2.2-12.5-4.5-14.4-5c-4.6-1.4-12.7,17.6-14.3,24.2c0.6,0.4,10.7,5,15.5,6.7c0.1,0,0.2,0.1,0.3,0c0.1,0,0.2-0.1,0.2-0.2
							c0.7-0.9,1.3-1.7,2-2.6c0,0,8.4,3.4,8.9,3.7c3.7,2.3,6.1,5.6,10.4,5.6c0.4,0,0.8,0,1.1-0.2c0.8-0.6,0.2-1.9-0.6-2.6
							c-2.1-1.9-3.9-4.3-6.4-5.7c-4.2-2.4-8.2-4.3-12.4-7.7c3.8,2.3,7.8,4.2,11.8,5.9c1.9,0.8,9.7,5,12.1,5.8c0.6,0.2,1.4,0.4,2,0
							c0.5-0.4,0.6-1.1,0.4-1.8c-0.4-1.2-1.5-2-2.6-2.7c-2.1-1.4-8.9-6.3-10.3-7.2c-3.5-2.2-6.9-4.5-10.4-6.7
							c4.9,2.4,9.6,5,14.4,7.7c1.9,1.1,3.7,2.1,5.6,3.2c1.1,0.6,3.3,2.1,4.5,1.6c0.4-0.2,0.6-0.7,0.6-1.2c0-1-0.4-1.9-1.1-2.6
							C713.8,377.6,713.7,377.4,713.5,377.2z"/>
						<path class="st11" d="M537,409.8c8.1,5.4,18.6,6,28.4,5.6c9.4-0.3,21.2-2.3,30,1.8c7,3.2,11.2,10.3,12.9,17.5
							c3.3,14.3,0,31.4-7.2,44.2c-10.4,18.3-26.1,44.5-14.1,65.6c8.4,14.7,28.5,22.7,44.1,27.4c18.4,5.5,37.8,7.1,56.9,6.3
							c15.9-0.7,31.8-2.9,46.7-8.5c9.9-3.8,19.2-9,27.5-15.5c4.8-3.7,9.4-7.9,12.5-13.1c7.7-12.6,5.9-29.4-1.7-42
							s-20.2-21.6-33.4-28.3c-7.1-3.6-14.7-6.6-20.9-11.5c-11.2-8.8-16.1-20.4-10.5-34.2"/>
						<path class="st6" d="M518.8,175.4c-0.3-1.4-0.6-3,0.2-4.1s2.2-1.3,3.5-1.5c10.8-0.9,21,4.3,30,10.3c2.5,1.7,5,3.5,6.6,6.1
							c1.5,2.5,2,5.4,2.4,8.3c1.9,12.8,3.2,25.7,4,38.6c0.5,8.1,0.8,16.3-0.1,24.4c-2.4,20.1-12.1,38.3-15.7,58
							c-1.7-7.8-4-15.8-4.8-23.8c-0.8-7.5-2.5-15.1-4.6-22.4c-4.3-14.7-10.8-28.8-19.5-41.5c-3.5-5.2-7.5-10.5-8.1-16.7
							c-0.7-6.6,3.2-9.9,5.9-15.2C521.6,189.9,520.2,181.6,518.8,175.4z"/>
						<path class="st10" d="M563,223.3c-0.6,0.4-1.2,0.8-1.9,1.1c-6.9,3.7-16.3,1.4-23.2-1.3c-7.3-2.8-13.9-7.5-18.8-13.6
							c-1.3-1.6-4.4,0.8-4.7,2.8c-0.2,2,1,3.8,2.1,5.6c9.8,15.5,10.8,34.8,17.8,51.8c2.8,6.8,6.6,13.2,9.3,20.1
							c3.6,9.4,5.1,19.4,6.6,29.3c1.2-4.4,2.6-8.8,4.4-13c6.3-15.1,16.5-29.1,17.8-45.3c0-7.3-0.6-14.3-1.4-21.6
							c-0.4-3.4-0.2-6.8-0.4-10.2c-0.2-3-2.1-6.2-3.2-9C566,221,564.5,222.3,563,223.3z"/>
						<path class="st6" d="M575.6,238.8c-1.1-1-2.3-2.3-2.2-3.8c0-0.7,0.3-1.4,0.6-2.1c1.7-3.8,3.2-7.8,3.3-12
							c0.1-4.3-2-6.9-5.1-9.6c-2.2-1.9-4.5-3.6-6.8-5.4c-0.6-0.5-1.5-1-2.5-1.6c1.2,9.5,2.1,19.1,2.7,28.7
							c0.5,8.1,0.8,16.3-0.1,24.4c-2.4,20.1-10.9,32.2-14.5,51.9c-0.1-0.5-1.7,16.8-1.4,22.4c-0.6-11.6,5.6-22.9,11.5-32.3
							c6.2-10,13-19.6,17.8-30.4c1.8-4.1,3.3-8.5,3.6-13C582.8,249.5,580.4,243.1,575.6,238.8z"/>
						<path class="st6" d="M568,202.6c-15.2,1.4-30.8-7.4-41.5-17.3c-7.3-6.8-13.1-14.9-15.8-24.6c-1.4-5-3.8-9.6-4.7-14.8
							c-1-5.3-1.2-10.7-0.5-16c0.3-2.6,0.9-5.3,2.2-7.6c2-3.6,5.4-6.1,9.1-8c9.2-4.7,19.8-6.1,30.2-5.7c9.8,0.3,21,3.1,25.5,11.8
							c1,2,1.6,4.2,2.2,6.4c2.9,11.6,4.7,23.4,5.3,35.4c0.4,7.2,0.4,14.4,0.2,21.5c-0.1,4.7-0.8,11.5-4.1,15.1
							C574,201.1,571,202.3,568,202.6z"/>
						<path class="st8" d="M512.4,167.1c1.1,1.9,2.1,3.7,3.2,5.4c-0.9-1.5,5.1-5.7,6.1-6.1c2.6-0.9,5.9,0.7,8.4,1.5
							c0.9,0.3,2,0.5,2.8,0.9c0.4,0.2,2.4,1.9,2.4,2.3c-0.2-6.4,0-13.8,5.1-17.5c-1.6-2.7-3.2-5.4-3.7-8.5s0.3-6.6,2.8-8.4
							c2.2-1.6,5.2-1.5,7.9-1.3c3.8,0.2,7.6,0.5,11.4,0.7c11.6,0.7,24.4-3.2,18.7-18.2c-3.3-8.8-14.7-9.6-22.5-10
							c-5.3-0.2-10.4-0.8-15.6-0.6c-5.4,0.2-10.9,0.8-16,2.8c-4.1,1.6-8.8,4-12.1,7c-3.2,2.8-5.4,6.7-6.8,10.6
							C499.8,141.3,505.6,155.2,512.4,167.1z"/>
						<path class="st11" d="M526.2,174.9c-3.9,4.8-4.1,10.9-1.7,17.4c4.2,11.1,25.3,23.5,34.8,24.9c9.2,1.4,19.1,2.2,23.7-8.3
							c4.2-9.7,4.2-24.9-2.8-35.9"/>
						<path class="st5" d="M522.6,163.3c8.9,2.4,21,6.3,29.7,9.6"/>
						<path class="st5" d="M579.2,153.2c1.4,1,2.9,1.9,4.4,2.7"/>
						<path class="st5" d="M532.6,180.2c0.5,1.7,0.1,3.7-1.1,5s-3.3,1.9-4.9,1.2c-1.2-0.5-2.1-1.6-2.9-2.7c-1-1.4-1.9-2.8-3.1-4
							c-1.3-1.4-3.1-2.6-4.1-4.3c-0.8-1.4-0.3-3.7,0.3-5.1c1.4-3.5,5.9-5.2,9.4-3.9"/>
						<path class="st5" d="M520.6,169.9c4.1,1.9,7.1,6.2,7.5,10.7"/>
						
							<ellipse transform="matrix(0.6551 -0.7555 0.7555 0.6551 62.9622 482.3832)" class="st12" cx="559.9" cy="172.2" rx="8.3" ry="6.2"/>
						
							<ellipse transform="matrix(0.3414 -0.9399 0.9399 0.3414 229.1544 651.7772)" class="st13" cx="579.7" cy="162.4" rx="7.2" ry="6.4"/>
						<path class="st5" d="M566.6,167.4c-0.1-1.3,0.2-2.6,0.8-3.8c0.6-1,1.4-2,2.5-2.4s2.5,0,3.1,1"/>
						<path class="st11" d="M687.6,407.1c-14.1,5.8-33.9,9.6-49.2,7.7c-8.7-1.1-40.2-6.9-56-43.9c-6.5-15.1-5.8-32.5-3.7-48.7
							c2.2-16.7,22.3-78.8,1.4-107.8"/>
						<path class="st6" d="M549.4,338c0.2-2.9,0.3-21.3,0-24.2c-1.5-13.2-9.4-28.4-25.9-48c-4.8-5.7-10.7-10.8-8.7-18.5
							c1-3.7,3.2-7,4.4-10.7c0.4-1.1,0.6-2.4-0.1-3.4c-0.5-0.7-1.3-1-2.1-1.3c-3.6-1.2-7.6-1-11.4-1.5c-6.5-0.7-11.1-3.2-9.5-10.2
							c1.3-5.5,5.3-10.4,9.4-14.2c4-3.6,8.2-8.4,13.9-8.9c-1.7,0.1-0.6,11.5-0.4,12.8c0.8,4.4,2.7,8.3,5.1,12.1
							c5.7,9.3,10.7,19,14.6,29.2C548.1,275.8,551.5,312,549.4,338z"/>
						<path class="st6" d="M776.2,277.6c5.1,9.4,6.5,19.1,5.1,24.6"/>
						<path class="st8" d="M750.5,186.7c1.5-6.3,2.5-13.2,7.4-17.9c7.4-7.1,18.7-7.9,28.9-7.6c13.9,0.4,28.8,5.7,34.9,19.3
							c1.9,4.2,2.8,8.9,5.5,12.6c6.1,8.5,19.7,10.1,23.6,19.8c4.9,12.2-8.3,27.3-1.8,39c3.4,6.2,12.5,5.8,18.3,9.9
							c5.1,3.6,7,10.4,6.4,16.5c-0.5,5.2-2.9,9.4-4.6,14.2c-1.2,3.4-1.3,6.9-2.7,10.3c-12.3-1.2-23.7-4.6-36.4-3.4
							c-4.9,0.5-9.9,1.3-14.6-0.2c-14.2-4.5-6.6-29.9-8.6-40.8c-0.8-4.1-2.4-8.1-4.7-11.6c-1.6-2.4-4.4-4.8-5.7-7.4
							c-0.9-1.9-0.4-3.7-2.3-5.3c-2.4-2-6.3-1.3-9.1-1.2c-4.1,0.1-8.1,0.9-11.9,2.4c2.2-9.2-0.8-19.4-7.8-25.9
							c-1.1-1.1-2.4-2.1-2.8-3.6c-0.2-0.8-0.1-1.7-0.1-2.5c0.3-5.3-0.7-13-6-15.9c-2.4-1.3-3.9-0.3-6.3-0.5
							C750.4,187,750.5,186.8,750.5,186.7z"/>
						<path class="st6" d="M510.7,399.6c-3.3,6.8-6.4,15-8.3,23.2l-10.3-2.6c0,0,2.1-14.3,9.7-23.3
							C501.8,396.9,509.3,399.3,510.7,399.6z"/>
						<path class="st6" d="M500.3,425.3l-9.2-3c-2.1-0.7-3.3-3-2.6-5.1l4.1-12.6c0.7-2.1,3-3.3,5.1-2.6l9.2,3c2.1,0.7,3.3,3,2.6,5.1
							l-4.1,12.6C504.7,424.8,502.5,426,500.3,425.3z"/>
					</g>
				</g>
			</g>
		</g>
		<path class="st14" d="M-122,559.2h10.8c4.8,0,8.6-3.9,8.6-8.6v-2.2c0-4.8,3.9-8.6,8.6-8.6h2.2c4.8,0,8.6,3.9,8.6,8.6V570
			c0,4.8,3.9,8.6,8.6,8.6h2.2c4.8,0,8.6-3.9,8.6-8.6v-41.1c0-4.8,3.9-8.6,8.6-8.6h2.2c4.8,0,8.6,3.9,8.6,8.6v60.5
			c0,4.8,3.9,8.6,8.6,8.6h2.2c4.8,0,8.6-3.9,8.6-8.6v-41.1c0-4.8,3.9-8.6,8.6-8.6h2.2c4.8,0,8.6,3.9,8.6,8.6v21.6
			c0,4.8,3.9,8.6,8.6,8.6l0,0c4.8,0,8.6-3.9,8.6-8.6v-21.6c0-4.8,3.9-8.6,8.6-8.6h2.2c4.8,0,8.6,3.9,8.6,8.6v80
			c0,4.8,3.9,8.6,8.6,8.6h4.3c4.8,0,8.6-3.9,8.6-8.6V490c0-4.8,3.9-8.6,8.6-8.6h2.2c4.8,0,8.6,3.9,8.6,8.6v118.9
			c0,4.8,3.9,8.6,8.6,8.6h2.2c4.8,0,8.6-3.9,8.6-8.6v-99.5c0-4.8,3.9-8.6,8.6-8.6h2.2c4.8,0,8.6,3.9,8.6,8.6v82.2
			c0,4.8,3.9,8.6,8.6,8.6l0,0c4.8,0,8.6-3.9,8.6-8.6v-45.4c0-4.8,3.9-8.6,8.6-8.6h4.3c4.8,0,8.6,3.9,8.6,8.6V570
			c0,4.8,3.9,8.6,8.6,8.6l0,0c4.8,0,8.6-3.9,8.6-8.6v-2.2c0-4.8,3.9-8.6,8.6-8.6h13h-344"/>
		<path class="st15" d="M1042.7,245.9C1023,446.5,852.8,603.2,645.8,603.2S268.7,446.5,249,245.9h216.3"/>
	</g>
	<g>
		<circle class="st16" cx="498.8" cy="414.2" r="8.7"/>
		<circle class="st16" cx="498.8" cy="414.2" r="5"/>
		<circle class="st17" cx="498.8" cy="414.2" r="2.4"/>
	</g>
	<g>
		<circle class="st14" cx="871.7" cy="517.5" r="103"/>
		<circle class="st14" cx="871.7" cy="517.5" r="74.6"/>
		<circle class="st14" cx="871.7" cy="517.5" r="58.5"/>
		<g>
			<circle class="st18" cx="871.7" cy="517.5" r="46.2"/>
			<g>
				<g>
					<g>
						<path class="st17" d="M896.1,534.4c-0.8,0-1.5-0.4-2-1.1c-0.5-0.9-0.4-2,0.3-2.7c0.3-0.9,1.1-1.6,2.2-1.6c1.2,0,2.3,1,2.3,2.3
							v0.6c0,0.8-0.4,1.6-1.1,2l-0.5,0.3C896.8,534.3,896.5,534.4,896.1,534.4z"/>
					</g>
					<g>
						<path class="st17" d="M896.6,525.1c-1.2,0-2.3-1-2.3-2.3v-1.1c0-1.2,1-2.3,2.3-2.3c1.2,0,2.3,1,2.3,2.3v1.2
							C898.8,524.1,897.8,525.1,896.6,525.1z M896.6,515.5c-1.2,0-2.3-1-2.3-2.3V512c0-1.2,1-2.3,2.3-2.3c1.2,0,2.3,1,2.3,2.3v1.2
							C898.8,514.5,897.8,515.5,896.6,515.5z"/>
					</g>
					<g>
						<path class="st17" d="M896.6,505.9c-1,0-1.9-0.7-2.2-1.6c-0.7-0.7-0.8-1.8-0.3-2.7c0.6-1.1,2-1.5,3.1-0.8l0.5,0.3
							c0.7,0.4,1.1,1.2,1.1,2v0.6C898.8,504.9,897.8,505.9,896.6,505.9z"/>
					</g>
					<g>
						<path class="st17" d="M888.8,500.9c-0.4,0-0.8-0.1-1.1-0.3l-1-0.6c-1.1-0.6-1.5-2-0.8-3.1c0.6-1.1,2-1.5,3.1-0.8l1,0.6
							c1.1,0.6,1.5,2,0.8,3.1C890.3,500.5,889.6,500.9,888.8,500.9z M880.5,496.1c-0.4,0-0.8-0.1-1.1-0.3l-1-0.6
							c-1.1-0.6-1.5-2-0.8-3.1c0.6-1.1,2-1.5,3.1-0.8l1,0.6c1.1,0.6,1.5,2,0.8,3.1C882,495.7,881.3,496.1,880.5,496.1z"/>
					</g>
					<g>
						<path class="st17" d="M872.2,491.3c-0.2,0-0.3,0-0.5-0.1c-0.9,0.2-1.9-0.2-2.4-1.1c-0.6-1.1-0.3-2.5,0.8-3.1l0.5-0.3
							c0.7-0.4,1.6-0.4,2.3,0l0.5,0.3c1.1,0.6,1.5,2,0.8,3.1C873.7,490.9,872.9,491.3,872.2,491.3z"/>
					</g>
					<g>
						<path class="st17" d="M854.6,500.9c-0.8,0-1.5-0.4-2-1.1c-0.6-1.1-0.3-2.5,0.8-3.1l1-0.6c1.1-0.6,2.5-0.3,3.1,0.8
							c0.6,1.1,0.3,2.5-0.8,3.1l-1,0.6C855.3,500.8,854.9,500.9,854.6,500.9z M862.9,496.1c-0.8,0-1.5-0.4-2-1.1
							c-0.6-1.1-0.3-2.5,0.8-3.1l1-0.6c1.1-0.6,2.5-0.3,3.1,0.8c0.6,1.1,0.3,2.5-0.8,3.1l-1,0.6C863.6,496,863.3,496.1,862.9,496.1z
							"/>
					</g>
					<g>
						<path class="st17" d="M846.8,505.9c-1.2,0-2.3-1-2.3-2.3V503c0-0.8,0.4-1.6,1.1-2l0.5-0.3c1.1-0.6,2.5-0.3,3.1,0.8
							c0.5,0.9,0.4,2-0.3,2.7C848.7,505.3,847.8,505.9,846.8,505.9z"/>
					</g>
					<g>
						<path class="st17" d="M846.8,525.1c-1.2,0-2.3-1-2.3-2.3v-1.1c0-1.2,1-2.3,2.3-2.3c1.2,0,2.3,1,2.3,2.3v1.2
							C849.1,524.1,848,525.1,846.8,525.1z M846.8,515.5c-1.2,0-2.3-1-2.3-2.3V512c0-1.2,1-2.3,2.3-2.3c1.2,0,2.3,1,2.3,2.3v1.2
							C849.1,514.5,848,515.5,846.8,515.5z"/>
					</g>
					<g>
						<path class="st17" d="M847.3,534.4c-0.4,0-0.8-0.1-1.1-0.3l-0.5-0.3c-0.7-0.4-1.1-1.2-1.1-2v-0.6c0-1.2,1-2.3,2.3-2.3
							c1,0,1.9,0.7,2.2,1.6c0.6,0.7,0.8,1.8,0.3,2.7C848.8,534,848.1,534.4,847.3,534.4z"/>
					</g>
					<g>
						<path class="st17" d="M863.9,544c-0.4,0-0.8-0.1-1.1-0.3l-1-0.6c-1.1-0.6-1.5-2-0.8-3.1c0.6-1.1,2-1.5,3.1-0.8l1,0.6
							c1.1,0.6,1.5,2,0.8,3.1C865.5,543.6,864.7,544,863.9,544z M855.6,539.2c-0.4,0-0.8-0.1-1.1-0.3l-1-0.6c-1.1-0.6-1.5-2-0.8-3.1
							c0.6-1.1,2-1.5,3.1-0.8l1,0.6c1.1,0.6,1.5,2,0.8,3.1C857.1,538.8,856.4,539.2,855.6,539.2z"/>
					</g>
					<g>
						<path class="st17" d="M871.7,548.5c-0.4,0-0.8-0.1-1.1-0.3l-0.5-0.3c-1.1-0.6-1.5-2-0.8-3.1c0.5-0.9,1.5-1.3,2.4-1.1
							c0.9-0.2,1.9,0.2,2.4,1.1c0.6,1.1,0.3,2.5-0.8,3.1l-0.5,0.3C872.5,548.4,872.1,548.5,871.7,548.5z"/>
					</g>
					<g>
						<path class="st17" d="M879.4,544c-0.8,0-1.5-0.4-2-1.1c-0.6-1.1-0.3-2.5,0.8-3.1l1-0.6c1.1-0.6,2.5-0.3,3.1,0.8
							s0.3,2.5-0.8,3.1l-1,0.6C880.2,543.9,879.8,544,879.4,544z M887.8,539.2c-0.8,0-1.5-0.4-2-1.1c-0.6-1.1-0.3-2.5,0.8-3.1l1-0.6
							c1.1-0.6,2.5-0.3,3.1,0.8s0.3,2.5-0.8,3.1l-1,0.6C888.5,539.1,888.1,539.2,887.8,539.2z"/>
					</g>
				</g>
			</g>
			<g>
				<g>
					<g>
						<path class="st17" d="M889,530.3c-0.8,0-1.5-0.4-2-1.1c-0.5-0.9-0.4-2,0.3-2.7c0.3-0.9,1.1-1.6,2.2-1.6c1.2,0,2.3,1,2.3,2.3
							v0.6c0,0.8-0.4,1.6-1.1,2l-0.5,0.3C889.8,530.2,889.4,530.3,889,530.3z"/>
					</g>
					<g>
						<path class="st17" d="M889.5,520.4c-1.2,0-2.3-1-2.3-2.3v-1.3c0-1.2,1-2.3,2.3-2.3s2.3,1,2.3,2.3v1.3
							C891.8,519.4,890.7,520.4,889.5,520.4z"/>
					</g>
					<g>
						<path class="st17" d="M889.5,510c-1,0-1.9-0.7-2.2-1.6c-0.7-0.7-0.8-1.8-0.3-2.7c0.6-1.1,2-1.5,3.1-0.8l0.5,0.3
							c0.7,0.4,1.1,1.2,1.1,2v0.6C891.8,509,890.7,510,889.5,510z"/>
					</g>
					<g>
						<path class="st17" d="M881.1,504.6c-0.4,0-0.8-0.1-1.1-0.3l-1.1-0.6c-1.1-0.6-1.5-2-0.8-3.1c0.6-1.1,2-1.5,3.1-0.8l1.1,0.6
							c1.1,0.6,1.5,2,0.8,3.1C882.7,504.2,881.9,504.6,881.1,504.6z"/>
					</g>
					<g>
						<path class="st17" d="M872.2,499.4c-0.2,0-0.3,0-0.5-0.1c-0.9,0.2-1.9-0.2-2.4-1.1c-0.6-1.1-0.3-2.5,0.8-3.1l0.5-0.3
							c0.7-0.4,1.6-0.4,2.3,0l0.5,0.3c1.1,0.6,1.5,2,0.8,3.1C873.7,499,872.9,499.4,872.2,499.4z"/>
					</g>
					<g>
						<path class="st17" d="M862.2,504.6c-0.8,0-1.5-0.4-2-1.1c-0.6-1.1-0.3-2.5,0.8-3.1l1.1-0.6c1.1-0.6,2.5-0.3,3.1,0.8
							c0.6,1.1,0.3,2.5-0.8,3.1l-1.1,0.6C863,504.5,862.6,504.6,862.2,504.6z"/>
					</g>
					<g>
						<path class="st17" d="M853.9,510c-1.2,0-2.3-1-2.3-2.3v-0.6c0-0.8,0.4-1.6,1.1-2l0.5-0.3c1.1-0.6,2.5-0.3,3.1,0.8
							c0.5,0.9,0.4,2-0.3,2.7C855.7,509.3,854.9,510,853.9,510z"/>
					</g>
					<g>
						<path class="st17" d="M853.9,520.4c-1.2,0-2.3-1-2.3-2.3v-1.3c0-1.2,1-2.3,2.3-2.3c1.2,0,2.3,1,2.3,2.3v1.3
							C856.1,519.4,855.1,520.4,853.9,520.4z"/>
					</g>
					<g>
						<path class="st17" d="M854.3,530.3c-0.4,0-0.8-0.1-1.1-0.3l-0.5-0.3c-0.7-0.4-1.1-1.2-1.1-2v-0.6c0-1.2,1-2.3,2.3-2.3
							c1,0,1.9,0.7,2.2,1.6c0.7,0.7,0.8,1.8,0.3,2.7C855.9,529.9,855.1,530.3,854.3,530.3z"/>
					</g>
					<g>
						<path class="st17" d="M863.3,535.5c-0.4,0-0.8-0.1-1.1-0.3l-1.1-0.6c-1.1-0.6-1.5-2-0.8-3.1c0.6-1.1,2-1.5,3.1-0.8l1.1,0.6
							c1.1,0.6,1.5,2,0.8,3.1C864.9,535.1,864.1,535.5,863.3,535.5z"/>
					</g>
					<g>
						<path class="st17" d="M871.7,540.3c-0.4,0-0.8-0.1-1.1-0.3l-0.5-0.3c-1.1-0.6-1.5-2-0.8-3.1c0.5-0.9,1.5-1.3,2.4-1.1
							c0.9-0.2,1.9,0.2,2.4,1.1c0.6,1.1,0.3,2.5-0.8,3.1l-0.5,0.3C872.5,540.2,872.1,540.3,871.7,540.3z"/>
					</g>
					<g>
						<path class="st17" d="M880,535.5c-0.8,0-1.5-0.4-2-1.1c-0.6-1.1-0.3-2.5,0.8-3.1l1.1-0.6c1.1-0.6,2.5-0.3,3.1,0.8
							s0.3,2.5-0.8,3.1l-1.1,0.6C880.8,535.4,880.4,535.5,880,535.5z"/>
					</g>
				</g>
			</g>
		</g>
	</g>
	<g>
		<g>
			<path class="st19" d="M718.2,241.3l-21.2,6.2c-4.8-4.8-11-8.3-18.2-9.7c-18.8-3.5-36.8,8.8-40.4,27.6
				c-3.5,18.8,8.8,36.8,27.6,40.4c18.8,3.5,36.8-8.8,40.4-27.6c1.3-6.7,0.5-13.3-1.9-19.2L718.2,241.3z"/>
		</g>
		<g>
			<path class="st2" d="M697.1,275L697.1,275c-1.6,0-2.9-1.3-2.9-2.9l0,0c0-1.6,1.3-2.9,2.9-2.9l0,0c1.6,0,2.9,1.3,2.9,2.9l0,0
				C700,273.7,698.7,275,697.1,275z"/>
			<path class="st2" d="M649.2,280.7L649.2,280.7c-1.6,0-2.9-1.3-2.9-2.9v-12.4c0-1.6,1.3-2.9,2.9-2.9l0,0c1.6,0,2.9,1.3,2.9,2.9
				v12.4C652.1,279.5,650.8,280.7,649.2,280.7z"/>
			<path class="st2" d="M658.9,287.4L658.9,287.4c-1.6,0-2.9-1.3-2.9-2.9v-25.6c0-1.6,1.3-2.9,2.9-2.9l0,0c1.6,0,2.9,1.3,2.9,2.9
				v25.6C661.8,286.1,660.5,287.4,658.9,287.4z"/>
			<path class="st2" d="M668.6,280.7L668.6,280.7c-1.6,0-2.9-1.3-2.9-2.9v-12.4c0-1.6,1.3-2.9,2.9-2.9l0,0c1.6,0,2.9,1.3,2.9,2.9
				v12.4C671.5,279.5,670.2,280.7,668.6,280.7z"/>
			<path class="st2" d="M678.3,296.4L678.3,296.4c-1.6,0-2.9-1.3-2.9-2.9v-43.8c0-1.6,1.3-2.9,2.9-2.9l0,0c1.6,0,2.9,1.3,2.9,2.9
				v43.8C681.2,295.2,679.9,296.4,678.3,296.4z"/>
			<path class="st2" d="M688,280.7L688,280.7c-1.6,0-2.9-1.3-2.9-2.9v-12.4c0-1.6,1.3-2.9,2.9-2.9l0,0c1.6,0,2.9,1.3,2.9,2.9v12.4
				C690.9,279.5,689.6,280.7,688,280.7z"/>
		</g>
	</g>
	<g>
		<path class="st18" d="M1239.1,638.8h-98.8c-7.8,0-14.1-6.3-14.1-14.1v-27c0-7.8,6.3-14.1,14.1-14.1h98.8c7.8,0,14.1,6.3,14.1,14.1
			v27.1C1253.2,632.5,1246.9,638.8,1239.1,638.8z"/>
		<path class="st20" d="M1239.1,638.8h-98.8c-7.8,0-14.1-6.3-14.1-14.1v-27c0-7.8,6.3-14.1,14.1-14.1h98.8c7.8,0,14.1,6.3,14.1,14.1
			v27.1C1253.2,632.5,1246.9,638.8,1239.1,638.8z"/>
		<g>
			<circle class="st9" cx="1153.4" cy="612" r="19.8"/>
		</g>
		<g>
			<path class="st2" d="M1163.8,613.5l-1.7,1.7l-8.7,8.7l-10.4-10.4c-1.2-1.2-1.8-2.8-1.8-4.4s0.6-3.2,1.8-4.4
				c2.4-2.4,6.3-2.4,8.7,0l1.7,1.7l1.7-1.7c1.2-1.2,2.8-1.8,4.4-1.8s3.2,0.6,4.4,1.8C1166.2,607.2,1166.2,611.1,1163.8,613.5z"/>
		</g>
		<g>
			<g>
				<line class="st21" x1="1180.6" y1="603.7" x2="1213.7" y2="603.7"/>
				<line class="st21" x1="1209.2" y1="611.9" x2="1240" y2="611.9"/>
				<line class="st21" x1="1180.6" y1="620.1" x2="1223.8" y2="620.1"/>
			</g>
			<g>
				<line class="st21" x1="1180.6" y1="611.9" x2="1203.5" y2="611.9"/>
			</g>
		</g>
	</g>
</g>
<g id="Layer_2_1_">
	<path class="st14" d="M1644.1,287.9h16.1c7.1,0,12.9-5.8,12.9-12.9v-3.2c0-7.1,5.8-12.9,12.9-12.9h3.2c7.1,0,12.9,5.8,12.9,12.9
		v32.3c0,7.1,5.8,12.9,12.9,12.9h3.2c7.1,0,12.9-5.8,12.9-12.9v-61.4c0-7.1,5.8-12.9,12.9-12.9h3.2c7.1,0,12.9,5.8,12.9,12.9v90.4
		c0,7.1,5.8,12.9,12.9,12.9h3.2c7.1,0,12.9-5.8,12.9-12.9v-61.3c0-7.1,5.8-12.9,12.9-12.9h3.2c7.1,0,12.9,5.8,12.9,12.9v32.3
		c0,7.1,5.8,12.9,12.9,12.9l0,0c7.1,0,12.9-5.8,12.9-12.9v-32.3c0-7.1,5.8-12.9,12.9-12.9h3.2c7.1,0,12.9,5.8,12.9,12.9v119.5
		c0,7.1,5.8,12.9,12.9,12.9h6.5c7.1,0,12.9-5.8,12.9-12.9V184.6c0-7.1,5.8-12.9,12.9-12.9h3.2c7.1,0,12.9,5.8,12.9,12.9v177.6
		c0,7.1,5.8,12.9,12.9,12.9h3.2c7.1,0,12.9-5.8,12.9-12.9V213.7c0-7.1,5.8-12.9,12.9-12.9h3.2c7.1,0,12.9,5.8,12.9,12.9v122.7
		c0,7.1,5.8,12.9,12.9,12.9l0,0c7.1,0,12.9-5.8,12.9-12.9v-67.8c0-7.1,5.8-12.9,12.9-12.9h6.5c7.1,0,12.9,5.8,12.9,12.9v35.5
		c0,7.1,5.8,12.9,12.9,12.9l0,0c7.1,0,12.9-5.8,12.9-12.9v-3.2c0-7.1,5.8-12.9,12.9-12.9h19.4h-513.7"/>
</g>
<g>
	<circle class="st22" cx="343.7" cy="76.1" r="66.5"/>
	<circle class="st2" cx="343.7" cy="76.1" r="66.5"/>
	<g>
		<path class="st10" d="M343.7,96.2c-2.1,0-3.8-1.7-3.8-3.8V9.6c0-2.1,1.7-3.8,3.8-3.8s3.8,1.7,3.8,3.8v82.8
			C347.4,94.5,345.7,96.2,343.7,96.2z"/>
	</g>
	<g>
		<path class="st9" d="M393.9,81.9h-60c-3.2,0-5.8-2.6-5.8-5.8c0-3.2,2.6-5.8,5.8-5.8h60c3.2,0,5.8,2.6,5.8,5.8
			C399.7,79.3,397.1,81.9,393.9,81.9z"/>
	</g>
</g>
</svg>
