<?xml version="1.0" encoding="utf-8"?>
<!-- Generator: Adobe Illustrator 24.1.1, SVG Export Plug-In . SVG Version: 6.00 Build 0)  -->
<svg version="1.1" id="Layer_1" xmlns="http://www.w3.org/2000/svg" xmlns:xlink="http://www.w3.org/1999/xlink" x="0px" y="0px"
	 viewBox="0 0 127.9 119" style="enable-background:new 0 0 127.9 119;" xml:space="preserve">
<style type="text/css">
	.st0{fill:#04A0F4;}
	.st1{fill:#FFFFFF;}
</style>
<g>
	<g>
		<path class="st0" d="M73,0.1C40.9-1.7,13.5,22.9,11.7,54.9c-0.6,11.4,2.1,22.2,7.3,31.5L0,119l34-15c9,7,20.2,11.5,32.5,12.2
			c32.1,1.8,59.5-22.8,61.3-54.8C129.6,29.3,105.1,1.9,73,0.1z"/>
		<path class="st1" d="M43.7,71.7L43.7,71.7c-2.5,0-4.5-2-4.5-4.5V47.8c0-2.5,2-4.5,4.5-4.5h0c2.5,0,4.5,2,4.5,4.5v19.4
			C48.3,69.7,46.2,71.7,43.7,71.7z"/>
		<path class="st1" d="M28.2,62.7L28.2,62.7c-2.5,0-4.5-2-4.5-4.5v0c0-2.5,2-4.5,4.5-4.5h0c2.5,0,4.5,2,4.5,4.5v0
			C32.7,60.6,30.7,62.7,28.2,62.7z"/>
		<path class="st1" d="M58.9,82.1L58.9,82.1c-2.5,0-4.5-2-4.5-4.5V37.4c0-2.5,2-4.5,4.5-4.5h0c2.5,0,4.5,2,4.5,4.5v40.1
			C63.5,80.1,61.4,82.1,58.9,82.1z"/>
		<path class="st1" d="M74.1,102.8L74.1,102.8c-2.5,0-4.5-2-4.5-4.5V16.7c0-2.5,2-4.5,4.5-4.5h0c2.5,0,4.5,2,4.5,4.5v81.6
			C78.7,100.8,76.6,102.8,74.1,102.8z"/>
		<path class="st1" d="M89.4,82.1L89.4,82.1c-2.5,0-4.5-2-4.5-4.5V37.4c0-2.5,2-4.5,4.5-4.5h0c2.5,0,4.5,2,4.5,4.5v40.1
			C93.9,80.1,91.9,82.1,89.4,82.1z"/>
		<path class="st1" d="M104.6,71.7L104.6,71.7c-2.5,0-4.5-2-4.5-4.5V47.8c0-2.5,2-4.5,4.5-4.5h0c2.5,0,4.5,2,4.5,4.5v19.4
			C109.1,69.7,107.1,71.7,104.6,71.7z"/>
	</g>
</g>
</svg>
