<?xml version="1.0" encoding="utf-8"?>
<!-- Generator: Adobe Illustrator 24.1.2, SVG Export Plug-In . SVG Version: 6.00 Build 0)  -->
<svg version="1.1" id="Layer_1" xmlns="http://www.w3.org/2000/svg" xmlns:xlink="http://www.w3.org/1999/xlink" x="0px" y="0px"
	 viewBox="0 0 129.9 121" style="enable-background:new 0 0 129.9 121;" xml:space="preserve">
<style type="text/css">
	.st0{fill:#04A0F4;}
	.st1{fill:#FFFFFF;}
</style>
<g>
	<g>
		<path class="st0" d="M2.1,63.4c1.8,32,29.2,56.6,61.3,54.8c12.3-0.7,23.5-5.2,32.5-12.2l34,15l-19-32.6c5.2-9.3,7.9-20.1,7.3-31.5
			C116.4,24.9,89,0.3,56.9,2.1S0.3,31.3,2.1,63.4z"/>
		<path class="st1" d="M81.7,69.2V49.8c0-2.5,2-4.5,4.5-4.5l0,0c2.5,0,4.5,2,4.5,4.5v19.4c0,2.5-2,4.5-4.5,4.5l0,0
			C83.7,73.7,81.6,71.7,81.7,69.2z"/>
		<path class="st1" d="M97.2,60.2L97.2,60.2c0-2.5,2-4.5,4.5-4.5l0,0c2.5,0,4.5,2,4.5,4.5l0,0c0,2.5-2,4.5-4.5,4.5l0,0
			C99.2,64.7,97.2,62.6,97.2,60.2z"/>
		<path class="st1" d="M66.5,79.5V39.4c0-2.5,2-4.5,4.5-4.5l0,0c2.5,0,4.5,2,4.5,4.5v40.2c0,2.5-2,4.5-4.5,4.5l0,0
			C68.5,84.1,66.4,82.1,66.5,79.5z"/>
		<path class="st1" d="M51.3,100.3V18.7c0-2.5,2-4.5,4.5-4.5l0,0c2.5,0,4.5,2,4.5,4.5v81.6c0,2.5-2,4.5-4.5,4.5l0,0
			C53.3,104.8,51.2,102.8,51.3,100.3z"/>
		<path class="st1" d="M36,79.5V39.4c0-2.5,2-4.5,4.5-4.5l0,0c2.5,0,4.5,2,4.5,4.5v40.2c0,2.5-2,4.5-4.5,4.5l0,0
			C38,84.1,36,82.1,36,79.5z"/>
		<path class="st1" d="M20.8,69.2V49.8c0-2.5,2-4.5,4.5-4.5l0,0c2.5,0,4.5,2,4.5,4.5v19.4c0,2.5-2,4.5-4.5,4.5l0,0
			C22.8,73.7,20.8,71.7,20.8,69.2z"/>
	</g>
</g>
</svg>
