<?xml version="1.0" encoding="utf-8"?>
<!-- Generator: Adobe Illustrator 24.1.3, SVG Export Plug-In . SVG Version: 6.00 Build 0)  -->
<svg version="1.1" xmlns="http://www.w3.org/2000/svg" xmlns:xlink="http://www.w3.org/1999/xlink" x="0px" y="0px"
	 viewBox="0 0 758.8 526.2" style="enable-background:new 0 0 758.8 526.2;" xml:space="preserve">
<style type="text/css">
	.st0{fill:#FFFFFF;stroke:#484949;stroke-miterlimit:10;}
	.st1{fill:#04A0F4;}
	.st2{opacity:0.1;fill:#04A0F4;enable-background:new    ;}
	.st3{fill:#FFFFFF;stroke:#9E9E9E;stroke-miterlimit:10;}
	.st4{fill:#FFFFFF;}
	.st5{opacity:0.33;clip-path:url(#SVGID_2_);}
	.st6{opacity:0.33;clip-path:url(#SVGID_4_);}
	.st7{opacity:0.33;clip-path:url(#SVGID_6_);}
	.st8{opacity:0.33;clip-path:url(#SVGID_8_);}
	.st9{fill:#C9C9C7;}
	.st10{fill:#FF695B;}
	.st11{fill:#FFBE4F;}
	.st12{fill:#484949;}
	.st13{fill:none;stroke:#484949;stroke-miterlimit:10;}
	.st14{fill:none;stroke:#04A0F4;stroke-width:7;stroke-linecap:round;stroke-miterlimit:10;}
</style>
<g id="Layer_1">
	<path class="st0" d="M826.8,394.9"/>
	<g>
		<path class="st1" d="M227.3,245.5h-148c-2.4,0-4.3-1.9-4.3-4.3l0,0c0-2.4,1.9-4.3,4.3-4.3h147.9c2.4,0,4.3,1.9,4.3,4.3l0,0
			C231.5,243.6,229.6,245.5,227.3,245.5z"/>
		<path class="st2" d="M601,192.2h38.7c3.9,0,7-3.1,7-7v-51.1c0-3.9-3.1-7-7-7H601c-3.9,0-7,3.1-7,7v51.1
			C594,189.1,597.1,192.2,601,192.2z"/>
		<g>
			<path class="st3" d="M742.4,190.8H578c-5,0-9-4-9-9V39.1c0-5,4-9,9-9h164.4c5,0,9,4,9,9v142.7
				C751.4,186.8,747.4,190.8,742.4,190.8z"/>
			<path class="st2" d="M587.8,179h33.5c3.9,0,7-3.1,7-7v-44.6c0-3.9-3.1-7-7-7h-33.5c-3.9,0-7,3.1-7,7V172
				C580.8,175.9,583.9,179,587.8,179z"/>
			<path class="st2" d="M642.2,179h33.5c3.9,0,7-3.1,7-7v-44.6c0-3.9-3.1-7-7-7h-33.5c-3.9,0-7,3.1-7,7V172
				C635.2,175.9,638.4,179,642.2,179z"/>
			<path class="st1" d="M642.2,113.1h33.5c3.9,0,7-3.1,7-7V61.5c0-3.9-3.1-7-7-7h-33.5c-3.9,0-7,3.1-7,7v44.6
				C635.2,109.9,638.4,113.1,642.2,113.1z"/>
			<path class="st2" d="M696.7,113.1h33.5c3.9,0,7-3.1,7-7V61.5c0-3.9-3.1-7-7-7h-33.5c-3.9,0-7,3.1-7,7v44.6
				C689.7,109.9,692.8,113.1,696.7,113.1z"/>
			<g>
				<circle class="st4" cx="714.1" cy="73" r="11.8"/>
				<g>
					<g>
						<g>
							<defs>
								<circle id="SVGID_1_" cx="714.1" cy="73.5" r="11.8"/>
							</defs>
							<clipPath id="SVGID_2_">
								<use xlink:href="#SVGID_1_"  style="overflow:visible;"/>
							</clipPath>
							<g class="st5">
								<ellipse class="st1" cx="714.4" cy="69.4" rx="3.5" ry="4.2"/>
								<circle class="st1" cx="713.7" cy="90.1" r="14.3"/>
							</g>
						</g>
					</g>
				</g>
			</g>
			<g>
				<circle class="st4" cx="659.7" cy="73" r="11.8"/>
				<g>
					<g>
						<g>
							<defs>
								<circle id="SVGID_3_" cx="659.7" cy="73.5" r="11.8"/>
							</defs>
							<clipPath id="SVGID_4_">
								<use xlink:href="#SVGID_3_"  style="overflow:visible;"/>
							</clipPath>
							<g class="st6">
								<ellipse class="st1" cx="660" cy="69.4" rx="3.5" ry="4.2"/>
								<circle class="st1" cx="659.4" cy="90.1" r="14.3"/>
							</g>
						</g>
					</g>
				</g>
			</g>
			<g>
				<circle class="st4" cx="659.7" cy="138" r="11.8"/>
				<g>
					<g>
						<g>
							<defs>
								<circle id="SVGID_5_" cx="659.7" cy="138.5" r="11.8"/>
							</defs>
							<clipPath id="SVGID_6_">
								<use xlink:href="#SVGID_5_"  style="overflow:visible;"/>
							</clipPath>
							<g class="st7">
								<ellipse class="st1" cx="660" cy="134.3" rx="3.5" ry="4.2"/>
								<circle class="st1" cx="659.4" cy="155.1" r="14.3"/>
							</g>
						</g>
					</g>
				</g>
			</g>
			<g>
				<path class="st4" d="M669.1,106.8c-0.5,0-0.9-0.2-1.2-0.6l-5.1-6.6c-0.5-0.7-0.4-1.7,0.3-2.2s1.7-0.4,2.2,0.3l3.6,4.6l5.9-12.2
					c0.4-0.8,1.3-1.1,2.1-0.7s1.1,1.3,0.7,2.1l-7,14.4c-0.2,0.5-0.7,0.8-1.2,0.9C669.2,106.8,669.2,106.8,669.1,106.8z"/>
			</g>
			<g>
				<path class="st4" d="M669.1,173.9c-0.5,0-0.9-0.2-1.2-0.6l-5.1-6.6c-0.5-0.7-0.4-1.7,0.3-2.2s1.7-0.4,2.2,0.3l3.6,4.6l5.9-12.2
					c0.4-0.8,1.3-1.1,2.1-0.7c0.8,0.4,1.1,1.3,0.7,2.1l-7,14.4c-0.2,0.5-0.7,0.8-1.2,0.9C669.2,173.9,669.2,173.9,669.1,173.9z"/>
			</g>
			<g>
				<path class="st4" d="M724.1,106.8c-0.5,0-0.9-0.2-1.2-0.6l-5.1-6.6c-0.5-0.7-0.4-1.7,0.3-2.2s1.7-0.4,2.2,0.3l3.6,4.6l5.9-12.2
					c0.4-0.8,1.3-1.1,2.1-0.7s1.1,1.3,0.7,2.1l-7,14.4c-0.2,0.5-0.7,0.8-1.2,0.9C724.2,106.8,724.1,106.8,724.1,106.8z"/>
			</g>
			<path class="st2" d="M696.7,179h33.5c3.9,0,7-3.1,7-7v-44.6c0-3.9-3.1-7-7-7h-33.5c-3.9,0-7,3.1-7,7V172
				C689.7,175.9,692.8,179,696.7,179z"/>
			<g>
				<circle class="st4" cx="714.1" cy="139" r="11.8"/>
				<g>
					<g>
						<g>
							<defs>
								<circle id="SVGID_7_" cx="714.1" cy="139.4" r="11.8"/>
							</defs>
							<clipPath id="SVGID_8_">
								<use xlink:href="#SVGID_7_"  style="overflow:visible;"/>
							</clipPath>
							<g class="st8">
								<ellipse class="st1" cx="714.4" cy="135.3" rx="3.5" ry="4.2"/>
								<circle class="st1" cx="713.7" cy="156.1" r="14.3"/>
							</g>
						</g>
					</g>
				</g>
			</g>
			<g>
				<path class="st4" d="M724.1,172.7c-0.5,0-0.9-0.2-1.2-0.6l-5.1-6.6c-0.5-0.7-0.4-1.7,0.3-2.2s1.7-0.4,2.2,0.3l3.6,4.6l5.9-12.2
					c0.4-0.8,1.3-1.1,2.1-0.7c0.8,0.4,1.1,1.3,0.7,2.1l-7,14.4c-0.2,0.5-0.7,0.8-1.2,0.9C724.2,172.7,724.1,172.7,724.1,172.7z"/>
			</g>
		</g>
		<g>
			<path class="st3" d="M632.6,234.6h-63.4c-7.8,0-14.1-6.3-14.1-14.1V84.4c0-7.8,6.3-14.1,14.1-14.1h63.4c7.8,0,14.1,6.3,14.1,14.1
				v136.2C646.6,228.3,640.4,234.6,632.6,234.6z"/>
			<path class="st9" d="M616.3,81.5h-30.8c-0.7,0-1.2-0.6-1.2-1.2l0,0c0-0.7,0.6-1.2,1.2-1.2h30.8c0.7,0,1.2,0.6,1.2,1.2l0,0
				C617.5,80.9,617,81.5,616.3,81.5z"/>
		</g>
		<path class="st2" d="M615.6,236.1c-18.1-0.7-37,1.1-55,3.6c-3.1,0.4-6.2,0.9-8.9,2.4c-8.9,4.6-10.6,16.3-11.6,26.3
			c-0.8,7.9-1.9,16-4.9,23.3c-7.3,17.5-21.8,21.6-37,29.6c-19,10.1-37,21.7-54.6,34.1c-22,15.6-43.3,32.3-65.1,47.7
			c-9.5,6.7-19.3,14.5-29.1,20.5c-9.5,5.7-22.1,8.4-32.7,11.6c-11.2,3.4-22.6,6.5-34.1,8.4c-55.2,9.4-114.2-7.5-156-44.8
			c-6.8-6-13.2-12.6-18.1-20.3c-6.5-10-10.3-21.5-13.1-33.1c-22.2-94.5,8.2-223.5,113.1-255.3c21.3-6.4,44.4-6,65.6,0.6
			c24.1,7.5,40.3,23,58.7,39.5c40.5,36.2,81.7,71.7,123.6,106.3c12,9.9,24.8,20.1,40.2,22.1c10.6,1.4,23.3-0.6,27.1-11.2
			c4.5-12.6,4.5-31.6,0.8-44.4c-4.3-14.6-14.9-26.4-22.8-39.4c-14.6-24.1-12.4-54.5,18.8-61.1c9.5-2,19.3-1.7,29-1.5
			c21.5,0.6,42-1.1,63.3-1.1c7.5,0.2,16,1,20.7,6.8c3,3.7,3.7,8.7,4.3,13.5c1.9,17.8,2,35.7,1.4,53.6c-0.6,16.8,1.2,33.8-0.6,50.5
			c-0.3,2.4-0.6,4.9-2,6.9c-2.6,3.8-7.9,4.5-12.6,4.8C621.9,236.3,619,236.3,615.6,236.1z"/>
		<path class="st2" d="M8.6,345.5h7.5c3.3,0,6-2.7,6-6V338c0-3.3,2.7-6,6-6h1.5c3.3,0,6,2.7,6,6v14.9c0,3.3,2.7,6,6,6h1.5
			c3.3,0,6-2.7,6-6v-28.4c0-3.3,2.7-6,6-6h1.5c3.3,0,6,2.7,6,6v41.8c0,3.3,2.7,6,6,6h1.5c3.3,0,6-2.7,6-6v-28.4c0-3.3,2.7-6,6-6h1.5
			c3.3,0,6,2.7,6,6v14.9c0,3.3,2.7,6,6,6l0,0c3.3,0,6-2.7,6-6v-14.9c0-3.3,2.7-6,6-6h1.5c3.3,0,6,2.7,6,6v55.3c0,3.3,2.7,6,6,6h3
			c3.3,0,6-2.7,6-6v-95.6c0-3.3,2.7-6,6-6h1.5c3.3,0,6,2.7,6,6v82.2c0,3.3,2.7,6,6,6h1.5c3.3,0,6-2.7,6-6v-68.7c0-3.3,2.7-6,6-6h1.5
			c3.3,0,6,2.7,6,6v56.8c0,3.3,2.7,6,6,6l0,0c3.3,0,6-2.7,6-6v-31.4c0-3.3,2.7-6,6-6h3c3.3,0,6,2.7,6,6v16.4c0,3.3,2.7,6,6,6l0,0
			c3.3,0,6-2.7,6-6v-1.5c0-3.3,2.7-6,6-6h9H-14"/>
		<g>
			<path class="st0" d="M372.1,230.3c6.2-8.2,14.2-15.3,23.9-19.3c2.1-0.8,4.2-1.5,6.2-2.5c3.8-1.8,6.9-4.9,9.3-8.3
				c1.1-1.6,2.1-3.7,1.1-5.3c-0.6-1.1-2-1.5-3.2-1.5c-2.5,0-5.5,1.3-7.3,2.8c-2.1,1.7-4,2.3-6.7,2.7c-4,0.6-7.9,0.9-11.9,1.1
				c-2.6,0.1-5.3,0.2-7.6,1.4c-2.4,1.2-4.1,3.4-5.8,5.4c-3.7,4.4-8.4,7.9-12,12.2c-3.3,3.8-8.4,5.7-11.3,10
				c-2.1,3.1-2.7,6.9-2.9,10.6c-0.3,4.5-0.2,8.9,0.4,13.4c0.2,1.9,0.2,8.9,3,6.9c1.1-0.8,1.9-2.4,2.9-3.5c1.4-1.6,2.8-3.1,4.2-4.6
				c2.9-3.2,5.8-6.6,8.6-9.9C366.1,238,369.2,234.2,372.1,230.3z"/>
			<path class="st0" d="M355.7,405.6c-6.1,2.5-11.7,8.1-14.8,13.9c-1.1,2.1-2,4.6-0.8,6.7c1.6,2.7,5.5,2.4,8.5,1.7
				c5.4-1.3,10.6-3.2,15.6-5.5c2.7-1.2,5.3-2.6,7.4-4.6s3.6-4.8,3.5-7.7c-0.1-2.9-3-6.4-5.8-6.9
				C369.3,403.2,361.3,403.3,355.7,405.6z"/>
			<path class="st10" d="M325,438.2c-9.4,19.7,3.8,43.7,4.2,64.8c35-0.9,60.6-1.6,95.6-2.6c25.1-0.7,50.7-1.4,74.3-9.9
				c28.4-10.2,48.2-31.4,56-60.6c4.3-16,0.9-33.7-8.2-47.6c-11-16.7-29.5-27.5-48.9-32c-25-5.8-52-1.2-74.3,11.4
				c-11.2,6.3-19,15.5-29.1,23.1c-10.4,7.9-20.5,16.1-31.3,23.5c-10,6.8-23.1,12.3-31.8,20.6C328.8,431.5,326.7,434.7,325,438.2z"/>
			<path class="st0" d="M391.2,153.5c-1.6,1.9-3.8,3.3-5.3,5.3c-0.6,0.7-1,1.6-1,2.5c0,0.7,0.3,1.3,0.5,1.9c0.9,2.5,0.6,5.2,0.3,7.9
				c-0.4,2.9-0.7,5.8-1.1,8.7c-0.3,2.8-0.7,5.8,0,8.6s2.7,5.4,5.5,6.1c5,1.1,8.3-2.7,13.3-0.3c4.1,2,7.2,6.3,8.6,10.6
				c2.1,6.1,1.6,12.8,1.1,19.3c0.4-5.6,27.6-7.7,31.7-11c4-3.3,0-9.3-1.1-14.4c-1.5-6.9-2.2-13.9-1.8-21c0.4-6.2,1.8-12.4,2.2-18.6
				s-0.1-12.8-3.3-18.2c-4.3-7.4-13.1-11.7-21.6-11.4c-7.2,0.2-14.1,3.5-19.4,8.3C395.2,141.7,395.2,148.7,391.2,153.5z"/>
			<path class="st0" d="M377.9,269.9c-0.1,1.7-0.2,3.4-0.3,5.1c-0.9,18.7,1.4,37.5-1.8,56.1c-4.5,26-19.7,49.1-22,75.3
				c7.1-3.5,30.8-4.4,32.9-4.5c14.4-1,28.7,0.5,43,2.5c28.5,4,57.4,10.9,86.3,6.7c9-1.3,28-3.1,35.2-9c6.5-5.4-1.9-20.7-5.3-28.1
				c-20.1-43.5-40-87.6-59.2-131.5c-2.7-6.1-4-13.4-8-18.7c-11.9-15.6-25.9-24.6-44.5-18.9c-13.6,4.1-25.4,12.7-35.4,22.5
				c-5.9,5.7-13.3,12.4-16.5,20.1C379.3,254.3,378.4,262.4,377.9,269.9z"/>
			<path class="st0" d="M369.3,403.2c3-2.1,21.9-7.1,36.1-21.9c9.5-9.8,15.1-23.9,17.9-37c5-22.8,7.9-44.7,8.2-68.1
				c0.1-5,0.1-10-0.3-14.9"/>
			<path class="st0" d="M273.2,197.3c9.6,3.2,17.8,9.7,26.5,15c8.7,5.4,18.7,9.8,28.7,8.2c3.8-0.6,7.5-2,11.1-3.5
				c10-4,20.1-8,30.1-12c-2.8,20.3,0.5,37.6,4.4,61.2c-7.5,2.4-12,1.9-19.8,2.4c-21,1.4-42,2.8-63,4.2c-0.6,38.1-1.2,76.6,6,114.1
				c1.8,9.6,4.2,19.2,5.2,28.9c1.8,18.1-1.3,36.2-4.4,54.1c-26.3-1.6-52.5-4.2-78.6-7.7c8.6-45.1,17.1-90.2,25.7-135.3
				c5.1-26.8-0.8-38.5,1.1-65.7c0.5-7.6-1.5-23.6-3.8-30.8c-4.2-13.2-2.5-29.3-5.2-43C248.9,193.1,261.2,193.3,273.2,197.3z"/>
			<path class="st0" d="M239.3,186.3c4.5-0.6,8.3,3.2,11.2,6.7c1.9,2.2,3.8,4.4,5.6,6.6c0.4,0.5,0.9,1,1,1.7s-0.2,1.5-0.5,2.1
				c-2.3,5.7-3.5,11.9-3.3,18.1"/>
			<path class="st0" d="M213.5,175.4c5.8,11.3,3.8,22.4-0.4,33.7c9.8,7.6,22.6,11.3,35,10.2c-3.9-10.6-4.5-22.5-1.7-33.5
				c0.8-3.1,2-6.1,4-8.7c2.5-3.3,9.5-4,12.4-6.6c4-3.6-2.8-16.2-3.4-17.8c-0.8-1.9,1-2.1,1.5-3.8c0.3-1.1-0.4-2.2-1.2-3
				c-2.1-2.1-3.3-4.4-4.1-7.3c-0.7-2.5-1.1-5-2.3-7.3c-1.6-3.3-4.6-5.7-6.8-8.5c-1.9-2.4-5.3-4.1-8.2-4.9
				c-6.3-1.9-13.4-0.8-18.9,2.6c-0.1,0.1-0.2,0.1-0.3,0.2c-8.4,5.5-12.8,15.8-13.1,25.8C205.6,156.6,209,166.4,213.5,175.4z"/>
			<path class="st0" d="M228.9,168.6c2.8,4.3,4.7,6.9,9.8,7.8c3.4,0.6,12.7-1.3,16.9-2.5"/>
			<path class="st0" d="M237.5,141c1.8-2.2,4-4.1,6.7-5c1.3-0.4,2.8-0.5,4,0.1"/>
			<path class="st0" d="M252.7,135.7c0.5-0.8,1.3-1.3,2.2-1.4"/>
			<path class="st0" d="M241.2,143.7c1.8-1.1,3.8-1.9,5.8-2.3"/>
			<path class="st0" d="M254,139.3c0.4-0.2,2.6-0.2,3-0.1"/>
			<path class="st11" d="M232.7,113.8c5.2,0.4,15.4,3.5,15.6,10.2c0,0.2,0,0.5-0.2,0.6s-0.4,0-0.6-0.1c-4-2.1-7.9-5.4-12.6-5.1
				c-4.5,0.3-7.8,1.6-12,3c-2.5,0.8-5.2,1-7.8,0.6c-0.4-0.1-0.9-0.2-1.2-0.5s-0.4-0.9-0.4-1.4C214,114.3,227.8,113.5,232.7,113.8z"
				/>
			<path class="st1" d="M238.9,209.9c2.3,0.5,4.6,0.8,6.8,0.3c0,0,3.5,6.7,3.9,7.4c1.5,2.4,3.4,4.6,5.6,6.3c2.4,1.9,4.4,2.1,5.7,5
				c1.5,3.1,2.9,6.3,4.2,9.4c5.1,12.5,9,26,8.3,39.7c-0.2,4.2-0.8,8.3-1.9,12.3c-2.1,7.9-6,15.2-8.4,22.9c-5.4,17.2-3,35.3,5.7,51
				c9.4,16.9,23.8,29.3,39,40.7c8.6,6.4,17.5,12.5,26.8,18c3.1,1.9,6.3,3.7,8.9,6.3c10.5,10.6,4.2,25.7,0.3,37.7
				c-3.8,11.8-6.1,23.9-9.3,35.8c-14.8,0.4-59.9,0.8-65.5,0.8c-20.2,0.2-40.8,1.1-60.8-1.5c-4.4-0.6-8.7-1.4-12.9-3
				c-13-5-22.3-16.6-29.7-28.4c-9.2-14.8-16.5-30.7-21.6-47.4c-0.9-3-1.7-6-1.6-9.1c0.2-5.2,3-9.6,5.2-14.1c2.4-4.8,3.9-10,6-15
				c5-11.7,12.4-22.2,17.9-33.6c16.7-34.9,14.3-75.7,22.8-113.5c1.5-6.8,3.6-13.8,8.1-19.1c3.2-3.8,9.3-6.8,13.8-8.9
				c4.3-1.9,9.1-3.1,13.7-2.4C233.1,208.1,236,209.2,238.9,209.9z"/>
			<path class="st0" d="M301.8,230.9c18.7-10.7,35.9-24,51.1-39.4c3.1-3.1,5.9-7.4,10.2-8.9c2-0.7,4.3-0.6,6.4-0.5
				c4.5,0.2,9,0.4,13.6,0.5c0.3,0,0.7,0,1,0.2c0.9,0.4,1,1.7,0.4,2.5c-0.5,0.8-1.5,1.2-2.4,1.6c4.3-0.9,8.7-1.9,13-2.8
				c1.2-0.3,3.2-0.8,4.1,0.3c1,1.2-0.2,2.9-1.4,4c2.2-0.4,4.4-0.7,6.7-0.8c1.5-0.1,3.5,0.3,3.7,1.8c0.3,2.1-3.2,3.9-3.5,6.1
				c-0.1,0.5-0.1,0.9-0.2,1.4c-0.2,0.9-0.8,1.7-1.4,2.4c-5.3,6.2-13.2,9-20.2,12.8c-2.5,1.3-5.4,1.2-8.2,1.6
				c-3.4,0.4-6.9,0.8-10.3,1.1c-2,0.2-4.1,0.5-6,1.1c-4.3,1.4-7.7,4.5-11.1,7.3c-3.2,2.6-6.5,4.9-9.6,7.6c-9,7.7-16.6,16.9-25.2,25
				c-1,1-2.1,1.9-3.1,2.8c-1.8,1.6-3.6,3.1-5.5,4.4c-0.4,0.2-0.7,0.5-1.2,0.5c-0.9,0.1-1.6-0.6-2.2-1.2c-2-2.1-4.1-4.3-5.7-6.8
				s-2.7-5.4-2.7-8.3c0.1-3.8,2-7.2,4.1-10.3C297.9,234.9,299.3,232.4,301.8,230.9z"/>
			<path class="st0" d="M238.6,210.2c0,0.1,0,0.1,0,0.2c0.1,0.7-0.2,1.4-0.5,2c-2.9,6.2-6.3,12.1-10.3,17.6
				c-0.4,0.5-0.8,1.1-1.5,1.2c-0.6,0.1-1.3-0.2-1.8-0.5c-8.4-4.8-34.9-17.5-34.3-29.2c0.4-7.2,10.2-10.9,12.9-17.3
				c0.4-0.9,0.8-1.9,1.7-2.3c1-0.5,2.1,0,3,0.4c3.6,1.8,6.6,4.6,9.6,7.4c6.6,6.2,13.2,12.4,19.8,18.6
				C237.8,208.8,238.4,209.4,238.6,210.2z"/>
			<path class="st0" d="M219.6,201.5c10.2,6,19.4,13.6,30.1,18.7c14.7,7,31.8,8.9,47.6,5.2c9.4-2.2,18.2-6.2,27.5-8.8
				c1.5,17.1,3,38.5,4.5,55.5c-14.9,4.6-28.4,7.7-43.9,9.5c-13.2,1.5-24.1-1.1-37.1-2.7c3.9,16.7,6.8,30,2.8,46.7
				c-1.1,4.5-2.7,8.8-3.7,13.3c-1.6,7.2-1.8,14.6-1.5,21.9c0,18.9,3.5,37.7,4.7,56.5c1.2,18-0.4,35.5-2.1,53.3
				c-0.2,1.9-0.4,3.9-1.4,5.6c-2.3,3.9-7.8,4.4-12.4,4.3c-28.5-0.3-57-0.7-85.5-0.4c-9.2,0.1-18.4,0.2-27.6,0.3
				c-8.3,0.1-15.8-1.2-24.1,0.5c1.9-0.4,6.1-14.3,7-16.5c2.6-6.3,5-12.6,7.3-19c4.2-11.5,10-24.3,11.9-36.4
				c3.7-23.9,8.3-47.2,21.1-68.4c4.3-7.1,9.4-13.8,13.2-21.2c12.9-25.2,7.2-55.9,5.8-83c-0.5-9.8-0.4-20,3.9-28.8
				C177.9,186.9,203.4,192,219.6,201.5z"/>
			<path class="st0" d="M181.2,256.1c18.7,8.9,38.9,14.7,59.5,17"/>
			<path class="st0" d="M141.9,398.5c23.8-38.3,47.8-76.9,63.5-119.2"/>
			<path class="st0" d="M168.8,373.1c8.3,2.7,15.9,7.4,23.7,11.4s16.2,7.4,25,7.5c-1.5,2.2-2.4,4.8-2.5,7.4
				c-11.5-1.4-23.6-3-32.8-10"/>
			<path class="st0" d="M177.4,316.9c-7.4-1.5-14.8-3-22.2-4.5c0,0-3.6,10-7,19.2c7.8,1.8,15.3,4.4,22.6,7.8"/>
			<path class="st0" d="M411.4,177.5c0.6,2,3.4,2.7,5.3,1.8s3.1-2.9,3.9-4.9c1-2.7,1.5-5.8,0.1-8.3"/>
			<path class="st0" d="M215,399.3c-5.5,17.9-13.5,50.6-13.5,50.6"/>
			<path class="st11" d="M230.9,119.8c2.2,3.4-2.3,8.8-3.9,11.9c-3.2,6.2-2.6,12.8-2.4,19.5c0,0.1,0,0.2-0.1,0.3s-0.3,0.1-0.5,0.1
				c-2.1-0.2-4.2,0.5-5.8,1.8c-1.8,1.5-1.9,2.6-2.1,4.8c-1.1,12.3,2.9,26.1,13.5,32.4c-4.4,0.7-8.9,1.4-13.4,0.7
				c-4.4-0.6-8.9-2.8-11.3-6.5c-3.5,1.8-8.1,0.5-10.9-2.3s-4.1-6.8-4.8-10.7c-1.1-7.1-0.3-14.4,2.4-21.1c2.3-5.7,5.8-10.7,8.9-16
				c2.7-4.8,4.7-11.3,9.9-14.1c0.6-0.3,1.3-0.6,1.9-0.9c0.9-0.3,2.4-0.4,3.2-0.9c3.7-1.2,9.4-2.5,13.2-0.7
				C229.8,118.6,230.4,119.2,230.9,119.8z"/>
			<path class="st0" d="M221.7,154.5c-1-0.7-2-1.4-3.2-1.6c-1.2-0.2-2.4-0.2-3,1c-0.4,0.7-0.5,1.6-0.5,2.4c0,2.5,1.3,6.4,3.3,8
				c1.3,1.1,3.4,1.3,4.5,0.1c0.9-1,0.9-2.5,0.8-3.9"/>
			<path class="st0" d="M382.1,187c-11,2.9-24,7.1-24,7.1"/>
			<path class="st12" d="M425.5,176.8c-0.3-1.5-0.7-3-1.5-4.4c-2.8-5.1-9.1-7.8-13.2-11.6c-6.5-6-11.6-13.9-12.5-22.7
				c-1.5-14.1,19.2-20,33.3-18.2s26.3,12.8,30.5,26.4c1.2,3.8,1.8,7.9,1,11.8c-1.1,5.5-4.8,10.3-4.9,16c-0.1,5.3,5.5,7.1,10,8
				c4.1,0.8,8.4,1.2,11.7,3.8c3.5,2.7,4.8,7.4,4.9,11.9c0.1,4.4-0.9,8.8-1.2,13.2s0,9.1,2.5,12.8c2.1,3.1,5.5,5,8.4,7.4
				c2.9,2.3,5.6,5.5,5.5,9.3c-0.1,4.3-3.8,7.6-4.5,11.8c-1.6,9.8,8.7,12.9,11.9,20.6c0.8,2.1,1,4.4,0.5,6.6
				c-0.3,1.2-0.9,2.4-1.9,3.1c-0.6,0.4-1.2,0.6-1.9,0.7c-7.4,1.5-14-3-18.7-8.1c-6.1-6.5-3.2-15.6-8.4-22.5
				c-2.6-3.5-6.9-5.7-8.8-9.7c-2.6-5.1,0.6-10.7-1.6-16.1c-1.7-4.2-5.2-7.3-8.9-9.8c-3.4-2.3-6.6-5.1-10-7.1
				c-4-2.4-8.1-4.6-11.7-7.7c-4.4-3.8-7.9-8.7-9.1-14.4C425.9,184.2,426.2,180.4,425.5,176.8z"/>
			<path class="st13" d="M297.4,227.8c0.8,12.2,2.8,24.4,6,36.3"/>
			<path class="st13" d="M350.2,222.4c0.8,12.5,3.2,25,7,36.9"/>
			<path class="st13" d="M238.9,199.8c-1.3-5.1-1.1-10.5,0.4-15.4"/>
			<path class="st0" d="M369.3,403.2c0,0-10.7,0.8-15.5,3.2"/>
			<path class="st13" d="M230.5,120.1c-0.2-1.2-1.2-2.2-2.3-2.6s-2.4-0.4-3.6-0.4c-3.7,0.1-6.7,1.3-10.3,2.2"/>
		</g>
		<g>
			<circle class="st2" cx="600.9" cy="161.6" r="38.9"/>
			<circle class="st2" cx="600.9" cy="161.6" r="24.6"/>
			<circle class="st1" cx="600.9" cy="161.6" r="13.8"/>
		</g>
		<g>
			<g>
				<path class="st1" d="M352.4,128.6c1.1,20.3-14.4,37.7-34.8,38.9c-7.2,0.4-14.1-1.3-20-4.6l-23.5,5.4l12.4-15
					c-4.5-5.7-7.3-12.8-7.7-20.6c-1.1-20.3,14.4-37.7,34.8-38.9C333.9,92.7,351.3,108.2,352.4,128.6z"/>
				<path class="st4" d="M300.6,123.9h-0.5c-1.3,0-2.3,1-2.3,2.3v11.5c0,1.3,1,2.3,2.3,2.3h0.5c1.3,0,2.3-1,2.3-2.3v-11.5
					C302.9,124.9,301.9,123.9,300.6,123.9z"/>
				<path class="st4" d="M291.8,129h-0.5c-1.3,0-2.3,1-2.3,2.3v0.5c0,1.3,1,2.3,2.3,2.3h0.5c1.3,0,2.3-1,2.3-2.3v-0.5
					C294.1,130,293.1,129,291.8,129z"/>
				<path class="st4" d="M309.2,118h-0.5c-1.3,0-2.3,1-2.3,2.3v23.2c0,1.3,1,2.3,2.3,2.3h0.5c1.3,0,2.3-1,2.3-2.3v-23.2
					C311.5,119,310.5,118,309.2,118z"/>
				<path class="st4" d="M317.8,106.2h-0.5c-1.3,0-2.3,1-2.3,2.3v46.7c0,1.3,1,2.3,2.3,2.3h0.5c1.3,0,2.3-1,2.3-2.3v-46.6
					C320.2,107.3,319.1,106.2,317.8,106.2z"/>
				<path class="st4" d="M326.4,118H326c-1.3,0-2.3,1-2.3,2.3v23.2c0,1.3,1,2.3,2.3,2.3h0.5c1.3,0,2.3-1,2.3-2.3v-23.2
					C328.8,119,327.7,118,326.4,118z"/>
				<path class="st4" d="M335.1,123.9h-0.5c-1.3,0-2.3,1-2.3,2.3v11.5c0,1.3,1,2.3,2.3,2.3h0.5c1.3,0,2.3-1,2.3-2.3v-11.5
					C337.4,124.9,336.4,123.9,335.1,123.9z"/>
			</g>
		</g>
		<circle class="st1" cx="543.6" cy="80" r="27.7"/>
		<circle class="st11" cx="451.9" cy="245.9" r="31.6"/>
		<circle class="st11" cx="529.5" cy="144.5" r="14.1"/>
		<polygon class="st11" points="413.2,223.8 428.9,244 436.9,226.8 		"/>
		<g>
			<path class="st4" d="M472.3,247.7L472.3,247.7c-1.2,0-2.2-1-2.2-2.2l0,0c0-1.2,1-2.2,2.2-2.2l0,0c1.2,0,2.2,1,2.2,2.2l0,0
				C474.5,246.8,473.5,247.7,472.3,247.7z"/>
			<path class="st4" d="M436,252.1L436,252.1c-1.2,0-2.2-1-2.2-2.2v-9.4c0-1.2,1-2.2,2.2-2.2l0,0c1.2,0,2.2,1,2.2,2.2v9.4
				C438.2,251.1,437.2,252.1,436,252.1z"/>
			<path class="st4" d="M443.3,257.1L443.3,257.1c-1.2,0-2.2-1-2.2-2.2v-19.4c0-1.2,1-2.2,2.2-2.2l0,0c1.2,0,2.2,1,2.2,2.2v19.4
				C445.5,256.2,444.5,257.1,443.3,257.1z"/>
			<path class="st4" d="M450.7,252.1L450.7,252.1c-1.2,0-2.2-1-2.2-2.2v-9.4c0-1.2,1-2.2,2.2-2.2l0,0c1.2,0,2.2,1,2.2,2.2v9.4
				C452.9,251.1,451.9,252.1,450.7,252.1z"/>
			<path class="st4" d="M458,264L458,264c-1.2,0-2.2-1-2.2-2.2v-33.2c0-1.2,1-2.2,2.2-2.2l0,0c1.2,0,2.2,1,2.2,2.2v33.2
				C460.2,263.1,459.3,264,458,264z"/>
			<path class="st4" d="M465.4,252.1L465.4,252.1c-1.2,0-2.2-1-2.2-2.2v-9.4c0-1.2,1-2.2,2.2-2.2l0,0c1.2,0,2.2,1,2.2,2.2v9.4
				C467.6,251.1,466.6,252.1,465.4,252.1z"/>
		</g>
		<g>
			<path class="st11" d="M451.5,330.1h-84.4c-2.4,0-4.3-1.9-4.3-4.3l0,0c0-2.4,1.9-4.3,4.3-4.3h84.4c2.4,0,4.3,1.9,4.3,4.3l0,0
				C455.8,328.2,453.8,330.1,451.5,330.1z"/>
			<path class="st11" d="M345.3,330.1L345.3,330.1c-2.4,0-4.3-1.9-4.3-4.3l0,0c0-2.4,1.9-4.3,4.3-4.3l0,0c2.4,0,4.3,1.9,4.3,4.3l0,0
				C349.6,328.2,347.7,330.1,345.3,330.1z"/>
		</g>
		<g>
			<path class="st4" d="M403.1,432.2h34.1c2.4,0,4.3,1.9,4.3,4.3l0,0c0,2.4-1.9,4.3-4.3,4.3h-34.1c-2.4,0-4.3-1.9-4.3-4.3l0,0
				C398.8,434.1,400.8,432.2,403.1,432.2z"/>
			<path class="st4" d="M456,432.2L456,432.2c2.4,0,4.3,1.9,4.3,4.3l0,0c0,2.4-1.9,4.3-4.3,4.3l0,0c-2.4,0-4.3-1.9-4.3-4.3l0,0
				C451.7,434.1,453.7,432.2,456,432.2z"/>
		</g>
		<circle class="st1" cx="59.5" cy="241.9" r="4.9"/>
		<path class="st14" d="M38,425.5h21.4c3.5,0,6.6-2.4,7.3-5.9l5.4-23.8c0.6-2.7,4.6-2.5,4.9,0.3l6.5,57.1c0.3,2.9,4.4,2.9,4.9,0.1
			l6.8-42.6c0.4-2.6,4-2.8,4.8-0.3l2.6,8.4c0.9,3.1,3.8,5.2,7,5.2H142"/>
		<circle class="st1" cx="644.2" cy="356.2" r="4.1"/>
	</g>
	<path class="st14" d="M523.4,357.7h21.4c3.5,0,6.6-2.4,7.3-5.9l5.4-23.8c0.6-2.7,4.6-2.5,4.9,0.3l6.5,57.1c0.3,2.9,4.4,2.9,4.9,0.1
		l6.8-42.6c0.4-2.6,4-2.8,4.8-0.3l2.6,8.4c0.9,3.1,3.8,5.2,7,5.2h32.4"/>
</g>
<g id="Layer_2">
</g>
</svg>
