<?xml version="1.0" encoding="utf-8"?>
<!-- Generator: Adobe Illustrator 24.1.2, SVG Export Plug-In . SVG Version: 6.00 Build 0)  -->
<svg version="1.1" id="Layer_1" xmlns="http://www.w3.org/2000/svg" xmlns:xlink="http://www.w3.org/1999/xlink" x="0px" y="0px"
	 viewBox="0 0 197 197" style="enable-background:new 0 0 197 197;" xml:space="preserve">
<style type="text/css">
	.st0{opacity:0.1;fill:#04A0F4;}
	.st1{fill:#00A1F4;}
	.st2{fill:#FFFFFF;}
</style>
<circle class="st0" cx="98.5" cy="98.5" r="98.5"/>
<circle class="st0" cx="98.5" cy="98.5" r="74.6"/>
<g>
	<path class="st1" d="M100.5,45.2C71,43.6,45.6,66.2,44,95.8c-0.6,10.5,1.9,20.5,6.7,29.1l-17.5,30l31.4-13.8
		c8.3,6.5,18.6,10.6,30,11.2c29.6,1.6,54.9-21,56.5-50.6C152.7,72.2,130.1,46.9,100.5,45.2z"/>
	<path class="st2" d="M76.7,109.3L76.7,109.3c-2,0-3.6-1.6-3.6-3.6V90.5c0-2,1.6-3.6,3.6-3.6h0c2,0,3.6,1.6,3.6,3.6v15.2
		C80.2,107.7,78.6,109.3,76.7,109.3z"/>
	<path class="st2" d="M64.5,102.2L64.5,102.2c-2,0-3.6-1.6-3.6-3.6v0c0-2,1.6-3.6,3.6-3.6h0c2,0,3.6,1.6,3.6,3.6v0
		C68,100.6,66.4,102.2,64.5,102.2z"/>
	<path class="st2" d="M88.6,117.4L88.6,117.4c-2,0-3.6-1.6-3.6-3.6V82.4c0-2,1.6-3.6,3.6-3.6h0c2,0,3.6,1.6,3.6,3.6v31.5
		C92.1,115.8,90.6,117.4,88.6,117.4z"/>
	<path class="st2" d="M100.5,133.7L100.5,133.7c-2,0-3.6-1.6-3.6-3.6v-64c0-2,1.6-3.6,3.6-3.6h0c2,0,3.6,1.6,3.6,3.6v64
		C104.1,132.1,102.5,133.7,100.5,133.7z"/>
	<path class="st2" d="M112.5,117.4L112.5,117.4c-2,0-3.6-1.6-3.6-3.6V82.4c0-2,1.6-3.6,3.6-3.6h0c2,0,3.6,1.6,3.6,3.6v31.5
		C116,115.8,114.4,117.4,112.5,117.4z"/>
	<path class="st2" d="M124.4,109.3L124.4,109.3c-2,0-3.6-1.6-3.6-3.6V90.5c0-2,1.6-3.6,3.6-3.6h0c2,0,3.6,1.6,3.6,3.6v15.2
		C127.9,107.7,126.3,109.3,124.4,109.3z"/>
</g>
</svg>
