<?xml version="1.0" encoding="utf-8"?>
<!-- Generator: Adobe Illustrator 24.1.1, SVG Export Plug-In . SVG Version: 6.00 Build 0)  -->
<svg version="1.1" id="Layer_1" xmlns="http://www.w3.org/2000/svg" xmlns:xlink="http://www.w3.org/1999/xlink" x="0px" y="0px"
	 viewBox="0 0 248.9 248.9" style="enable-background:new 0 0 248.9 248.9;" xml:space="preserve">
<style type="text/css">
	.st0{opacity:0.1;fill:#04A0F4;}
	.st1{fill:#FFFFFF;}
	.st2{fill:#00A1F4;}
</style>
<g>
	<circle class="st0" cx="124.4" cy="124.4" r="124.4"/>
	<circle class="st0" cx="124.4" cy="124.4" r="90.2"/>
	<g>
		<circle class="st1" cx="124.4" cy="124.4" r="55.9"/>
	</g>
</g>
<g>
	<path class="st2" d="M104.7,135.7L104.7,135.7c-2,0-3.6-1.6-3.6-3.6v-15.3c0-2,1.6-3.6,3.6-3.6h0c2,0,3.6,1.6,3.6,3.6v15.3
		C108.3,134.1,106.7,135.7,104.7,135.7z"/>
	<path class="st2" d="M92.5,128.5L92.5,128.5c-2,0-3.6-1.6-3.6-3.6v0c0-2,1.6-3.6,3.6-3.6h0c2,0,3.6,1.6,3.6,3.6v0
		C96,126.9,94.4,128.5,92.5,128.5z"/>
	<path class="st2" d="M116.7,143.8L116.7,143.8c-2,0-3.6-1.6-3.6-3.6v-31.6c0-2,1.6-3.6,3.6-3.6h0c2,0,3.6,1.6,3.6,3.6v31.6
		C120.3,142.2,118.7,143.8,116.7,143.8z"/>
	<path class="st2" d="M128.7,160.1L128.7,160.1c-2,0-3.6-1.6-3.6-3.6V92.3c0-2,1.6-3.6,3.6-3.6l0,0c2,0,3.6,1.6,3.6,3.6v64.3
		C132.3,158.5,130.7,160.1,128.7,160.1z"/>
	<path class="st2" d="M140.7,143.8L140.7,143.8c-2,0-3.6-1.6-3.6-3.6v-31.6c0-2,1.6-3.6,3.6-3.6l0,0c2,0,3.6,1.6,3.6,3.6v31.6
		C144.2,142.2,142.6,143.8,140.7,143.8z"/>
	<path class="st2" d="M152.7,135.7L152.7,135.7c-2,0-3.6-1.6-3.6-3.6v-15.3c0-2,1.6-3.6,3.6-3.6l0,0c2,0,3.6,1.6,3.6,3.6v15.3
		C156.2,134.1,154.6,135.7,152.7,135.7z"/>
</g>
</svg>
