<?xml version="1.0" encoding="utf-8"?>
<!-- Generator: Adobe Illustrator 24.1.1, SVG Export Plug-In . SVG Version: 6.00 Build 0)  -->
<svg version="1.1" id="Layer_1" xmlns="http://www.w3.org/2000/svg" xmlns:xlink="http://www.w3.org/1999/xlink" x="0px" y="0px"
	 viewBox="0 0 234.1 41.1" style="enable-background:new 0 0 234.1 41.1;" xml:space="preserve">
<style type="text/css">
	.st0{fill:#04A0F4;}
</style>
<g id="Layer_2_1_">
	<g id="Layer_1-2">
		<path class="st0" d="M51.7,21c-0.7,0-1.2-0.5-1.3-1.1L49,11.6c-0.2-1.4-1.5-2.3-2.9-2c-1.1,0.2-1.9,1-2.1,2.1l-2.2,16.6
			c-0.1,0.7-0.7,1.2-1.4,1.1c-0.6-0.1-1-0.5-1.1-1.1L36.7,6.4c-0.2-1.3-1.2-2.2-2.5-2.2h-0.2c-1.2,0-2.2,0.8-2.4,2l-1.8,7.8
			c-0.2,0.8-1,1.3-1.8,1.2c-0.6-0.1-1-0.6-1.2-1.2l-1.5-7.7c-0.3-1.4-1.6-2.3-3-2c-1.1,0.2-1.9,1.1-2,2.2l-2.6,21.8
			c-0.1,0.6-0.6,1.1-1.2,1.1c-0.7,0-1.2-0.5-1.3-1.2l-1.6-15.9c-0.2-1.6-1.6-2.8-3.2-2.7C9.2,9.7,8.2,10.7,7.9,12l-1.4,7.8
			c-0.1,0.8-0.8,1.3-1.6,1.3H1.2v1.8H5c1.6,0,3.1-1.2,3.4-2.8l1.4-7.8c0.1-0.5,0.6-0.9,1.1-0.9c0.6,0,1.1,0.4,1.1,1l1.6,15.9
			c0.2,1.7,1.7,2.9,3.3,2.8c1.4-0.1,2.6-1.3,2.8-2.7l2.5-21.8c0-0.4,0.4-0.6,0.7-0.6c0.3,0,0.6,0.2,0.7,0.6l1.5,7.7
			c0.2,1.2,1.2,2.2,2.4,2.6v14c-1.5,0.5-2.3,2.1-1.8,3.6c0.5,1.5,2.1,2.3,3.6,1.8c1.5-0.5,2.3-2.1,1.8-3.6c-0.3-0.8-0.9-1.5-1.8-1.8
			V16.8c1.2-0.3,2.1-1.3,2.3-2.4l1.8-7.8C33.4,6.2,33.7,6,34,6h0.2c0.3,0,0.6,0.3,0.7,0.6l2.6,21.8c0.2,1.7,1.7,2.9,3.4,2.7
			c1.4-0.2,2.5-1.2,2.6-2.6l2.2-16.6c0-0.3,0.3-0.6,0.7-0.6c0.3,0,0.6,0.2,0.7,0.6l1.4,8.3c0.3,1.5,1.6,2.6,3.1,2.6h4.7V21L51.7,21z
			 M28.3,34.5c-0.5,0-1-0.5-1-1c0-0.5,0.5-1,1-1c0.5,0,1,0.4,1,1C29.3,34.1,28.9,34.5,28.3,34.5C28.3,34.5,28.3,34.5,28.3,34.5z"/>
	</g>
</g>
<g id="Layer_2_2_">
	<g id="Layer_1-2_1_">
		<path class="st0" d="M69.3,9H78c6.4,0,10.6,4.2,10.6,10.7s-4.1,11.3-10.8,11.3h-8.5V9z M74,27.2h3.6c4.2,0,6.1-3.1,6.1-7.4
			c0-3.6-1.8-6.9-6.1-6.9H74V27.2z"/>
		<path class="st0" d="M95.7,23.8c0,2.1,1,4.1,3.3,4.1c1.9,0,2.4-0.8,2.9-1.8h4.6c-0.6,2-2.4,5.4-7.5,5.4c-5.5,0-7.8-4.1-7.8-8.4
			c0-5.2,2.7-8.9,8-8.9c5.7,0,7.7,4.1,7.7,8.2c0,0.5-0.1,0.9-0.2,1.3H95.7z M102.1,20.9c0-1.9-0.8-3.5-3-3.5c-2.2,0-3.1,1.6-3.3,3.6
			L102.1,20.9z"/>
		<path class="st0" d="M113.7,23.8c0,2.1,1,4.1,3.3,4.1c1.9,0,2.5-0.8,2.9-1.8h4.6c-0.6,2-2.4,5.4-7.6,5.4c-5.5,0-7.8-4.1-7.8-8.4
			c0-5.2,2.7-8.9,8-8.9c5.7,0,7.7,4.1,7.7,8.2c0,0.5,0,0.9-0.1,1.4H113.7z M120.1,20.9c0-1.9-0.8-3.5-3-3.5c-2.2,0-3.1,1.6-3.3,3.6
			L120.1,20.9z"/>
		<path class="st0" d="M132.5,29.6v7.8h-4.6V18.5c0-1.3,0-2.7,0-4h4.4c0.1,0.7,0.1,1.4,0.2,2.1c1-1.6,2.9-2.6,4.8-2.4
			c3.7,0,6.6,3.1,6.6,8.2c0,5.8-3.2,9.1-7.2,9.1C134.3,31.5,133.1,30.6,132.5,29.6z M139.2,22.5c0-3-1.2-4.8-3.4-4.8
			c-2.6,0-3.5,1.7-3.5,5c0,3.2,0.9,5,3.3,5S139.2,25.9,139.2,22.5L139.2,22.5z"/>
		<path class="st0" d="M149.3,24.9c0.6,2.7,2.4,4.1,5.6,4.1c3.5,0,4.8-1.6,4.8-3.7s-1.1-3.5-5.6-4.6c-5.2-1.3-7.1-3.1-7.1-6.2
			c0-3.3,2.4-5.9,7.4-5.9c5.3,0,7.5,3.1,7.8,6h-3c-0.4-2-1.6-3.6-4.9-3.6c-2.7,0-4.2,1.2-4.2,3.3s1.3,2.9,5.2,3.8
			c6.3,1.5,7.5,4,7.5,6.9c0,3.6-2.7,6.4-8.1,6.4c-5.6,0-8-3.1-8.5-6.5L149.3,24.9z"/>
		<path class="st0" d="M179.7,26.1c-0.7,2.8-2.6,5.3-6.7,5.3c-4.5,0-7.2-3.2-7.2-8.4c0-4.6,2.6-8.6,7.4-8.6c4.7,0,6.3,3.3,6.5,5.4
			h-2.8c-0.3-1.9-1.9-3.2-3.8-3.1c-2.9,0-4.5,2.5-4.5,6.1s1.6,6.2,4.4,6.2c2,0,3.2-1.1,3.8-3L179.7,26.1z"/>
		<path class="st0" d="M183.1,19.3c0-2.3,0-3.5,0-4.4h2.7c0,0.5,0.1,1.7,0.1,3.3c0.9-2.3,3-3.7,5.5-3.7v2.8
			c-3.3,0.1-5.5,1.8-5.5,5.9v7.9h-2.8V19.3z"/>
		<path class="st0" d="M194.1,7.6h2.8v3.5h-2.8V7.6z M194.1,14.9h2.8v16.3h-2.8V14.9z"/>
		<path class="st0" d="M201.6,7.6h2.8v9.6c0.7-1.4,2.2-2.7,5.2-2.7c4.1,0,6.6,3.3,6.6,8.2s-2.5,8.9-7.1,8.9c-2.6,0-3.9-1-4.8-2.5
			c0,0.8-0.1,1.7-0.1,2.1h-2.7c0-1.8,0-3.6,0-5.4L201.6,7.6z M213.4,22.7c0-3.5-1.6-5.8-4.4-5.8c-3.4,0-4.7,2.3-4.7,6.2
			c0,3.4,1.1,6.1,4.5,6.1C211.7,29.1,213.4,26.6,213.4,22.7z"/>
		<path class="st0" d="M221.8,23.5c0,3.3,1.7,5.6,4.4,5.6c1.7,0.2,3.4-0.9,3.9-2.5h2.8c-0.8,3.1-3.7,5.1-6.8,4.9
			c-5.1,0-7.2-4.2-7.2-8.3c0-4.8,2.4-8.7,7.4-8.7c5.2,0,6.9,4.2,6.9,7.7c0,0.5,0,1,0,1.3L221.8,23.5z M230.4,21.5
			c0-2.7-1.4-4.8-4.1-4.8s-4.1,2-4.4,4.8H230.4z"/>
	</g>
</g>
</svg>
