<?xml version="1.0" encoding="utf-8"?>
<!-- Generator: Adobe Illustrator 24.1.2, SVG Export Plug-In . SVG Version: 6.00 Build 0)  -->
<svg version="1.1" id="Layer_1" xmlns="http://www.w3.org/2000/svg" xmlns:xlink="http://www.w3.org/1999/xlink" x="0px" y="0px"
	 viewBox="0 0 190.8 190.8" style="enable-background:new 0 0 190.8 190.8;" xml:space="preserve">
<style type="text/css">
	.st0{opacity:0.1;fill:#04A0F4;}
	.st1{fill:#04A0F4;}
	.st2{fill:none;stroke:#F2F2F2;stroke-width:4;stroke-linecap:round;stroke-miterlimit:10;}
</style>
<circle class="st0" cx="95.4" cy="95.4" r="80"/>
<circle class="st0" cx="95.4" cy="95.4" r="95.4"/>
<circle class="st1" cx="95.4" cy="95.4" r="65.5"/>
<path class="st2" d="M30,101.9h24c2.1,0,4-1.5,4.3-3.6l2.5-13.6c0.3-1.7,1.8-2.9,3.5-2.9h0c1.9,0,3.4,1.4,3.6,3.3l2.7,28
	c0.2,2,1.8,3.5,3.8,3.5l0,0c1.9,0,3.5-1.4,3.8-3.3l4.4-38.4c0.2-1.4,1.4-2.5,2.8-2.5h0c1.3,0,2.5,0.9,2.8,2.3l2.7,46.6
	c0.4,2,2.1,3.4,4.2,3.4h0c2,0,3.7-1.4,4.1-3.3l3.2-46.8c0.3-1.3,1.4-2.2,2.7-2.2h0.3c1.4,0,2.6,1.1,2.8,2.5l4.6,38.4
	c0.2,1.9,1.8,3.3,3.7,3.3h0c1.9,0,3.5-1.4,3.7-3.3l3.9-29.2c0.2-1.4,1.4-2.4,2.8-2.4h0c1.4,0,2.5,1,2.8,2.3l2.5,14.5
	c0.3,1.9,2,3.3,3.9,3.3h24.8"/>
</svg>
