<?xml version="1.0" encoding="utf-8"?>
<!-- Generator: Adobe Illustrator 24.1.3, SVG Export Plug-In . SVG Version: 6.00 Build 0)  -->
<svg version="1.1" id="Layer_1" xmlns="http://www.w3.org/2000/svg" xmlns:xlink="http://www.w3.org/1999/xlink" x="0px" y="0px"
	 viewBox="0 0 325.5 291.7" style="enable-background:new 0 0 325.5 291.7;" xml:space="preserve">
<style type="text/css">
	.st0{fill:#FFFFFF;stroke:#9E9E9E;stroke-miterlimit:10;}
	.st1{fill:#C9C9C7;}
	.st2{opacity:0.5;}
	.st3{opacity:0.1;fill:#04A0F4;enable-background:new    ;}
	.st4{fill:#04A0F4;}
	.st5{fill:none;stroke:#FFFFFF;stroke-width:2;stroke-miterlimit:10;}
	.st6{fill:none;stroke:#04A0F4;stroke-width:2;stroke-miterlimit:10;}
	.st7{fill:#00A1F4;}
	.st8{fill:#FFFFFF;}
	.st9{fill:#FFBE4F;}
</style>
<g id="Layer_1_1_">
	<g id="Layer_3">
	</g>
	<g>
		<path class="st0" d="M298.9,225.7H51.6c-7.2,0-13-5.8-13-13V68.5c0-7.2,5.8-13,13-13h247.3c7.2,0,13,5.8,13,13v144.1
			C312,219.8,306.1,225.7,298.9,225.7z"/>
		<g>
			<g>
				<path class="st0" d="M127.9,253.3H38.1c-9.2,0-16.7-7.5-16.7-16.7V39.4c0-9.2,7.5-16.7,16.7-16.7h89.8c9.2,0,16.7,7.5,16.7,16.7
					v197.2C144.6,245.8,137.1,253.3,127.9,253.3z"/>
				<path class="st1" d="M98,33.2H68.7c-1,0-1.8-0.8-1.8-1.8V31c0-1,0.8-1.8,1.8-1.8H98c1,0,1.8,0.8,1.8,1.8v0.4
					C99.8,32.4,99,33.2,98,33.2z"/>
			</g>
		</g>
		<g>
			<path class="st0" d="M194.7,22.7H192c-7,0-12.7,5.7-12.7,12.7v205.2c0,7,5.7,12.7,12.7,12.7h2.7c7,0,12.7-5.7,12.7-12.7V35.4
				C207.4,28.3,201.7,22.7,194.7,22.7z"/>
			<g class="st2">
			</g>
			<path class="st0" d="M223.5,146.7h-0.4v-17.4h0.4c2,0,3.6,1.6,3.6,3.6v10.2C227.1,145.1,225.5,146.7,223.5,146.7z"/>
			<path class="st0" d="M208,167.1h-29.3c-8.4,0-15.3-6.8-15.3-15.3v-29.3c0-8.4,6.8-15.3,15.3-15.3H208c8.4,0,15.3,6.8,15.3,15.3
				v29.3C223.2,160.3,216.4,167.1,208,167.1z"/>
			<circle class="st0" cx="193.8" cy="35.5" r="2.2"/>
			<circle class="st0" cx="193.8" cy="44.4" r="2.2"/>
			<circle class="st0" cx="193.8" cy="53.3" r="2.2"/>
		</g>
		<g>
			<circle class="st3" cx="83.1" cy="137.2" r="70.2"/>
			<circle class="st3" cx="83.1" cy="137.2" r="50.9"/>
			<g>
				<circle class="st4" cx="83.1" cy="137.2" r="31.5"/>
			</g>
		</g>
		<g>
			<circle class="st3" cx="192.8" cy="137.2" r="32.9"/>
			<circle class="st3" cx="192.8" cy="137.2" r="23.8"/>
			<g>
				<circle class="st4" cx="192.8" cy="137.2" r="14.8"/>
			</g>
		</g>
		<circle class="st5" cx="83.1" cy="137.2" r="7.3"/>
		<circle class="st5" cx="192.8" cy="137.2" r="5.2"/>
		<line class="st5" x1="83.1" y1="129.9" x2="83.1" y2="105.7"/>
		<line class="st5" x1="192.8" y1="132" x2="192.8" y2="122.4"/>
		<path class="st6" d="M83,105.7V87.1c0-3.6,3-6.6,6.6-6.6h103.2"/>
		<line class="st6" x1="192.8" y1="122.4" x2="192.8" y2="80.5"/>
		<circle class="st3" cx="283.9" cy="80.5" r="21"/>
		<circle class="st4" cx="283.9" cy="80.5" r="7.7"/>
		<circle class="st3" cx="283.9" cy="80.5" r="14.8"/>
	</g>
</g>
<g id="Layer_2_1_">
	<circle class="st3" cx="269.7" cy="224.3" r="53.7"/>
	
		<ellipse transform="matrix(0.1602 -0.9871 0.9871 0.1602 5.0951 454.5886)" class="st3" cx="269.7" cy="224.3" rx="40.7" ry="40.7"/>
	<g>
		<path class="st7" d="M270.9,195.2c-16.1-0.9-30,11.5-30.9,27.6c-0.3,5.7,1,11.2,3.7,15.9l-9.5,16.4l17.1-7.5
			c4.5,3.5,10.2,5.8,16.3,6.1c16.1,0.9,30-11.5,30.9-27.6S287,196.1,270.9,195.2z"/>
		<path class="st8" d="M257.8,230.2L257.8,230.2c-1.1,0-1.9-0.9-1.9-1.9V220c0-1.1,0.9-1.9,1.9-1.9l0,0c1.1,0,1.9,0.9,1.9,1.9v8.3
			C259.8,229.3,258.9,230.2,257.8,230.2z"/>
		<path class="st8" d="M251.2,226.3L251.2,226.3c-1.1,0-1.9-0.9-1.9-1.9l0,0c0-1.1,0.9-1.9,1.9-1.9l0,0c1.1,0,1.9,0.9,1.9,1.9l0,0
			C253.1,225.5,252.3,226.3,251.2,226.3z"/>
		<path class="st8" d="M264.3,234.6L264.3,234.6c-1.1,0-1.9-0.9-1.9-1.9v-17.2c0-1.1,0.9-1.9,1.9-1.9l0,0c1.1,0,1.9,0.9,1.9,1.9
			v17.2C266.3,233.8,265.4,234.6,264.3,234.6z"/>
		<path class="st8" d="M270.9,243.5L270.9,243.5c-1.1,0-1.9-0.9-1.9-1.9v-34.9c0-1.1,0.9-1.9,1.9-1.9l0,0c1.1,0,1.9,0.9,1.9,1.9
			v34.9C272.8,242.6,271.9,243.5,270.9,243.5z"/>
		<path class="st8" d="M277.4,234.6L277.4,234.6c-1.1,0-1.9-0.9-1.9-1.9v-17.2c0-1.1,0.9-1.9,1.9-1.9l0,0c1.1,0,1.9,0.9,1.9,1.9
			v17.2C279.3,233.8,278.4,234.6,277.4,234.6z"/>
		<path class="st8" d="M283.9,230.2L283.9,230.2c-1.1,0-1.9-0.9-1.9-1.9V220c0-1.1,0.9-1.9,1.9-1.9l0,0c1.1,0,1.9,0.9,1.9,1.9v8.3
			C285.8,229.3,284.9,230.2,283.9,230.2z"/>
	</g>
</g>
<g id="Layer_3_1_">
	<g>
		<circle class="st9" cx="176.1" cy="217" r="21.7"/>
		<polygon class="st9" points="201.4,234.1 191.7,219.5 179.9,230.8 		"/>
		<g>
			<path class="st8" d="M189.5,218.4L189.5,218.4c-0.8,0-1.5-0.7-1.5-1.5l0,0c0-0.8,0.7-1.5,1.5-1.5l0,0c0.8,0,1.5,0.7,1.5,1.5l0,0
				C191,217.8,190.3,218.4,189.5,218.4z"/>
			<path class="st8" d="M164.5,221.5L164.5,221.5c-0.8,0-1.5-0.7-1.5-1.5v-6.4c0-0.8,0.7-1.5,1.5-1.5l0,0c0.8,0,1.5,0.7,1.5,1.5v6.4
				C166,220.8,165.3,221.5,164.5,221.5z"/>
			<path class="st8" d="M169.6,224.9L169.6,224.9c-0.8,0-1.5-0.7-1.5-1.5v-13.3c0-0.8,0.7-1.5,1.5-1.5l0,0c0.8,0,1.5,0.7,1.5,1.5
				v13.3C171.1,224.3,170.4,224.9,169.6,224.9z"/>
			<path class="st8" d="M174.6,221.5L174.6,221.5c-0.8,0-1.5-0.7-1.5-1.5v-6.4c0-0.8,0.7-1.5,1.5-1.5l0,0c0.8,0,1.5,0.7,1.5,1.5v6.4
				C176.1,220.8,175.5,221.5,174.6,221.5z"/>
			<path class="st8" d="M179.7,229.6L179.7,229.6c-0.8,0-1.5-0.7-1.5-1.5v-22.7c0-0.8,0.7-1.5,1.5-1.5l0,0c0.8,0,1.5,0.7,1.5,1.5
				v22.7C181.2,229,180.5,229.6,179.7,229.6z"/>
			<path class="st8" d="M184.7,221.5L184.7,221.5c-0.8,0-1.5-0.7-1.5-1.5v-6.4c0-0.8,0.7-1.5,1.5-1.5l0,0c0.8,0,1.5,0.7,1.5,1.5v6.4
				C186.2,220.8,185.6,221.5,184.7,221.5z"/>
		</g>
	</g>
</g>
<g>
	<g id="Layer_2_2_">
		<g id="Layer_1-2_1_">
			<path class="st4" d="M263.3,79.4c-0.7,0-1.3-0.5-1.4-1.2l-1.5-8.8c-0.3-1.5-1.6-2.4-3.1-2.2c-1.1,0.2-2,1.1-2.2,2.3l-2.4,17.7
				c-0.1,0.7-0.7,1.2-1.5,1.1c-0.6-0.1-1.1-0.5-1.1-1.1l-2.8-23.2c-0.2-1.3-1.3-2.4-2.7-2.4h-0.2c-1.2,0-2.3,0.9-2.6,2.1l-1.9,8.3
				c-0.2,0.9-1,1.4-1.9,1.2c-0.6-0.1-1.1-0.6-1.2-1.2l-1.6-8.2c-0.3-1.5-1.7-2.4-3.1-2.1c-1.1,0.2-2,1.2-2.2,2.3l-2.7,23.2
				c-0.1,0.7-0.7,1.2-1.3,1.2c-0.7,0-1.3-0.5-1.3-1.2L223,70.1c-0.2-1.7-1.7-3-3.4-2.8c-1.4,0.1-2.5,1.2-2.8,2.5l-1.5,8.3
				c-0.2,0.8-0.8,1.4-1.7,1.4h-32.9v1.9h32.9c1.8,0,3.3-1.3,3.6-3l1.5-8.3c0.1-0.6,0.6-1,1.2-1c0.6,0,1.2,0.5,1.2,1.1l1.7,16.9
				c0.2,1.8,1.8,3.1,3.6,3c1.5-0.1,2.8-1.3,3-2.9l2.7-23.2c0-0.4,0.4-0.7,0.8-0.6c0.4,0,0.7,0.2,0.7,0.6l1.6,8.2
				c0.3,1.3,1.2,2.4,2.5,2.7v14.9c-1.6,0.5-2.4,2.2-1.9,3.8c0.5,1.6,2.2,2.4,3.8,1.9c1.6-0.5,2.4-2.2,1.9-3.8
				c-0.3-0.9-1-1.6-1.9-1.9V74.9c1.2-0.3,2.2-1.3,2.5-2.6l1.9-8.3c0.1-0.3,0.4-0.6,0.7-0.6h0.2c0.4,0,0.7,0.3,0.7,0.6l2.8,23.2
				c0.2,1.8,1.9,3,3.6,2.8c1.5-0.2,2.6-1.3,2.8-2.8l2.4-17.7c0-0.4,0.4-0.6,0.7-0.6c0.4,0,0.7,0.3,0.7,0.6l1.5,8.8
				c0.3,1.6,1.7,2.8,3.3,2.8H287v-1.9L263.3,79.4z M238.5,93.8c-0.6,0-1.1-0.5-1-1.1s0.5-1.1,1.1-1c0.6,0,1,0.5,1,1.1
				C239.6,93.3,239.1,93.8,238.5,93.8C238.5,93.8,238.5,93.8,238.5,93.8z"/>
		</g>
	</g>
</g>
</svg>
