<?xml version="1.0"?>
<svg xmlns="http://www.w3.org/2000/svg" xmlns:xlink="http://www.w3.org/1999/xlink" version="1.1" id="Capa_1" x="0px" y="0px" viewBox="0 0 472.612 472.612" style="enable-background:new 0 0 472.612 472.612;" xml:space="preserve" width="512px" height="512px"><g><g>
	<g>
		<path d="M393.501,159.361c-9.079,0-17.501,2.881-24.44,7.775c-4.636-18.892-21.525-32.937-41.599-32.937    c-10.077,0-19.347,3.548-26.673,9.463c-6.583-15.417-21.747-26.237-39.364-26.237c-8.534,0-16.486,2.548-23.173,6.917V43.396    C238.252,19.467,219.023,0,195.388,0c-23.637,0-42.865,19.467-42.865,43.396v220.453l-24.736-23.27    c-11.197-11.253-26.028-17.442-41.799-17.442c-0.05,0-0.1,0-0.15,0c-15.89,0.039-30.806,6.356-41.999,17.787    c-10.16,10.374-10.117,27.212,0.094,37.537l146.118,147.685c26.813,29.535,64.836,46.468,104.394,46.468    c78.256,0,141.921-64.618,141.921-144.045v-75.487v-8.388v-41.937C436.366,178.828,417.137,159.361,393.501,159.361z     M416.673,244.693v8.388v75.487c0,68.568-54.832,124.353-122.229,124.353c-34.136,0-66.963-14.682-90.063-40.28    c-0.065-0.072-0.136-0.133-0.202-0.203c-0.039-0.041-0.072-0.084-0.111-0.124L57.932,264.611c-2.695-2.725-2.706-7.171-0.024-9.91    c7.471-7.63,17.408-11.846,27.979-11.872c0.034,0,0.065,0,0.099,0c10.531,0,20.448,4.163,27.931,11.729    c0.083,0.084,0.167,0.166,0.253,0.247l41.452,38.997c2.862,2.692,7.049,3.424,10.654,1.867c3.605-1.559,5.939-5.111,5.939-9.039    V43.396c0-13.07,10.395-23.704,23.173-23.704c12.777,0,23.172,10.634,23.172,23.704v117.423v25.162v8.388    c0,5.438,4.409,9.846,9.846,9.846s9.846-4.409,9.846-9.846v-8.388v-25.162c0-13.07,10.395-23.703,23.173-23.703    s23.173,10.633,23.173,23.703v16.775v33.55c0,5.438,4.409,9.846,9.846,9.846s9.846-4.409,9.846-9.846v-33.55    c0-13.07,10.395-23.704,23.172-23.704c12.778,0,23.173,10.634,23.173,23.704v50.324c0,5.438,4.409,9.846,9.846,9.846    s9.846-4.409,9.846-9.846v-25.162c0-13.07,10.395-23.704,23.173-23.704c12.777,0,23.172,10.634,23.172,23.704V244.693z" data-original="#000000" class="active-path" data-old_color="#000000" fill="#FFFFFF"/>
	</g>
</g></g> </svg>
