<?xml version="1.0" encoding="utf-8"?>
<!-- Generator: Adobe Illustrator 24.1.1, SVG Export Plug-In . SVG Version: 6.00 Build 0)  -->
<svg version="1.1" xmlns="http://www.w3.org/2000/svg" xmlns:xlink="http://www.w3.org/1999/xlink" x="0px" y="0px"
	 viewBox="0 0 1920 1080" style="enable-background:new 0 0 1920 1080;" xml:space="preserve">
<style type="text/css">
	.st0{fill:none;stroke:#C9C9C9;stroke-miterlimit:10;}
</style>
<g id="_x31_">
	<path class="st0" d="M1949.5,840.5c0,0-461,179-961-38s-1016-22-1016-22"/>
	<path class="st0" d="M1949.5,740.5c0,0-461,179-961-38s-1016-22-1016-22"/>
	<path class="st0" d="M1949.5,640.5c0,0-461,179-961-38s-1016-22-1016-22"/>
	<path class="st0" d="M1949.5,540.5c0,0-461,179-961-38s-1016-22-1016-22"/>
	<path class="st0" d="M1949.5,440.5c0,0-461,179-961-38s-1016-22-1016-22"/>
	<path class="st0" d="M1949.5,340.5c0,0-461,179-961-38s-1016-22-1016-22"/>
	<path class="st0" d="M1949.5,240.5c0,0-461,179-961-38s-1016-22-1016-22"/>
</g>
<g id="_x32_">
	<path class="st0" d="M-31.4,921.9c0,0,457.6,187.4,961.5-20.4s1016.2-3.4,1016.2-3.4"/>
	<path class="st0" d="M-29.6,821.9c0,0,457.6,187.4,961.5-20.4s1016.2-3.4,1016.2-3.4"/>
	<path class="st0" d="M-27.8,721.9c0,0,457.6,187.4,961.5-20.4s1016.2-3.4,1016.2-3.4"/>
	<path class="st0" d="M-25.9,621.9c0,0,457.6,187.4,961.5-20.4s1016.2-3.4,1016.2-3.4"/>
	<path class="st0" d="M-24.1,521.9c0,0,457.6,187.4,961.5-20.4s1016.2-3.4,1016.2-3.4"/>
	<path class="st0" d="M-22.3,422c0,0,457.6,187.4,961.5-20.4s1016.2-3.4,1016.2-3.4"/>
	<path class="st0" d="M-20.4,322c0,0,457.6,187.4,961.5-20.4s1016.2-3.4,1016.2-3.4"/>
</g>
</svg>
