<?xml version="1.0" encoding="utf-8"?>
<!-- Generator: Adobe Illustrator 24.1.1, SVG Export Plug-In . SVG Version: 6.00 Build 0)  -->
<svg version="1.1" id="Layer_1" xmlns="http://www.w3.org/2000/svg" xmlns:xlink="http://www.w3.org/1999/xlink" x="0px" y="0px"
	 viewBox="0 0 60.2 60.2" style="enable-background:new 0 0 60.2 60.2;" xml:space="preserve">
<style type="text/css">
	.st0{fill:#04A0F4;}
	.st1{fill:#FFFFFF;}
</style>
<g>
	<circle class="st0" cx="30.1" cy="30.1" r="30.1"/>
	<g>
		<g>
			<path class="st1" d="M34.1,27.2c0-7.9,2.2-9.3,4.7-9.3c5.7,0,11.2,7.4,12.8,14.4s2.5,14.6-6.9,14.6c-12.7,0-10.6-7.1-10.6-11.1
				S34.1,27.2,34.1,27.2z"/>
		</g>
		<g>
			<path class="st1" d="M26.8,27.2c0-7.9-2.2-9.3-4.7-9.3c-5.7,0-11.2,7.4-12.8,14.4s-2.5,14.6,6.9,14.6c12.2,0,10.6-7.1,10.6-11.1
				S26.8,27.2,26.8,27.2z"/>
		</g>
		<g>
			<path class="st1" d="M40.3,30.7c-7.4-2.9-11.1-6.4-11.1-10.8V8.6H31v11.3c0,3.5,3.3,6.5,9.9,9.1L40.3,30.7z"/>
		</g>
		<g>
			<path class="st1" d="M19.9,30.7L19.3,29c6.7-2.6,9.9-5.6,9.9-9.1V8.6H31v11.3C31,24.2,27.3,27.8,19.9,30.7z"/>
		</g>
	</g>
</g>
</svg>
