<?xml version="1.0" encoding="utf-8"?>
<!-- Generator: Adobe Illustrator 24.1.2, SVG Export Plug-In . SVG Version: 6.00 Build 0)  -->
<svg version="1.1" id="Capa_1" xmlns="http://www.w3.org/2000/svg" xmlns:xlink="http://www.w3.org/1999/xlink" x="0px" y="0px"
	 viewBox="0 0 229 229" style="enable-background:new 0 0 229 229;" xml:space="preserve">
<style type="text/css">
	.st0{fill:#3CCC79;stroke:#2FA860;stroke-width:15;stroke-miterlimit:10;}
	.st1{fill:#FFFFFF;}
</style>
<g id="Layer_2">
	<circle class="st0" cx="114.5" cy="114.5" r="98.4"/>
</g>
<path class="st1" d="M125.1,103.9h-21.1c-6.3,0-10.6-4.2-10.6-10.6c0-6.3,4.2-10.6,10.6-10.6h31.7c6.3,0,10.6-4.2,10.6-10.6
	c0-6.3-4.2-10.6-10.6-10.6h-10.6c0-6.3-4.2-10.6-10.6-10.6c-6.3,0-10.6,4.2-10.6,10.6c-17.9,0-31.7,13.7-31.7,31.7
	s13.7,31.7,31.7,31.7h21.1c6.3,0,10.6,4.2,10.6,10.6c0,6.3-4.2,10.6-10.6,10.6H93.4c-6.3,0-10.6,4.2-10.6,10.6
	c0,6.3,4.2,10.6,10.6,10.6h10.6c0,6.3,4.2,10.6,10.6,10.6c6.3,0,10.6-4.2,10.6-10.6c17.9,0,31.7-13.7,31.7-31.7
	S143,103.9,125.1,103.9z"/>
</svg>
