<?xml version="1.0" encoding="utf-8"?>
<!-- Generator: Adobe Illustrator 24.1.1, SVG Export Plug-In . SVG Version: 6.00 Build 0)  -->
<svg version="1.1" id="Layer_1" xmlns="http://www.w3.org/2000/svg" xmlns:xlink="http://www.w3.org/1999/xlink" x="0px" y="0px"
	 viewBox="0 0 119.1 108.7" style="enable-background:new 0 0 119.1 108.7;" xml:space="preserve">
<style type="text/css">
	.st0{fill:#FFBE4F;}
	.st1{fill:#FFFFFF;}
</style>
<g>
	<g>
		<path class="st0" d="M119.1,0L87.5,13.3C79.2,6.6,69,2.3,57.7,1.5C28.1-0.7,2.3,21.5,0.1,51.1c-2.2,29.6,20,55.3,49.6,57.5
			c29.6,2.2,55.3-20,57.5-49.6c0.8-10.5-1.5-20.6-6.2-29.2L119.1,0z"/>
	</g>
	<g>
		<path class="st1" d="M91.4,58.5L91.4,58.5c-2.5,0-4.5-2-4.5-4.5v0c0-2.5,2-4.5,4.5-4.5h0c2.5,0,4.5,2,4.5,4.5v0
			C95.8,56.5,93.8,58.5,91.4,58.5z"/>
		<path class="st1" d="M16.9,67.4L16.9,67.4c-2.5,0-4.5-2-4.5-4.5V43.7c0-2.5,2-4.5,4.5-4.5h0c2.5,0,4.5,2,4.5,4.5V63
			C21.4,65.4,19.4,67.4,16.9,67.4z"/>
		<path class="st1" d="M32,77.7L32,77.7c-2.5,0-4.5-2-4.5-4.5V33.4c0-2.5,2-4.5,4.5-4.5h0c2.5,0,4.5,2,4.5,4.5v39.8
			C36.5,75.7,34.5,77.7,32,77.7z"/>
		<path class="st1" d="M47.1,67.4L47.1,67.4c-2.5,0-4.5-2-4.5-4.5l0-19.2c0-2.5,2-4.5,4.5-4.5h0c2.5,0,4.5,2,4.5,4.5V63
			C51.6,65.4,49.6,67.4,47.1,67.4z"/>
		<path class="st1" d="M62.2,91.8L62.2,91.8c-2.5,0-4.5-2-4.5-4.5v-68c0-2.5,2-4.5,4.5-4.5h0c2.5,0,4.5,2,4.5,4.5v68
			C66.7,89.8,64.6,91.8,62.2,91.8z"/>
		<path class="st1" d="M77.2,67.4L77.2,67.4c-2.5,0-4.5-2-4.5-4.5V43.7c0-2.5,2-4.5,4.5-4.5h0c2.5,0,4.5,2,4.5,4.5V63
			C81.7,65.4,79.7,67.4,77.2,67.4z"/>
	</g>
</g>
</svg>
