<?xml version="1.0" encoding="utf-8"?>
<!-- Generator: Adobe Illustrator 24.1.1, SVG Export Plug-In . SVG Version: 6.00 Build 0)  -->
<svg version="1.1" id="Layer_1" xmlns="http://www.w3.org/2000/svg" xmlns:xlink="http://www.w3.org/1999/xlink" x="0px" y="0px"
	 viewBox="0 0 300 300" style="enable-background:new 0 0 300 300;" xml:space="preserve">
<style type="text/css">
	.st0{fill:none;}
	.st1{fill:#FEBE4F;}
	.st2{clip-path:url(#SVGID_2_);}
	.st3{fill:#FFFFFF;stroke:#000000;stroke-miterlimit:10;}
	.st4{fill:none;stroke:#000000;stroke-miterlimit:10;}
</style>
<path class="st0" d="M-67-404.7"/>
<g>
	<circle class="st1" cx="149.7" cy="150.6" r="146.6"/>
	<g>
		<g>
			<defs>
				<circle id="SVGID_1_" cx="149.7" cy="150.6" r="146.6"/>
			</defs>
			<clipPath id="SVGID_2_">
				<use xlink:href="#SVGID_1_"  style="overflow:visible;"/>
			</clipPath>
			<g class="st2">
				<path class="st3" d="M126.8,180c-0.7,1.9-1.4,3.9-2.1,5.9c-5.1,13.8-15.1,25.9-28.1,33.1c-10.5,5.8-22.3,8.6-33,14
					c-13.3,6.8-18,15.6-19.1,30.4c-0.5,6.5-0.1,13.3,2.3,19.4c3.9,9.8,12.8,16.8,21.9,22.2c34.5,20.3,76.9,23.1,116.5,16.9
					c7.7-1.2,15.7-2.9,21.9-7.7c10.8-8.5,12.7-23.9,12.5-37.6c-0.2-12.6-1.6-25.5-6.8-37.1c-3.6-8-6.9-9-14.2-12.3
					c-8.5-3.8-16.6-9.8-24.1-15.4c-2.2-1.6-4.4-3.5-4.9-6.2c-0.4-2.4,0.8-4.8,2-6.9c3.9-6.7,8.5-13.1,13.6-18.9
					c-0.9,1,15.7,2,16.7,1.9c6.6-0.4,13.1-1,19-4.4c6.2-4.6,9.2-13.8,7.7-21.5c-4.6-29.2-9.3-67-32.3-80
					c-13.8-6.2-30.8-3.1-46.1-3.1c-12.3,1.5-24.6,4.6-32.3,15.4c-7.7,9.2-12.3,21.5-10.8,33.8c1.5,10.8,6.2,18.5,15.4,26.1
					C132.4,158.2,130.8,168.5,126.8,180z"/>
				<path class="st3" d="M157.1,161.8c-0.8,1.5-2.5,2.5-4.2,2.5c-1.3,0-2.6-0.5-3.7-1.2c-5.3-3.1-8.6-9-9.4-15
					c-0.3-2.4-0.3-5,0.7-7.2s3.3-4,5.8-3.8c1.1,0.1,2.1,0.5,3,0.9c3,1.3,6,2.7,8.9,4.3"/>
				<path class="st3" d="M179.2,247.9c2.2-3.7,2.7-8.4,2.7-12.9c0-10.4-4.5-16.6-9.1-25.4c1.5,2.9,23.1,3.6,26.8,4.6
					c13.1,3.8,25.9,11.4,35.1,21.4c7.4,8.1,14.8,16.5,19.5,26.4c0,0.1-33.5,27.4-36.1,29.5c-0.5,0.4-1.1,0.9-1.3,1.5
					c-0.3,0.8,0,1.6,0.2,2.3c3.9,11.5,4.5,19,4.1,31c-0.4,11.9-2.2,24-5.6,35.4c-3.2,11.4-7.8,22.5-9.9,34.1
					c-2.8,16.3-0.4,33.6,6.8,48.5c-5.4-11-81.5,13.8-90.2,16.6c-15,4.9-29.7,10.6-44.2,16.9c-12.6,5.5-30.6,12.3-41.5,21.1
					c5.5-40.1-0.2-189,2.1-228.7c0.5-8.2,1.5-16.5,5.2-23.8c10.3-20.2,33.2-23.9,53-28.4c0.3-0.1,0.6-0.1,0.8,0
					c0.4,0.1,0.6,0.6,0.8,1c6.2,15.4,19.5,24.9,34.3,31.1c10.6,4.4,22.4,6.6,33.8,4.6c4-0.7,8.1-2,10.9-4.9
					C178.2,249.4,178.7,248.7,179.2,247.9z"/>
				<path class="st4" d="M206.2,181.6c-12,0.6-24.2-1.5-35.3-6.1"/>
				<path class="st3" d="M170.2,201.4c-6.7,12.4-8.5,25.1-6.7,32.4"/>
				<path d="M203.8,81.5c-1.9-8.3-3.2-17.4-9.6-23.6c-9.7-9.3-24.5-10.4-37.9-10c-18.3,0.6-37.7,7.5-45.8,25.5
					c-2.5,5.5-3.7,11.7-7.2,16.7c-8,11.1-25.9,13.3-31,26.1c-6.5,16.2,10.9,36.1,2.3,51.4c-4.5,8.1-16.4,7.6-24,13
					c-6.7,4.7-9.2,13.7-8.4,21.8c0.7,6.8,3.8,12.3,6,18.7c1.5,4.4,1.7,9.1,3.5,13.5c16.2-1.6,31.1-6.1,47.7-4.5
					c6.4,0.6,13,1.7,19.1-0.2c18.6-5.9,8.6-39.4,11.3-53.8c1-5.4,3.1-10.6,6.2-15.3c2.1-3.2,5.8-6.3,7.4-9.7c1.2-2.5,0.5-4.9,3-6.9
					c3.2-2.6,8.2-1.7,12-1.6c5.3,0.1,10.7,1.2,15.6,3.2c-2.9-12.1,1.1-25.6,10.2-34.2c1.5-1.4,3.1-2.8,3.7-4.7
					c0.3-1.1,0.2-2.2,0.1-3.3c-0.4-7.1,1-17.2,7.9-20.9c3.1-1.7,5.1-0.5,8.2-0.6C203.9,81.9,203.9,81.7,203.8,81.5z"/>
			</g>
		</g>
	</g>
	<circle class="st4" cx="149.7" cy="150.6" r="146.6"/>
</g>
</svg>
