<?xml version="1.0" encoding="utf-8"?>
<!-- Generator: Adobe Illustrator 24.1.3, SVG Export Plug-In . SVG Version: 6.00 Build 0)  -->
<svg version="1.1" id="Layer_1" xmlns="http://www.w3.org/2000/svg" xmlns:xlink="http://www.w3.org/1999/xlink" x="0px" y="0px"
	 viewBox="0 0 432.8 432.8" style="enable-background:new 0 0 432.8 432.8;" xml:space="preserve">
<style type="text/css">
	.st0{opacity:0.1;fill:#04A0F4;enable-background:new    ;}
	.st1{opacity:4.000000e-02;fill:#04A0F4;enable-background:new    ;}
	.st2{fill:#04A0F4;}
	.st3{fill:#F2F2F2;}
</style>
<g id="Layer_1_1_">
	<g id="Layer_12">
	</g>
	<g id="Layer_2_1_">
		<circle class="st0" cx="216.4" cy="216.4" r="164.7"/>
		<circle class="st1" cx="216.4" cy="216.4" r="216.4"/>
		<circle class="st0" cx="216.4" cy="216.4" r="111.5"/>
	</g>
	<g id="Layer_10">
		<circle class="st2" cx="217.2" cy="215.1" r="57.2"/>
	</g>
	<g id="Layer_18">
	</g>
</g>
<g id="Layer_2_2_">
</g>
<g>
	<g id="Layer_2_3_">
		<g id="Layer_1-2_1_">
			<path class="st3" d="M255,216.2c-1.1,0-2-0.8-2.1-1.8l-2.2-13.2c-0.4-2.2-2.5-3.6-4.7-3.3c-1.7,0.3-3,1.7-3.3,3.4l-3.5,26.5
				c-0.1,1.1-1.1,1.9-2.2,1.7c-0.9-0.1-1.6-0.8-1.7-1.7l-4.1-34.9c-0.2-2-2-3.5-4-3.5h-0.3c-1.8,0-3.4,1.3-3.8,3.1l-2.9,12.4
				c-0.3,1.3-1.5,2.1-2.8,1.9c-0.9-0.2-1.7-0.9-1.9-1.9l-2.4-12.2c-0.4-2.2-2.5-3.6-4.7-3.2c-1.7,0.3-3,1.7-3.2,3.5l-4.1,34.8
				c-0.1,1-1,1.8-2,1.8c-1,0-1.9-0.8-2-1.8l-2.5-25.4c-0.2-2.6-2.5-4.5-5.1-4.2c-2.1,0.2-3.8,1.8-4.2,3.8l-2.2,12.4
				c-0.2,1.2-1.3,2.1-2.5,2.1h-20.7v2.9h20.7c2.6,0,4.9-1.9,5.4-4.5l2.3-12.4c0.2-0.8,0.9-1.4,1.8-1.4c0.9,0,1.7,0.7,1.8,1.7
				l2.5,25.4c0.2,2.7,2.6,4.7,5.3,4.4c2.3-0.2,4.1-2,4.4-4.3l4-34.8c0.1-0.6,0.6-1,1.1-1c0.5,0,1,0.4,1.1,0.9l2.5,12.2
				c0.4,2,1.8,3.5,3.8,4.1V232c-2.4,0.8-3.6,3.3-2.8,5.7c0.8,2.4,3.3,3.6,5.7,2.8c2.4-0.8,3.6-3.3,2.8-5.7c-0.4-1.3-1.5-2.4-2.8-2.8
				v-22.4c1.9-0.5,3.3-2,3.7-3.9l2.9-12.4c0.1-0.5,0.6-0.9,1.1-0.9h0.3c0.6,0,1,0.4,1.1,1l4.1,34.8c0.3,2.7,2.8,4.6,5.5,4.2
				c2.2-0.3,3.9-2,4.2-4.2l3.6-26.5c0.1-0.5,0.5-1,1.1-1c0.5,0,1,0.4,1.1,0.9l2.2,13.2c0.4,2.4,2.5,4.2,5,4.2h19.5v-2.9L255,216.2z
				 M217.7,237.8c-0.9,0-1.6-0.7-1.6-1.6c0-0.9,0.7-1.6,1.6-1.6c0.9,0,1.6,0.7,1.6,1.6C219.3,237.1,218.6,237.8,217.7,237.8
				C217.7,237.8,217.7,237.8,217.7,237.8z"/>
		</g>
	</g>
</g>
</svg>
