<?xml version="1.0" encoding="utf-8"?>
<!-- Generator: Adobe Illustrator 24.1.1, SVG Export Plug-In . SVG Version: 6.00 Build 0)  -->
<svg version="1.1" id="OBJECTS" xmlns="http://www.w3.org/2000/svg" xmlns:xlink="http://www.w3.org/1999/xlink" x="0px" y="0px"
	 viewBox="0 0 207.7 202.1" style="enable-background:new 0 0 207.7 202.1;" xml:space="preserve">
<style type="text/css">
	.st0{fill:#F4F9FD;}
	.st1{opacity:0.4;}
</style>
<g>
	<g>
		<path class="st0" d="M189,144.6c-3,5.3-7,10.1-11.6,14.1c-35.5,30.5-96.1,26.9-133.2,1.2C15.4,139.9-0.7,108.1,0,73.3
			C0.5,51.2,8.5,30,23.9,15.7c7-6.5,15.4-11.5,25.3-14.5c15.6-4.8,31.7,5.7,42.7,17.7S119,44,131.7,54.3
			c15.8,12.7,35,21.1,48.8,36.3c8.2,9.1,14.2,20.8,14.2,33C194.8,130.9,192.6,138.1,189,144.6z"/>
	</g>
</g>
<g class="st1">
	<g>
		<path class="st0" d="M31.9,189.4c-4.3-4.3-7.9-9.5-10.4-15C1.6,132,21.5,74.6,56.3,45.9c27-22.3,61.9-29.2,95.3-19.1
			c21.1,6.4,39.4,19.9,49,38.6c4.3,8.4,6.9,17.9,7.1,28.2c0.4,16.3-14,29-28.6,36.4c-14.5,7.4-31.5,19.3-44.8,28.8
			c-16.5,11.8-29.8,28-48.2,37.1c-11,5.5-23.8,8.1-35.6,4.8C43.4,198.7,37.1,194.7,31.9,189.4z"/>
	</g>
</g>
</svg>
