<?xml version="1.0" encoding="utf-8"?>
<!-- Generator: Adobe Illustrator 24.1.1, SVG Export Plug-In . SVG Version: 6.00 Build 0)  -->
<svg version="1.1" id="OBJECTS" xmlns="http://www.w3.org/2000/svg" xmlns:xlink="http://www.w3.org/1999/xlink" x="0px" y="0px"
	 viewBox="0 0 223.9 222.4" style="enable-background:new 0 0 223.9 222.4;" xml:space="preserve">
<style type="text/css">
	.st0{fill:#FF695B;}
	.st1{opacity:0.12;}
</style>
<g>
	<g>
		<g>
			<path class="st0" d="M31.4,152.9c-3.1-17.5-1.9-40.5,3.6-63.1c11.4-46.5,41.3-91,90.6-81.9c27.3,5.1,24.5,29.2,37.8,47.8
				c13.2,18.6,42,13.9,55.1,34c3.7,5.6,5.5,12,5.4,18.4c-0.1,8.4-3.5,16.7-10,22.9c-5.4,5.1-11.8,8.8-18.2,12.4
				c-10.5,6-20.7,11.9-30.3,18.8c-16.9,12.1-28,28.7-43.7,41.9c-8.4,7.1-18.6,12.5-29.6,13.5C54.9,221,36.9,184.1,31.4,152.9z"/>
		</g>
	</g>
</g>
<g class="st1">
	<g>
		<g>
			<path class="st0" d="M143.8,206c-17.7,1.6-40.5-1.5-62.6-8.9C35.9,181.9-6.1,148.4,7.1,100c7.3-26.7,31.1-22,50.8-33.7
				c19.6-11.6,17.3-40.7,38.5-52.1c5.9-3.2,12.4-4.4,18.7-3.8c8.4,0.8,16.4,4.9,22,11.9c4.6,5.8,7.8,12.5,10.8,19.2
				c5.1,11,10.2,21.6,16.2,31.8c10.7,17.9,26.3,30.3,38.1,47c6.3,9,10.9,19.6,11,30.6C213.6,188.3,175.4,203.2,143.8,206z"/>
		</g>
	</g>
</g>
</svg>
