<?xml version="1.0" encoding="utf-8"?>
<!-- Generator: Adobe Illustrator 24.1.1, SVG Export Plug-In . SVG Version: 6.00 Build 0)  -->
<svg version="1.1" id="OBJECTS" xmlns="http://www.w3.org/2000/svg" xmlns:xlink="http://www.w3.org/1999/xlink" x="0px" y="0px"
	 viewBox="0 0 198.4 198.7" style="enable-background:new 0 0 198.4 198.7;" xml:space="preserve">
<style type="text/css">
	.st0{fill:#00A1F4;}
	.st1{opacity:0.12;}
</style>
<g>
	<g>
		<path class="st0" d="M185.2,16c3.8,4.8,6.8,10.3,8.8,16.1c15.2,44.3-10.7,99.2-48.3,124.1c-29.2,19.3-64.7,22.5-96.8,8.9
			c-20.3-8.6-37.1-24-44.6-43.6c-3.4-8.8-4.9-18.5-4.1-28.8c1.3-16.2,17-27.4,32.3-33.1c15.2-5.8,33.4-15.9,47.6-23.8
			c17.7-9.9,32.6-24.7,51.8-31.8c11.5-4.3,24.5-5.5,35.9-1C174.7,5.6,180.6,10.2,185.2,16z"/>
	</g>
</g>
<g class="st1">
	<g>
		<path class="st0" d="M31.8,17.6c4.6-4.1,9.9-7.3,15.6-9.5C91-9.3,147.1,13.9,173.7,50.3c20.7,28.2,25.6,63.5,13.5,96.2
			c-7.6,20.7-22.2,38.2-41.4,46.7c-8.6,3.8-18.2,5.8-28.6,5.5c-16.3-0.6-28.2-15.7-34.7-30.6C76,153.2,65,135.5,56.4,121.7
			c-10.8-17.2-26.2-31.4-34.3-50.2c-4.8-11.3-6.7-24.3-2.7-35.9C21.9,28.6,26.3,22.5,31.8,17.6z"/>
	</g>
</g>
</svg>
