<?xml version="1.0" encoding="utf-8"?>
<!-- Generator: Adobe Illustrator 24.1.2, SVG Export Plug-In . SVG Version: 6.00 Build 0)  -->
<svg version="1.1" id="OBJECTS" xmlns="http://www.w3.org/2000/svg" xmlns:xlink="http://www.w3.org/1999/xlink" x="0px" y="0px"
	 viewBox="0 0 160.4 236.7" style="enable-background:new 0 0 160.4 236.7;" xml:space="preserve">
<style type="text/css">
	.st0{fill:#FEBE4F;}
	.st1{opacity:0.12;}
</style>
<g>
	<g>
		<path class="st0" d="M66.8,206.7c-6.1-1.1-11.9-3.2-17.3-6.2C8.9,177.3-8.1,119,3.6,75.4c9.1-33.8,33.6-59.7,66.7-70.7
			c20.9-7,43.7-6.6,62.2,3.1c8.3,4.3,15.9,10.7,22.2,18.9c9.8,13,5.4,31.7-2.3,46.1c-7.6,14.4-14.6,34-19.9,49.3
			c-6.8,19.1-8.1,40.1-17.7,58.2c-5.8,10.9-14.8,20.3-26.3,24.4C81.6,207.6,74.1,208,66.8,206.7z"/>
	</g>
</g>
<g class="st1">
	<g>
		<path class="st0" d="M118.3,236c-6,1.1-12.3,0.8-18.4-0.3c-46.2-8.6-81.2-58.2-84.2-103.2c-2.4-34.9,12.3-67.4,40-88.6
			c17.5-13.5,39.2-20.4,59.9-17.4c9.3,1.4,18.5,4.8,27.1,10.7c13.6,9.2,15.5,28.3,13.1,44.3c-2.5,16.1-2.6,36.9-2.7,53.2
			c-0.1,20.3,5.4,40.5,2.2,60.8c-2.1,12.1-7.4,24.1-16.9,31.8C132.4,232,125.5,234.8,118.3,236z"/>
	</g>
</g>
</svg>
