<?xml version="1.0" encoding="utf-8"?>
<!-- Generator: Adobe Illustrator 24.1.1, SVG Export Plug-In . SVG Version: 6.00 Build 0)  -->
<svg version="1.1" id="OBJECTS" xmlns="http://www.w3.org/2000/svg" xmlns:xlink="http://www.w3.org/1999/xlink" x="0px" y="0px"
	 viewBox="0 0 212.6 201" style="enable-background:new 0 0 212.6 201;" xml:space="preserve">
<style type="text/css">
	.st0{fill:#3DCC7A;}
	.st1{opacity:0.12;}
</style>
<g>
	<g>
		<g>
			<path class="st0" d="M185.9,134.6c-12,13.1-31,26.1-52.3,35.5c-43.8,19.2-97.4,22.5-120.1-22.2c-12.5-24.7,8.3-37.2,15-59
				S14,47.1,22,24.4C24.2,18,28.2,12.7,33.3,9C40,3.9,48.7,1.6,57.5,3c7.3,1.2,14.2,4.1,20.9,6.9c11.1,4.7,22,9.2,33.4,12.6
				c19.9,6.1,39.8,4.8,59.8,9.2c10.7,2.4,21.2,7.2,28.7,15.3C225.7,74.5,207.3,111.3,185.9,134.6z"/>
		</g>
	</g>
</g>
<g class="st1">
	<g>
		<g>
			<path class="st0" d="M101.7,196.1c-17.1-4.9-37.2-16.1-55.1-31C9.9,134.5-17.1,88,12.8,47.8c16.5-22.3,37-9.2,59.5-12.9
				c22.5-3.7,30.9-31.6,54.8-34.6c6.7-0.8,13.2,0.4,18.9,3.2c7.5,3.8,13.5,10.5,16.1,19c2.2,7,2.7,14.5,3.1,21.8
				c0.7,12.1,1.6,23.8,3.6,35.5c3.5,20.5,13.5,37.7,18.4,57.6c2.6,10.7,3,22.2-0.9,32.5C173.2,204.9,132.1,204.9,101.7,196.1z"/>
		</g>
	</g>
</g>
</svg>
