<?xml version="1.0" encoding="utf-8"?>
<!-- Generator: Adobe Illustrator 24.1.1, SVG Export Plug-In . SVG Version: 6.00 Build 0)  -->
<svg version="1.1" id="Layer_1" xmlns="http://www.w3.org/2000/svg" xmlns:xlink="http://www.w3.org/1999/xlink" x="0px" y="0px"
	 viewBox="0 0 1525.3 690.2" style="enable-background:new 0 0 1525.3 690.2;" xml:space="preserve">
<style type="text/css">
	.st0{opacity:0.2;fill:#C9C9C7;}
</style>
<path class="st0" d="M144.8,345.1h47.9c21.2,0,38.3-17.2,38.3-38.3v-9.6c0-21.2,17.2-38.3,38.3-38.3h9.6c21.2,0,38.3,17.2,38.3,38.3
	V393c0,21.2,17.2,38.3,38.3,38.3h9.6c21.2,0,38.3-17.2,38.3-38.3V210.9c0-21.2,17.2-38.3,38.3-38.3h9.6c21.2,0,38.3,17.2,38.3,38.3
	v268.4c0,21.2,17.2,38.3,38.3,38.3h9.6c21.2,0,38.3-17.2,38.3-38.3V297.2c0-21.2,17.2-38.3,38.3-38.3h9.6
	c21.2,0,38.3,17.2,38.3,38.3V393c0,21.2,17.2,38.3,38.3,38.3h0c21.2,0,38.3-17.2,38.3-38.3v-95.9c0-21.2,17.2-38.3,38.3-38.3h9.6
	c21.2,0,38.3,17.2,38.3,38.3v354.7c0,21.2,17.2,38.3,38.3,38.3H883c21.2,0,38.3-17.2,38.3-38.3V38.3c0-21.2,17.2-38.3,38.3-38.3h9.6
	c21.2,0,38.3,17.2,38.3,38.3v527.2c0,21.2,17.2,38.3,38.3,38.3h9.6c21.2,0,38.3-17.2,38.3-38.3v-441c0-21.2,17.2-38.3,38.3-38.3h9.6
	c21.2,0,38.3,17.2,38.3,38.3v364.3c0,21.2,17.2,38.3,38.3,38.3l0,0c21.2,0,38.3-17.2,38.3-38.3V287.6c0-21.2,17.2-38.3,38.3-38.3
	h19.2c21.2,0,38.3,17.2,38.3,38.3V393c0,21.2,17.2,38.3,38.3,38.3l0,0c21.2,0,38.3-17.2,38.3-38.3v-9.6c0-21.2,17.2-38.3,38.3-38.3
	h57.5H0"/>
</svg>
