<?xml version="1.0" encoding="utf-8"?>
<!-- Generator: Adobe Illustrator 24.1.1, SVG Export Plug-In . SVG Version: 6.00 Build 0)  -->
<svg version="1.1" id="Layer_1" xmlns="http://www.w3.org/2000/svg" xmlns:xlink="http://www.w3.org/1999/xlink" x="0px" y="0px"
	 viewBox="0 0 94.9 85.9" style="enable-background:new 0 0 94.9 85.9;" xml:space="preserve">
<style type="text/css">
	.st0{fill:#00A1F4;}
</style>
<g>
	<path class="st0" d="M48.4,61.7L48.4,61.7c-1.4-1.4-1-4.1,0.9-6l14.8-14.8c1.9-1.9,4.6-2.3,6-0.9l0,0c1.4,1.4,1,4.1-0.9,6
		L54.4,60.8C52.5,62.7,49.8,63.1,48.4,61.7z"/>
	<path class="st0" d="M52.7,61L52.7,61c-1.4,1.4-3.7,1.4-5.1,0L25.3,38.7c-1.4-1.4-1.4-3.7,0-5.1l0,0c1.4-1.4,3.7-1.4,5.1,0
		l22.3,22.3C54.2,57.3,54.2,59.5,52.7,61z"/>
</g>
</svg>
