<?xml version="1.0" encoding="utf-8"?>
<!-- Generator: Adobe Illustrator 24.1.2, SVG Export Plug-In . SVG Version: 6.00 Build 0)  -->
<svg version="1.1" xmlns="http://www.w3.org/2000/svg" xmlns:xlink="http://www.w3.org/1999/xlink" x="0px" y="0px"
	 viewBox="0 0 1920 650.4" style="enable-background:new 0 0 1920 650.4;" xml:space="preserve">
<style type="text/css">
	.st0{opacity:0.36;fill:none;stroke:#9E9E9E;stroke-miterlimit:10;enable-background:new    ;}
	.st1{opacity:0.1;fill:#04A0F4;}
	.st2{fill:#EAEAEA;}
	.st3{fill:#2FD7C9;}
	.st4{fill:#FFFFFF;}
	.st5{fill:#FFFFFF;stroke:#9E9E9E;stroke-miterlimit:10;}
	.st6{fill:#04A0F4;}
	.st7{fill:none;stroke:#FFFFFF;stroke-width:2;stroke-miterlimit:10;}
	.st8{fill:#FF695B;}
	.st9{fill:#FFFFFF;stroke:#9E9E9E;stroke-width:6;stroke-linecap:round;stroke-miterlimit:10;}
	.st10{fill:#3CCC79;}
	.st11{fill:#FFFFFF;stroke:#484949;stroke-miterlimit:10;}
	.st12{fill:#F4F5F0;}
	.st13{fill:#C5CED1;}
	.st14{fill:#FFBE4F;}
	.st15{fill:#00A1F4;}
</style>
<g id="Layer_1">
	<path class="st0" d="M-260.9,412.8C-48,308.2,187.7,226.3,422.9,257.4c204.1,27,386.9,135.9,582.1,201.1
		c328.9,109.7,698.9,90.4,1014.6-53"/>
	<g>
		<path class="st1" d="M-50,513.3h8.5c3.8,0,6.8-3.1,6.8-6.8v-1.7c0-3.8,3.1-6.8,6.8-6.8h1.7c3.8,0,6.8,3.1,6.8,6.8v17.1
			c0,3.8,3.1,6.8,6.8,6.8h1.7c3.8,0,6.8-3.1,6.8-6.8v-32.5c0-3.8,3.1-6.8,6.8-6.8h1.7c3.8,0,6.8,3.1,6.8,6.8v47.8
			c0,3.8,3.1,6.8,6.8,6.8h1.7c3.8,0,6.8-3.1,6.8-6.8v-32.5c0-3.8,3.1-6.8,6.8-6.8H35c3.8,0,6.8,3.1,6.8,6.8v17.1
			c0,3.8,3.1,6.8,6.8,6.8l0,0c3.8,0,6.8-3.1,6.8-6.8v-17.1c0-3.8,3.1-6.8,6.8-6.8h1.7c3.8,0,6.8,3.1,6.8,6.8v63.2
			c0,3.8,3.1,6.8,6.8,6.8h3.4c3.8,0,6.8-3.1,6.8-6.8V458.6c0-3.8,3.1-6.8,6.8-6.8h1.7c3.8,0,6.8,3.1,6.8,6.8v94
			c0,3.8,3.1,6.8,6.8,6.8h1.7c3.8,0,6.8-3.1,6.8-6.8V474c0-3.8,3.1-6.8,6.8-6.8h1.7c3.8,0,6.8,3.1,6.8,6.8v64.9
			c0,3.8,3.1,6.8,6.8,6.8l0,0c3.8,0,6.8-3.1,6.8-6.8V503c0-3.8,3.1-6.8,6.8-6.8h3.4c3.8,0,6.8,3.1,6.8,6.8v18.8
			c0,3.8,3.1,6.8,6.8,6.8l0,0c3.8,0,6.8-3.1,6.8-6.8v-1.7c0-3.8,3.1-6.8,6.8-6.8h11.5H-75.8"/>
		<g>
			<path class="st2" d="M1325.8,185.4c20.1,0,36.5,16.4,36.5,36.5v49.3c0,7.1,5.7,12.8,12.8,12.8c7.1,0,12.8-5.7,12.8-12.8v-49.3
				c0-20.1,16.4-36.5,36.5-36.5s36.5,16.4,36.5,36.5v49.3c0,7.1,5.7,12.8,12.8,12.8s12.8-5.7,12.8-12.8v-24.7h23.7v24.7
				c0,20.1-16.4,36.5-36.5,36.5c-20.1,0-36.5-16.4-36.5-36.5v-49.3c0-7.1-5.7-12.8-12.8-12.8c-7.1,0-12.8,5.7-12.8,12.8v49.3
				c0,20.1-16.4,36.5-36.5,36.5c-20.2,0-36.5-16.4-36.5-36.5v-49.3c0-7.1-5.7-12.8-12.8-12.8c-7.1,0-12.8,5.7-12.8,12.8v24.7h-23.7
				v-24.7C1289.2,201.8,1305.6,185.4,1325.8,185.4z"/>
		</g>
		<path class="st3" d="M1191.3,250.8"/>
		<g>
			<path class="st4" d="M1778.5,513.7h-50.2c-1.4,0-2.6-1.2-2.6-2.6v-5c0-1.4,1.2-2.6,2.6-2.6h50.2c1.4,0,2.6,1.2,2.6,2.6v5
				C1781.1,512.6,1780,513.7,1778.5,513.7z"/>
			<path class="st4" d="M405.1,383.8h-2.8c-1.6,0-3-1.4-3-3v-2.8c0-1.6,1.4-3,3-3h2.8c1.6,0,3,1.4,3,3v2.8
				C408.1,382.4,406.8,383.8,405.1,383.8z"/>
			<path class="st4" d="M701.3,604.1h-7.6c-1.9,0-3.5-1.6-3.5-3.5v-3.2c0-1.9,1.6-3.5,3.5-3.5h7.6c1.9,0,3.5,1.6,3.5,3.5v3.2
				C704.8,602.5,703.2,604.1,701.3,604.1z"/>
		</g>
	</g>
	<path class="st1" d="M1732.1,175.8h10.9c4.8,0,8.7-3.9,8.7-8.7v-2.2c0-4.8,3.9-8.7,8.7-8.7h2.2c4.8,0,8.7,3.9,8.7,8.7v21.8
		c0,4.8,3.9,8.7,8.7,8.7h2.2c4.8,0,8.7-3.9,8.7-8.7v-41.5c0-4.8,3.9-8.7,8.7-8.7h2.2c4.8,0,8.7,3.9,8.7,8.7v61.1
		c0,4.8,3.9,8.7,8.7,8.7h2.2c4.8,0,8.7-3.9,8.7-8.7v-41.5c0-4.8,3.9-8.7,8.7-8.7h2.2c4.8,0,8.7,3.9,8.7,8.7v21.8
		c0,4.8,3.9,8.7,8.7,8.7l0,0c4.8,0,8.7-3.9,8.7-8.7v-21.8c0-4.8,3.9-8.7,8.7-8.7h2.2c4.8,0,8.7,3.9,8.7,8.7v80.8
		c0,4.8,3.9,8.7,8.7,8.7h4.4c4.8,0,8.7-3.9,8.7-8.7V105.9c0-4.8,3.9-8.7,8.7-8.7h2.2c4.8,0,8.7,3.9,8.7,8.7V226
		c0,4.8,3.9,8.7,8.7,8.7h2.2c4.8,0,8.7-3.9,8.7-8.7V125.6c0-4.8,3.9-8.7,8.7-8.7h2.2c4.8,0,8.7,3.9,8.7,8.7v83
		c0,4.8,3.9,8.7,8.7,8.7h0c4.8,0,8.7-3.9,8.7-8.7v-45.9c0-4.8,3.9-8.7,8.7-8.7h4.4c4.8,0,8.7,3.9,8.7,8.7v24c0,4.8,3.9,8.7,8.7,8.7
		l0,0c4.8,0,8.7-3.9,8.7-8.7v-2.2c0-4.8,3.9-8.7,8.7-8.7h13.1h-347.5"/>
	<g>
		<path class="st5" d="M414.9,453.6h-95.6c-7.8,0-14.1-6.3-14.1-14.1v-32c0-7.8,6.3-14.1,14.1-14.1h95.6c7.8,0,14.1,6.3,14.1,14.1
			v32C429,447.3,422.7,453.6,414.9,453.6z"/>
		<g>
			<circle class="st6" cx="334.8" cy="422.5" r="21.5"/>
			<g>
				<path class="st4" d="M337.6,420.4c0-5.6,1.6-6.7,3.4-6.7c4.1,0,8,5.3,9.1,10.3s1.8,10.4-5,10.4c-9.1,0-7.6-5.1-7.6-7.9
					C337.6,423.7,337.6,420.4,337.6,420.4z"/>
				<path class="st4" d="M332.4,420.4c0-5.6-1.6-6.7-3.4-6.7c-4.1,0-8,5.3-9.1,10.3c-1.1,5-1.8,10.4,5,10.4c8.7,0,7.6-5.1,7.6-7.9
					C332.4,423.7,332.4,420.4,332.4,420.4z"/>
				<path class="st7" d="M334.8,407.1c0,0,0,6.6,0,8.1c0,3.2,3.2,5.4,7.5,7.1"/>
				<path class="st7" d="M334.8,407.1c0,0,0,6.6,0,8.1c0,3.2-3.2,5.4-7.5,7.1"/>
			</g>
		</g>
		<circle class="st8" cx="350.8" cy="428.2" r="3.7"/>
		<g>
			<g>
				<line class="st9" x1="364.4" y1="409.1" x2="407.7" y2="409.1"/>
				<line class="st9" x1="394.8" y1="418" x2="413.2" y2="418"/>
				<line class="st9" x1="364.4" y1="426.9" x2="409.4" y2="426.9"/>
				<line class="st9" x1="364.4" y1="435.8" x2="393.1" y2="435.8"/>
			</g>
			<g>
				<line class="st9" x1="364.4" y1="418" x2="381.4" y2="418"/>
				<line class="st9" x1="387.1" y1="426.9" x2="409.4" y2="426.9"/>
			</g>
		</g>
	</g>
	<g>
		<g>
			<path class="st10" d="M315.6,71.8c5.3,20.2,23.3,35.1,44.7,35.1s39.4-14.9,44.7-35.1H315.6z"/>
			<path class="st11" d="M315.6,71.8c-5.3-20.2-23.3-35.1-44.7-35.1s-39.4,14.9-44.7,35.1H315.6z"/>
		</g>
		<path class="st12" d="M312.7,77.6c-5.3-20.2-23.3-35.1-44.7-35.1s-39.4,14.9-44.7,35.1H312.7z"/>
	</g>
	<g>
		<circle class="st5" cx="1609" cy="72.1" r="32.4"/>
		<circle class="st4" cx="1609" cy="72.1" r="32.4"/>
		<path class="st1" d="M1609,72.1l-18.6,17.8c-4.6-4.8-7.1-11.1-7.1-17.8c0-14.1,11.6-25.7,25.7-25.7c0.1,0,0.3,0,0.4,0L1609,72.1z"
			/>
		<g>
			<path class="st13" d="M1609,81.9c-1,0-1.8-0.8-1.8-1.8V39.7c0-1,0.8-1.8,1.8-1.8c1,0,1.8,0.8,1.8,1.8v40.4
				C1610.8,81.1,1610,81.9,1609,81.9z"/>
		</g>
		<g>
			<path class="st8" d="M1633.5,75h-29.2c-1.6,0-2.8-1.3-2.8-2.8s1.3-2.8,2.8-2.8h29.2c1.6,0,2.8,1.3,2.8,2.8S1635.1,75,1633.5,75z"
				/>
		</g>
	</g>
</g>
<g id="Layer_3">
	<g>
		<circle class="st14" cx="204.4" cy="258" r="39.1"/>
		<polygon class="st14" points="156.5,230.7 175.9,255.7 185.8,234.4 		"/>
		<g>
			<path class="st4" d="M230.1,260.3h-1c-1.2,0-2.2-1-2.2-2.2v-1c0-1.2,1-2.2,2.2-2.2h1c1.2,0,2.2,1,2.2,2.2v1
				C232.3,259.3,231.3,260.3,230.1,260.3z"/>
			<path class="st4" d="M185.2,265.7h-1c-1.2,0-2.2-1-2.2-2.2v-12.6c0-1.2,1-2.2,2.2-2.2h1c1.2,0,2.2,1,2.2,2.2v12.6
				C187.4,264.7,186.4,265.7,185.2,265.7z"/>
			<path class="st4" d="M194.3,271.9h-1c-1.2,0-2.2-1-2.2-2.2v-25c0-1.2,1-2.2,2.2-2.2h1c1.2,0,2.2,1,2.2,2.2v25
				C196.5,270.9,195.5,271.9,194.3,271.9z"/>
			<path class="st4" d="M203.4,265.7h-1c-1.2,0-2.2-1-2.2-2.2v-12.6c0-1.2,1-2.2,2.2-2.2h1c1.2,0,2.2,1,2.2,2.2v12.6
				C205.6,264.7,204.6,265.7,203.4,265.7z"/>
			<path class="st4" d="M212.5,280.4h-1c-1.2,0-2.2-1-2.2-2.2v-42.1c0-1.2,1-2.2,2.2-2.2h1c1.2,0,2.2,1,2.2,2.2v42.1
				C214.7,279.4,213.7,280.4,212.5,280.4z"/>
			<path class="st4" d="M221.6,265.7h-1c-1.2,0-2.2-1-2.2-2.2v-12.6c0-1.2,1-2.2,2.2-2.2h1c1.2,0,2.2,1,2.2,2.2v12.6
				C223.8,264.7,222.8,265.7,221.6,265.7z"/>
		</g>
	</g>
</g>
<g id="Layer_2">
	<circle class="st1" cx="1732.6" cy="500.8" r="83.1"/>
	<circle class="st1" cx="1732.6" cy="500.8" r="63"/>
	<g>
		<path class="st15" d="M1734.3,455.9c-25-1.4-46.3,17.7-47.7,42.7c-0.5,8.9,1.6,17.3,5.7,24.5l-14.7,25.4l26.5-11.7
			c7,5.5,15.7,9,25.3,9.5c25,1.4,46.3-17.7,47.7-42.7C1778.4,478.6,1759.3,457.3,1734.3,455.9z"/>
		<path class="st4" d="M1714.2,510L1714.2,510c-1.7,0-3-1.3-3-3v-12.9c0-1.7,1.3-3,3-3l0,0c1.7,0,3,1.3,3,3V507
			C1717.2,508.6,1715.8,510,1714.2,510z"/>
		<path class="st4" d="M1703.9,504L1703.9,504c-1.7,0-3-1.3-3-3v0c0-1.7,1.3-3,3-3l0,0c1.7,0,3,1.3,3,3v0
			C1706.9,502.6,1705.5,504,1703.9,504z"/>
		<path class="st4" d="M1724.2,516.8L1724.2,516.8c-1.7,0-3-1.3-3-3v-26.6c0-1.7,1.3-3,3-3l0,0c1.7,0,3,1.3,3,3v26.6
			C1727.2,515.5,1725.9,516.8,1724.2,516.8z"/>
		<path class="st4" d="M1734.3,530.5L1734.3,530.5c-1.7,0-3-1.3-3-3v-54c0-1.7,1.3-3,3-3l0,0c1.7,0,3,1.3,3,3v54
			C1737.3,529.2,1736,530.5,1734.3,530.5z"/>
		<path class="st4" d="M1744.4,516.8L1744.4,516.8c-1.7,0-3-1.3-3-3v-26.6c0-1.7,1.3-3,3-3l0,0c1.7,0,3,1.3,3,3v26.6
			C1747.4,515.5,1746,516.8,1744.4,516.8z"/>
		<path class="st4" d="M1754.5,510L1754.5,510c-1.7,0-3-1.3-3-3v-12.9c0-1.7,1.3-3,3-3l0,0c1.7,0,3,1.3,3,3V507
			C1757.5,508.6,1756.1,510,1754.5,510z"/>
	</g>
</g>
</svg>
