<?xml version="1.0" encoding="utf-8"?>
<!-- Generator: Adobe Illustrator 24.1.2, SVG Export Plug-In . SVG Version: 6.00 Build 0)  -->
<svg version="1.1" id="Layer_1" xmlns="http://www.w3.org/2000/svg" xmlns:xlink="http://www.w3.org/1999/xlink" x="0px" y="0px"
	 viewBox="0 0 121.7 110.7" style="enable-background:new 0 0 121.7 110.7;" xml:space="preserve">
<style type="text/css">
	.st0{clip-path:url(#SVGID_2_);}
	.st1{fill:#04A0F4;}
	.st2{fill:#FFFFFF;}
	.st3{opacity:0.33;fill:#04A0F4;enable-background:new    ;}
	.st4{fill:#FF695B;}
	.st5{fill:#484949;}
</style>
<g id="Layer_2_2_">
	<g id="Layer_1-2_1_">
		<g>
			<defs>
				<circle id="SVGID_1_" cx="61.1" cy="55" r="51.5"/>
			</defs>
			<clipPath id="SVGID_2_">
				<use xlink:href="#SVGID_1_"  style="overflow:visible;"/>
			</clipPath>
			<g class="st0">
				<circle class="st1" cx="61.1" cy="55" r="51.5"/>
			</g>
		</g>
		<circle class="st2" cx="61.6" cy="56" r="34.5"/>
		<path class="st3" d="M61.6,56l-25,23.8C23.5,66,24,44.2,37.8,31c6.4-6.1,15-9.6,23.9-9.6h0.5L61.6,56z"/>
		<path class="st4" d="M87.7,59H56.6c-1.7,0-3-1.4-3-3c0-1.7,1.4-3,3-3l0,0h31.1c1.7,0,3,1.4,3,3C90.7,57.6,89.4,59,87.7,59z"/>
		<path class="st5" d="M61.6,64.4c-1.1,0-2-0.9-1.9-2c0,0,0,0,0,0V18.8c-0.1-1.1,0.8-2,1.8-2.1c1.1-0.1,2,0.8,2.1,1.8
			c0,0.1,0,0.2,0,0.2v43.6C63.6,63.5,62.7,64.4,61.6,64.4C61.6,64.4,61.6,64.4,61.6,64.4z"/>
	</g>
</g>
</svg>
