<?xml version="1.0" encoding="utf-8"?>
<!-- Generator: Adobe Illustrator 24.1.2, SVG Export Plug-In . SVG Version: 6.00 Build 0)  -->
<svg version="1.1" id="Layer_1" xmlns="http://www.w3.org/2000/svg" xmlns:xlink="http://www.w3.org/1999/xlink" x="0px" y="0px"
	 viewBox="0 0 5588.94 5588.94" style="enable-background:new 0 0 5588.94 5588.94;" xml:space="preserve">
<style type="text/css">
	.st0{display:none;}
	.st1{display:inline;}
	.st2{display:inline;opacity:0.22;}
	.st3{fill:#FFFFFF;}
	.st4{display:inline;fill:#FFFFFF;}
	.st5{fill:url(#SVGID_1_);}
	.st6{fill:#262262;}
	.st7{fill:#41BC9E;}
	.st8{fill:url(#SVGID_2_);stroke:url(#SVGID_3_);stroke-miterlimit:10;}
</style>
<g>
	<g>
		<path class="st6" d="M768.91,2712.13v29.26c46.17,5.16,82.19,44.43,82.19,91.96v628.6c9.21,4.18,18.96,7.39,29.11,9.51v-638.11
			c0-32.5-12.65-63.05-35.63-86.02C824.06,2726.81,797.5,2714.53,768.91,2712.13z"/>
		<path class="st6" d="M814.58,2654.9h-45.67v29.11h45.67c51.45,0,93.3,41.86,93.3,93.3v697.07c0.34,0,0.67,0.01,1.01,0.01h0
			c9.63,0,19.02-0.97,28.1-2.82v-694.26c0-32.7-12.73-63.44-35.85-86.56C878.02,2667.64,847.28,2654.9,814.58,2654.9z"/>
		<path class="st6" d="M874.04,2595.4H768.91v29.11h105.13c51.48,0,93.36,41.88,93.36,93.36v743.76
			c10.47-4.82,20.23-10.9,29.11-18.03v-725.73c0-32.71-12.74-63.47-35.87-86.6C937.51,2608.13,906.75,2595.4,874.04,2595.4z"/>
		<path class="st6" d="M934.64,2535.61H768.91v29.11h165.73c51.03,0,92.54,41.51,92.54,92.54v752.04
			c13.74-21.66,21.7-47.34,21.7-74.89v-719.12c-6-16.36-15.53-31.36-28.22-44.05C997.68,2548.27,967.13,2535.61,934.64,2535.61z"/>
		<path class="st6" d="M1014.35,2162.46h-210.9c-7.69,8.8-14.3,18.58-19.61,29.11h250.12
			C1028.64,2181.04,1022.04,2171.26,1014.35,2162.46z"/>
		<path class="st6" d="M768.91,2800.55v41.11c11.67,15.54,18.59,34.83,18.59,55.72v506.79c7.71,13.39,17.57,25.38,29.11,35.5
			v-542.29c0-32.61-12.7-63.27-35.76-86.33C777.07,2807.26,773.08,2803.76,768.91,2800.55z"/>
		<path class="st6" d="M768.91,2474.96v29.11h226.33c19.98,0,38.5,6.36,53.65,17.16v-33.88c-16.49-8.11-34.73-12.4-53.65-12.4
			H768.91z"/>
		<path class="st6" d="M1045.24,2222.66H772.55c-2.18,9.38-3.42,19.12-3.61,29.11h279.9
			C1048.66,2241.78,1047.42,2232.04,1045.24,2222.66z"/>
		<path class="st6" d="M908.9,2114.54L908.9,2114.54c-22.31,0-43.39,5.23-62.1,14.51H971
			C952.29,2119.76,931.2,2114.54,908.9,2114.54z"/>
		<rect x="768.91" y="2282.87" class="st6" width="279.97" height="29.11"/>
		<rect x="768.91" y="2415.17" class="st6" width="279.97" height="29.11"/>
		<rect x="768.91" y="2353" class="st6" width="279.97" height="29.11"/>
		<path class="st6" d="M386.68,2835.61v29.11h270.56c3.18,0,6.31,0.16,9.41,0.48v-29.23c-3.11-0.24-6.25-0.36-9.41-0.36H386.68z"/>
		<path class="st6" d="M563.49,2953H386.68v29.11h176.81c37.76,0,68.48,30.72,68.48,68.48v120.86
			c13.27-15.14,23.33-33.17,29.11-53.02v-67.84C661.08,2996.78,617.3,2953,563.49,2953z"/>
		<path class="st6" d="M386.68,2893.11v29.11h233.97c17.52,0,33.58,6.37,46,16.9v-34.83c-13.79-7.14-29.43-11.19-46-11.19H386.68z"
			/>
		<path class="st6" d="M629.89,2415.17H423.44c-8.02,8.75-14.94,18.53-20.55,29.11h247.55
			C644.83,2433.71,637.92,2423.93,629.89,2415.17z"/>
		<path class="st6" d="M515.46,3012.46H386.68v29.11h128.78c31.45,0,57.04,25.59,57.04,57.04v112.9
			c10.3-3.57,20.06-8.31,29.11-14.06v-98.85C601.62,3051.11,562.97,3012.46,515.46,3012.46z"/>
		<path class="st6" d="M475.12,3075.62h-88.44v3.6c0,8.71,0.8,17.24,2.33,25.51h86.11c18.87,0,34.23,15.35,34.23,34.23v79.18
			c5.68,0.7,11.46,1.07,17.32,1.07h0c3.97,0,7.9-0.17,11.79-0.5v-79.75C538.46,3104.03,510.04,3075.62,475.12,3075.62z"/>
		<rect x="386.68" y="2595.4" class="st6" width="279.97" height="29.11"/>
		<rect x="386.68" y="2775.29" class="st6" width="279.97" height="29.11"/>
		<path class="st6" d="M526.67,2369.73L526.67,2369.73c-20.55,0-40.06,4.43-57.64,12.38H584.3
			C566.72,2374.16,547.21,2369.73,526.67,2369.73z"/>
		<rect x="386.68" y="2535.61" class="st6" width="279.97" height="29.11"/>
		<path class="st6" d="M662.3,2474.96H391.03c-2.39,9.36-3.83,19.1-4.23,29.11h279.73C666.13,2494.06,664.69,2484.32,662.3,2474.96z
			"/>
		<rect x="386.68" y="2711.69" class="st6" width="279.97" height="29.11"/>
		<rect x="386.68" y="2654.9" class="st6" width="279.97" height="29.11"/>
		<path class="st6" d="M454.05,3132.48c-12.92,0-23.4,10.48-23.4,23.4v0c0,12.92,10.48,23.4,23.4,23.4c12.92,0,23.4-10.48,23.4-23.4
			v0C477.45,3142.96,466.97,3132.48,454.05,3132.48z"/>
		<path class="st6" d="M1130.85,2719.11v29.23c3.11,0.24,6.25,0.36,9.41,0.36h270.56v-29.11h-270.56
			C1137.08,2719.59,1133.94,2719.43,1130.85,2719.11z"/>
		<path class="st6" d="M1165.54,2533.72v-120.86c-13.27,15.14-23.33,33.17-29.11,53.02v67.84c0,53.81,43.78,97.59,97.59,97.59
			h176.81v-29.11h-176.81C1196.26,2602.2,1165.54,2571.48,1165.54,2533.72z"/>
		<path class="st6" d="M1130.85,2645.19v34.83c13.79,7.14,29.43,11.19,46,11.19h233.97v-29.11h-233.97
			C1159.32,2662.09,1143.26,2655.72,1130.85,2645.19z"/>
		<path class="st6" d="M1167.61,3169.14h206.46c8.02-8.75,14.94-18.53,20.55-29.11h-247.55
			C1152.67,3150.61,1159.58,3160.39,1167.61,3169.14z"/>
		<path class="st6" d="M1224.99,2485.7v-112.9c-10.3,3.57-20.06,8.31-29.11,14.06v98.85c0,47.51,38.65,86.16,86.16,86.16h128.78
			v-29.11h-128.78C1250.58,2542.74,1224.99,2517.15,1224.99,2485.7z"/>
		<path class="st6" d="M1322.38,2479.58c-18.87,0-34.23-15.35-34.23-34.23v-79.18c-5.68-0.7-11.46-1.07-17.32-1.07h0
			c-3.97,0-7.9,0.17-11.79,0.5v79.75c0,34.93,28.42,63.34,63.34,63.34h88.44v-3.6c0-8.71-0.8-17.24-2.33-25.51H1322.38z"/>
		<rect x="1130.85" y="2959.8" class="st6" width="279.97" height="29.11"/>
		<rect x="1130.85" y="2779.91" class="st6" width="279.97" height="29.11"/>
		<path class="st6" d="M1270.83,3214.58L1270.83,3214.58c20.55,0,40.06-4.43,57.64-12.38H1213.2
			C1230.77,3210.15,1250.29,3214.58,1270.83,3214.58z"/>
		<rect x="1130.85" y="3019.59" class="st6" width="279.97" height="29.11"/>
		<path class="st6" d="M1135.2,3109.35h271.27c2.39-9.36,3.83-19.1,4.23-29.11h-279.73
			C1131.37,3090.25,1132.81,3099.99,1135.2,3109.35z"/>
		<rect x="1130.85" y="2843.51" class="st6" width="279.97" height="29.11"/>
		<rect x="1130.85" y="2900.3" class="st6" width="279.97" height="29.11"/>
		<circle class="st6" cx="1344.93" cy="2429.73" r="23.4"/>
		<path class="st6" d="M2355.27,2522.1c-96.64,0-182.08,48.19-234.07,121.65c-51.98-73.46-137.43-121.65-234.07-121.65
			c-158.13,0-286.78,128.65-286.78,286.79v253.04h105.44v-253.04c0-100,81.35-181.36,181.35-181.36
			c100,0,181.35,81.36,181.35,181.36v253.04h105.44v-253.04c0-100,81.36-181.36,181.36-181.36c100,0,181.35,81.36,181.35,181.36
			v253.04h105.44v-253.04C2642.06,2650.75,2513.4,2522.1,2355.27,2522.1z"/>
		<path class="st6" d="M3321.96,2808.55v253.38h105.58v-253.38c0-100.13,81.46-181.6,181.59-181.6v-105.58
			C3450.79,2521.36,3321.96,2650.19,3321.96,2808.55z"/>
		<path class="st6" d="M4990.53,2737.97h-110.99c-21.01-9.26-35.76-30.22-35.76-54.62c0-32.93,26.79-59.73,59.74-59.73h119.84
			v-102.25h-119.84c-89.32,0-161.99,72.66-161.99,161.98s72.67,161.98,161.99,161.98h110.98c21.01,9.26,35.75,30.22,35.75,54.62
			c0,32.93-26.79,59.73-59.73,59.73h-119.84v102.25h119.84c89.32,0,161.98-72.66,161.98-161.98S5079.85,2737.97,4990.53,2737.97z"/>
		<path class="st6" d="M3906.19,2825.97c72.16-49.06,119.67-131.79,119.67-225.43h-103.06c0,83.95-61.45,153.62-141.67,166.9
			v-331.96h-103.06v626.45h103.06v-168.84c88.48,5.48,158.85,78.99,158.85,168.84h103.06
			C4043.03,2961.09,3987.83,2873.08,3906.19,2825.97z"/>
		<path class="st6" d="M3253.03,2790.04c0-149.44-121.58-271.03-271.03-271.03c-149.44,0-271.03,121.59-271.03,271.03
			c0,149.44,121.58,271.02,271.03,271.02c69.71,0,133.32-26.48,181.38-69.87v70.64h88.82l0.1,0.1v-0.1h0.06v-89.64h-0.06v-167.88
			C3252.56,2799.55,3253.03,2794.85,3253.03,2790.04z M2982.01,2958.52c-92.9,0-168.49-75.58-168.49-168.48
			c0-92.9,75.59-168.5,168.49-168.5c92.9,0,168.49,75.6,168.49,168.5C3150.5,2882.94,3074.91,2958.52,2982.01,2958.52z"/>
		<path class="st6" d="M4569.56,2770.16c0,97.75-79.53,177.27-177.27,177.27c-97.75,0-177.27-79.53-177.27-177.27v-247.34h-103.06
			v247.34c0,154.58,125.76,280.34,280.34,280.34c76.43,0,145.78-30.79,196.4-80.57v91.9h83.93v-10.46v-83.52v-445.02h-103.06
			V2770.16z"/>
		<path class="st6" d="M5152.48,2516.54c-30.21,0-54.78,24.57-54.78,54.78s24.58,54.78,54.78,54.78c30.21,0,54.78-24.58,54.78-54.78
			S5182.68,2516.54,5152.48,2516.54z M5152.48,2622.4c-28.16,0-51.08-22.91-51.08-51.08s22.91-51.08,51.08-51.08
			c28.16,0,51.08,22.91,51.08,51.08S5180.64,2622.4,5152.48,2622.4z"/>
		<path class="st6" d="M5169.2,2560.18c0-8.74-5.78-15.43-18.09-15.43h-15.97v53.14h5.32v-22.2h9.81l13.15,22.2h6.39l-13.68-22.58
			C5165.1,2573.64,5169.2,2567.48,5169.2,2560.18z M5140.46,2571.36v-22.12h10.64c8.97,0,12.62,4.26,12.62,10.95
			c0,6.46-3.88,11.18-12.54,11.18H5140.46z"/>
	</g>
	<g>
		<g>
			<path class="st3" d="M763.91,2712.13v29.26c46.17,5.16,82.19,44.43,82.19,91.96v628.6c9.21,4.18,18.96,7.39,29.11,9.51v-638.11
				c0-32.49-12.65-63.04-35.63-86.02C819.06,2726.81,792.5,2714.53,763.91,2712.13z"/>
			<path class="st3" d="M809.58,2654.9h-45.67v29.11h45.67c51.45,0,93.3,41.86,93.3,93.3v697.07c0.34,0,0.67,0.01,1.01,0.01h0
				c9.63,0,19.02-0.97,28.1-2.82v-694.26c0-32.7-12.73-63.44-35.85-86.56C873.02,2667.64,842.28,2654.9,809.58,2654.9z"/>
			<path class="st3" d="M869.04,2595.4H763.91v29.11h105.13c51.48,0,93.36,41.88,93.36,93.36v743.76
				c10.47-4.82,20.23-10.9,29.11-18.03v-725.73c0-32.71-12.74-63.47-35.87-86.6C932.51,2608.13,901.75,2595.4,869.04,2595.4z"/>
			<path class="st3" d="M929.64,2535.61H763.91v29.11h165.73c51.03,0,92.54,41.51,92.54,92.54v752.04
				c13.74-21.66,21.7-47.34,21.7-74.89v-719.12c-6-16.36-15.53-31.36-28.22-44.05C992.68,2548.27,962.13,2535.61,929.64,2535.61z"/>
			<path class="st3" d="M1028.96,2191.57c-5.31-10.54-11.92-20.31-19.61-29.11h-210.9c-7.69,8.8-14.3,18.58-19.61,29.11H1028.96z"/>
			<path class="st7" d="M763.91,2800.55v41.11c11.67,15.54,18.59,34.83,18.59,55.72v506.79c7.71,13.39,17.57,25.38,29.11,35.5
				v-542.29c0-32.61-12.7-63.27-35.76-86.33C772.07,2807.26,768.08,2803.76,763.91,2800.55z"/>
			<path class="st7" d="M763.91,2474.96v29.11h226.33c19.98,0,38.5,6.36,53.65,17.16v-33.88c-16.49-8.11-34.73-12.4-53.65-12.4
				H763.91z"/>
			<path class="st3" d="M763.95,2251.78h279.9c-0.19-10-1.43-19.74-3.61-29.11H767.55C765.37,2232.04,764.14,2241.78,763.95,2251.78
				z"/>
			<path class="st3" d="M903.9,2114.54c-22.31,0-43.39,5.23-62.1,14.51H966C947.29,2119.76,926.2,2114.54,903.9,2114.54
				L903.9,2114.54z"/>
			<rect x="763.91" y="2282.87" class="st3" width="279.97" height="29.11"/>
			<rect x="763.91" y="2415.18" class="st3" width="279.97" height="29.11"/>
			<rect x="763.91" y="2353" class="st3" width="279.97" height="29.11"/>
		</g>
		<g>
			<g>
				<path class="st3" d="M381.68,2835.61v29.11h270.56c3.18,0,6.31,0.16,9.41,0.48v-29.23c-3.11-0.24-6.25-0.36-9.41-0.36H381.68z"
					/>
				<path class="st3" d="M558.49,2953H381.68v29.11h176.81c37.76,0,68.48,30.72,68.48,68.48v120.86
					c13.27-15.14,23.33-33.17,29.11-53.02v-67.84C656.08,2996.78,612.3,2953,558.49,2953z"/>
				<path class="st3" d="M381.68,2893.11v29.11h233.97c17.52,0,33.58,6.37,46,16.9v-34.83c-13.79-7.14-29.43-11.19-46-11.19H381.68z
					"/>
				<path class="st3" d="M645.44,2444.29c-5.61-10.58-12.52-20.36-20.55-29.11H418.44c-8.02,8.75-14.94,18.53-20.55,29.11H645.44z"
					/>
				<path class="st3" d="M510.46,3012.46H381.68v29.11h128.78c31.45,0,57.04,25.59,57.04,57.04v112.9
					c10.3-3.57,20.06-8.31,29.11-14.06v-98.85C596.62,3051.11,557.97,3012.46,510.46,3012.46z"/>
				<path class="st3" d="M470.12,3075.62h-88.44v3.6c0,8.71,0.8,17.24,2.33,25.51h86.11c18.87,0,34.23,15.35,34.23,34.23v79.18
					c5.68,0.7,11.46,1.07,17.32,1.07h0c3.97,0,7.9-0.17,11.79-0.5v-79.75C533.46,3104.03,505.04,3075.62,470.12,3075.62z"/>
				<rect x="381.68" y="2595.4" class="st3" width="279.97" height="29.11"/>
				<rect x="381.68" y="2775.29" class="st7" width="279.97" height="29.11"/>
				<path class="st3" d="M521.67,2369.73c-20.55,0-40.06,4.43-57.64,12.38H579.3C561.72,2374.16,542.21,2369.73,521.67,2369.73
					L521.67,2369.73z"/>
				<rect x="381.68" y="2535.61" class="st3" width="279.97" height="29.11"/>
				<path class="st3" d="M381.8,2504.07h279.73c-0.4-10.01-1.84-19.75-4.23-29.11H386.03
					C383.64,2484.32,382.2,2494.06,381.8,2504.07z"/>
				<rect x="381.68" y="2711.69" class="st3" width="279.97" height="29.11"/>
				<rect x="381.68" y="2654.9" class="st3" width="279.97" height="29.11"/>
			</g>
			<path class="st3" d="M449.05,3179.28L449.05,3179.28c-12.92,0-23.4-10.48-23.4-23.4l0,0c0-12.92,10.48-23.4,23.4-23.4h0
				c12.92,0,23.4,10.48,23.4,23.4l0,0C472.45,3168.8,461.97,3179.28,449.05,3179.28z"/>
		</g>
		<g>
			<g>
				<path class="st3" d="M1405.82,2748.7v-29.11h-270.56c-3.18,0-6.31-0.16-9.41-0.48v29.23c3.11,0.24,6.25,0.36,9.41,0.36H1405.82z
					"/>
				<path class="st3" d="M1229.01,2631.31h176.81v-29.11h-176.81c-37.76,0-68.48-30.72-68.48-68.48v-120.86
					c-13.27,15.14-23.33,33.17-29.11,53.02v67.84C1131.42,2587.54,1175.2,2631.31,1229.01,2631.31z"/>
				<path class="st7" d="M1405.82,2691.2v-29.11h-233.97c-17.52,0-33.58-6.37-46-16.9v34.83c13.79,7.14,29.43,11.19,46,11.19
					H1405.82z"/>
				<path class="st3" d="M1142.06,3140.03c5.61,10.58,12.52,20.36,20.55,29.11h206.46c8.02-8.75,14.94-18.53,20.55-29.11H1142.06z"
					/>
				<path class="st3" d="M1277.04,2571.86h128.78v-29.11h-128.78c-31.45,0-57.04-25.59-57.04-57.04v-112.9
					c-10.3,3.57-20.06,8.31-29.11,14.06v98.85C1190.88,2533.21,1229.53,2571.86,1277.04,2571.86z"/>
				<path class="st3" d="M1317.38,2508.7h88.44v-3.6c0-8.71-0.8-17.24-2.33-25.51h-86.11c-18.87,0-34.23-15.35-34.23-34.23v-79.18
					c-5.68-0.7-11.46-1.07-17.32-1.07h0c-3.97,0-7.9,0.17-11.79,0.5v79.75C1254.04,2480.28,1282.46,2508.7,1317.38,2508.7z"/>
				<rect x="1125.85" y="2959.8" class="st3" width="279.97" height="29.11"/>
				<rect x="1125.85" y="2779.91" class="st3" width="279.97" height="29.11"/>
				<path class="st3" d="M1265.83,3214.58c20.55,0,40.06-4.43,57.64-12.38H1208.2C1225.77,3210.15,1245.29,3214.58,1265.83,3214.58
					L1265.83,3214.58z"/>
				<rect x="1125.85" y="3019.59" class="st3" width="279.97" height="29.11"/>
				<path class="st3" d="M1405.7,3080.24h-279.73c0.4,10.01,1.84,19.75,4.23,29.11h271.27
					C1403.86,3099.99,1405.3,3090.25,1405.7,3080.24z"/>
				<rect x="1125.85" y="2843.51" class="st3" width="279.97" height="29.11"/>
				<rect x="1125.85" y="2900.3" class="st3" width="279.97" height="29.11"/>
			</g>
			<path class="st3" d="M1339.93,2453.13L1339.93,2453.13c-12.92,0-23.4-10.48-23.4-23.4l0,0c0-12.92,10.48-23.4,23.4-23.4h0
				c12.92,0,23.4,10.48,23.4,23.4l0,0C1363.33,2442.66,1352.85,2453.13,1339.93,2453.13z"/>
		</g>
		<path class="st3" d="M2350.27,2522.1c-96.64,0-182.08,48.19-234.07,121.65c-51.98-73.46-137.43-121.65-234.06-121.65
			c-158.13,0-286.78,128.65-286.78,286.79v253.04h105.44v-253.04c0-100,81.35-181.36,181.35-181.36s181.35,81.36,181.35,181.36
			v253.04h105.44v-253.04c0-100,81.36-181.36,181.36-181.36c100,0,181.35,81.36,181.35,181.36v253.04h105.44v-253.04
			C2637.06,2650.75,2508.4,2522.1,2350.27,2522.1z"/>
		<path class="st3" d="M3422.54,3061.92h-105.58v-253.38c0-158.35,128.83-287.18,287.17-287.18v105.58
			c-100.13,0-181.59,81.47-181.59,181.6V3061.92z"/>
		<path class="st3" d="M4985.53,2737.97h-110.99c-21.01-9.26-35.75-30.22-35.75-54.62c0-32.93,26.79-59.73,59.74-59.73h119.84
			v-102.25h-119.84c-89.32,0-161.98,72.66-161.98,161.98s72.67,161.98,161.98,161.98h110.98c21.01,9.26,35.75,30.22,35.75,54.62
			c0,32.93-26.79,59.73-59.73,59.73h-119.84v102.25h119.84c89.32,0,161.98-72.66,161.98-161.98
			C5147.51,2810.63,5074.85,2737.97,4985.53,2737.97z"/>
		<path class="st3" d="M3901.19,2825.97c72.16-49.06,119.67-131.79,119.67-225.43h-103.06c0,83.95-61.45,153.62-141.67,166.9
			v-331.96h-103.06v626.45h103.06v-168.84c88.48,5.48,158.85,78.99,158.85,168.84h103.06
			C4038.03,2961.09,3982.83,2873.08,3901.19,2825.97z"/>
		<path class="st3" d="M3247.31,2804.31c0.25-4.76,0.72-9.45,0.72-14.27c0-149.44-121.58-271.03-271.03-271.03
			s-271.03,121.59-271.03,271.03c0,149.44,121.58,271.02,271.03,271.02c69.71,0,133.32-26.48,181.38-69.87v70.64h88.82l0.1,0.1v-0.1
			h0.06v-89.64h-0.06V2804.31z M2977.01,2958.52c-92.9,0-168.49-75.58-168.49-168.48c0-92.9,75.59-168.5,168.49-168.5
			s168.49,75.6,168.49,168.5C3145.5,2882.94,3069.91,2958.52,2977.01,2958.52z"/>
		<path class="st3" d="M4564.56,2522.82v247.34c0,97.75-79.53,177.27-177.27,177.27s-177.27-79.53-177.27-177.27v-247.34h-103.06
			v247.34c0,154.58,125.76,280.34,280.34,280.34c76.43,0,145.78-30.79,196.4-80.57v91.9h83.93v-10.46v-83.52v-445.02H4564.56z"/>
		<g>
			<path class="st3" d="M5147.48,2516.54c-30.21,0-54.78,24.57-54.78,54.78c0,30.21,24.58,54.78,54.78,54.78
				c30.21,0,54.78-24.57,54.78-54.78C5202.26,2541.11,5177.68,2516.54,5147.48,2516.54z M5147.48,2622.4
				c-28.16,0-51.08-22.91-51.08-51.08c0-28.16,22.91-51.08,51.08-51.08s51.08,22.91,51.08,51.08
				C5198.55,2599.48,5175.64,2622.4,5147.48,2622.4z"/>
			<path class="st3" d="M5164.2,2560.18c0-8.74-5.78-15.43-18.09-15.43h-15.97v53.14h5.32v-22.2h9.81l13.15,22.2h6.39l-13.68-22.58
				C5160.1,2573.64,5164.2,2567.48,5164.2,2560.18z M5135.46,2571.36v-22.12h10.64c8.97,0,12.62,4.26,12.62,10.95
				c0,6.46-3.88,11.18-12.54,11.18H5135.46z"/>
		</g>
	</g>
</g>
</svg>
